<?xml version="1.0" encoding="UTF-8"?>
<svg width="73px" height="60px" viewBox="0 0 73 60" version="1.1" xmlns="http://www.w3.org/2000/svg" xmlns:xlink="http://www.w3.org/1999/xlink">
    <!-- Generator: Sketch 49 (51002) - http://www.bohemiancoding.com/sketch -->
    <title>Page 1 Copy 6</title>
    <desc>Created with Sketch.</desc>
    <defs>
        <filter x="-25.0%" y="-18.9%" width="153.4%" height="168.9%" filterUnits="objectBoundingBox" id="filter-1">
            <feOffset dx="1" dy="7" in="SourceAlpha" result="shadowOffsetOuter1"></feOffset>
            <feGaussianBlur stdDeviation="4" in="shadowOffsetOuter1" result="shadowBlurOuter1"></feGaussianBlur>
            <feColorMatrix values="0 0 0 0 0.26049149   0 0 0 0 0.324856505   0 0 0 0 0.26049149  0 0 0 0.364102129 0" type="matrix" in="shadowBlurOuter1" result="shadowMatrixOuter1"></feColorMatrix>
            <feMerge>
                <feMergeNode in="shadowMatrixOuter1"></feMergeNode>
                <feMergeNode in="SourceGraphic"></feMergeNode>
            </feMerge>
        </filter>
        <polygon id="path-2" points="0.021648 0.233976 13.68 0.233976 13.68 11.880936 0.021648 11.880936"></polygon>
    </defs>
    <g id="Page-1" stroke="none" stroke-width="1" fill="none" fill-rule="evenodd">
        <g id="thuỷ-canh-copy" transform="translate(-1616.000000, -659.000000)">
            <g id="Page-1-Copy-6" filter="url(#filter-1)" transform="translate(1623.000000, 660.000000)">
                <polygon id="Fill-1" fill="#A8A8A8" points="48.24 27.6 48.24 34.5 41.28 34.5 41.28 36.66 50.4 36.66 50.4 35.04 50.4 34.5 50.4 27.6"></polygon>
                <g id="Group-19" transform="translate(0.000000, 0.060000)">
                    <path d="M21.6,42.369384 C10.2468,42.369384 1.01064,33.133224 1.01064,21.780024 C1.01064,10.426824 10.2468,1.190664 21.6,1.190664 C32.9532,1.190664 42.18936,10.426824 42.18936,21.780024 C42.18936,33.133224 32.9532,42.369384 21.6,42.369384" id="Fill-2" fill="#FFFFFF"></path>
                    <path d="M21.6,0.18 C9.67056,0.18 0,9.85056 0,21.78 C0,33.70944 9.67056,43.38 21.6,43.38 C33.52944,43.38 43.2,33.70944 43.2,21.78 C43.2,9.85056 33.52944,0.18 21.6,0.18 M21.6,2.20104 C32.39568,2.20104 41.17896,10.98432 41.17896,21.78 C41.17896,32.57568 32.39568,41.35896 21.6,41.35896 C10.80432,41.35896 2.02104,32.57568 2.02104,21.78 C2.02104,10.98432 10.80432,2.20104 21.6,2.20104" id="Fill-4" fill="#A8A8A8"></path>
                    <path d="M39.53584,26.13528 C38.12776,26.13528 36.79144,25.52184 35.86936,24.4524 C35.62144,24.16536 35.26096,24.00024 34.88152,24.00024 C34.50232,24.00024 34.14184,24.16512 33.89416,24.4524 C32.97208,25.52184 31.63576,26.13504 30.22768,26.13504 C28.81984,26.13504 27.48352,25.52184 26.5612,24.4524 C26.31352,24.16512 25.95304,24 25.5736,24 C25.1944,24 24.83392,24.16512 24.586,24.4524 C23.66416,25.5216 22.32784,26.13504 20.91976,26.13504 C19.51168,26.13504 18.1756,25.5216 17.25328,24.4524 C17.0056,24.16512 16.64512,24 16.26592,24 C15.88648,24 15.526,24.16512 15.27832,24.4524 C14.35624,25.52184 13.01992,26.13504 11.6116,26.13504 C10.20376,26.13504 8.86768,25.52184 7.94536,24.4524 C7.69768,24.16512 7.3372,24.00024 6.958,24.00024 C6.57856,24.00024 6.21808,24.16512 5.9704,24.4524 C5.04832,25.52208 3.71176,26.13528 2.30392,26.13528 C1.58368,26.13528 1,26.7192 1,27.43944 C1,28.15968 1.58368,28.74336 2.30392,28.74336 C3.82096,28.74336 5.28256,28.2804 6.51016,27.43944 C6.6628,27.33456 6.8128,27.22488 6.958,27.10848 C7.1032,27.22488 7.25296,27.33456 7.40608,27.43944 C8.6332,28.2804 10.09528,28.74336 11.61184,28.74336 C13.12864,28.74336 14.59072,28.2804 15.81808,27.43944 C15.97072,27.33456 16.12072,27.22488 16.26592,27.10848 C16.41112,27.22488 16.56112,27.33456 16.714,27.43944 C17.94112,28.2804 19.4032,28.74336 20.92,28.74336 C22.43656,28.74336 23.89864,28.2804 25.12576,27.43944 C25.27864,27.33456 25.42864,27.22488 25.57384,27.10848 C25.71904,27.22488 25.86904,27.33456 26.02168,27.43944 C27.24904,28.2804 28.71088,28.74336 30.22792,28.74336 C31.74472,28.74336 33.20656,28.2804 34.43368,27.43944 C34.5868,27.33456 34.73656,27.22488 34.88176,27.10848 C35.02696,27.22488 35.17696,27.33456 35.32984,27.43944 C36.55696,28.2804 38.01904,28.74336 39.53584,28.74336 C40.25608,28.74336 40.84,28.15968 40.84,27.43944 C40.84,26.7192 40.25608,26.13528 39.53584,26.13528" id="Fill-6" fill="#A8A8A8"></path>
                    <path d="M46.848984,22.0296 C46.881144,21.87432 46.929624,21.72456 46.991784,21.58272 L51.141144,21.58272 C51.203544,21.72456 51.251784,21.87432 51.283944,22.0296 L46.848984,22.0296 Z M51.141144,23.39352 L46.991784,23.39352 C46.929624,23.25144 46.881144,23.10192 46.848984,22.9464 L51.283944,22.9464 C51.251784,23.10192 51.203544,23.25144 51.141144,23.39352 Z M49.066344,24.7524 C48.564264,24.7524 48.100344,24.58776 47.724264,24.31032 L50.408424,24.31032 C50.032824,24.58776 49.568424,24.7524 49.066344,24.7524 Z M49.066344,20.22408 C49.568424,20.22408 50.032824,20.38848 50.408424,20.66592 L47.724264,20.66592 C48.100104,20.38824 48.564264,20.22408 49.066344,20.22408 Z M49.066344,19.30704 C47.312664,19.30704 45.885384,20.73432 45.885384,22.488 C45.885384,24.24216 47.312664,25.66896 49.066344,25.66896 C50.820504,25.66896 52.247304,24.24216 52.247304,22.488 C52.247304,20.73432 50.820504,19.30704 49.066344,19.30704 Z" id="Fill-8" fill="#A8A8A8"></path>
                    <g id="Group-12" transform="translate(43.440000, 16.560000)">
                        <mask id="mask-3" fill="white">
                            <use xlink:href="#path-2"></use>
                        </mask>
                        <g id="Clip-11"></g>
                        <path d="M0.938448,8.001336 L1.544688,7.804296 C1.733568,7.743096 1.861488,7.566936 1.861488,7.368216 L1.861488,4.959336 C1.861488,4.760616 1.733568,4.584696 1.544688,4.523496 L0.938448,4.326216 L0.938448,1.750776 C0.938448,1.537176 1.112208,1.363656 1.325568,1.363656 L2.044368,1.363656 L2.044368,2.014056 C2.044368,2.267016 2.249808,2.472456 2.503008,2.472456 L8.750208,2.472456 C9.003408,2.472456 9.208368,2.267016 9.208368,2.014056 L9.208368,1.363656 L9.927408,1.363656 C10.141008,1.363656 10.314528,1.537176 10.314528,1.750776 L10.314528,10.576776 C10.314528,10.790376 10.141008,10.964136 9.927408,10.964136 L9.208368,10.964136 L9.208368,9.966456 C9.208368,9.713256 9.003408,9.507816 8.750208,9.507816 L2.503008,9.507816 C2.249808,9.507816 2.044368,9.713256 2.044368,9.966456 L2.044368,10.964136 L1.325568,10.964136 C1.112208,10.964136 0.938448,10.790376 0.938448,10.576776 L0.938448,8.001336 Z M4.502928,1.415016 C4.579488,1.254456 4.743888,1.150536 4.921968,1.150536 L6.331248,1.150536 C6.509088,1.150536 6.673488,1.254456 6.750048,1.415016 L6.817248,1.555656 L4.435728,1.555656 L4.502928,1.415016 Z M2.961168,10.647336 L8.291808,10.647336 L8.291808,10.424376 L2.961168,10.424376 L2.961168,10.647336 Z M11.231328,6.232296 L12.763488,6.232296 L12.763488,5.882616 L11.231328,5.882616 L11.231328,6.232296 Z M11.231328,4.966056 L12.763488,4.966056 L12.763488,3.365256 L11.231328,3.365256 L11.231328,4.966056 Z M0.021648,10.576776 C0.021648,11.296056 0.606528,11.880936 1.325568,11.880936 L2.503008,11.880936 C2.706528,11.880936 2.878848,11.747736 2.938608,11.564136 L8.314128,11.564136 C8.373888,11.747736 8.546448,11.880936 8.750208,11.880936 L9.927408,11.880936 C10.646208,11.880936 11.231328,11.296056 11.231328,10.576776 L11.231328,7.148856 L12.767808,7.148856 C12.797328,7.373496 12.989088,7.546776 13.221648,7.546776 C13.474608,7.546776 13.680048,7.341816 13.680048,7.088616 L13.680048,2.508936 C13.680048,2.255976 13.474608,2.050536 13.221648,2.050536 C12.989088,2.050536 12.797328,2.224056 12.767808,2.448456 L11.231328,2.448456 L11.231328,1.750776 C11.231328,1.031736 10.646208,0.446616 9.927408,0.446616 L8.750208,0.446616 C8.497008,0.446616 8.291808,0.652056 8.291808,0.905256 L8.291808,1.555656 L7.822128,1.555656 C7.814448,1.525176 7.803888,1.494936 7.790208,1.465656 L7.577328,1.019976 C7.349568,0.542616 6.860208,0.233976 6.331248,0.233976 L4.921968,0.233976 C4.392768,0.233976 3.903408,0.542616 3.675648,1.019976 L3.463008,1.465656 C3.448848,1.494936 3.438288,1.525176 3.431088,1.555656 L2.961408,1.555656 L2.961408,0.905256 C2.961408,0.652056 2.755968,0.446616 2.503008,0.446616 L1.325568,0.446616 C0.606528,0.446616 0.021648,1.031736 0.021648,1.750776 L0.021648,4.659336 C0.021648,4.858056 0.149568,5.033976 0.338448,5.095416 L0.944688,5.292456 L0.944688,7.035576 L0.338448,7.232376 C0.149568,7.293816 0.021648,7.469736 0.021648,7.668216 L0.021648,10.576776 Z" id="Fill-10" fill="#A8A8A8" mask="url(#mask-3)"></path>
                    </g>
                    <path d="M20.926969,7.82189273 L20.9320876,7.79922487 L20.9320876,17.5851593 L17.848893,14.5089114 C17.6982614,14.3582798 17.4942507,14.2752862 17.2803685,14.2752862 C17.0661206,14.2752862 16.8639379,14.3582798 16.7129408,14.5089114 L16.2339908,14.9874957 C16.0837248,15.1381273 16,15.3388475 16,15.5527298 C16,15.7662464 16.0829936,15.9669666 16.2332596,16.1175982 L21.5064619,21.3911661 C21.6574591,21.5421633 21.8589106,21.6251569 22.0731584,21.6244257 C22.2885031,21.6251569 22.4895889,21.5421633 22.6405861,21.3911661 L27.9137884,16.1175982 C28.06442,15.9669666 28.147048,15.766612 28.147048,15.5527298 C28.147048,15.3388475 28.0640544,15.1381273 27.9137884,14.9874957 L27.4352041,14.5089114 C27.2849381,14.3582798 27.0842179,14.2752862 26.8703356,14.2752862 C26.6564534,14.2752862 26.4659703,14.3582798 26.3157043,14.5089114 L23.215326,17.6198923 L23.215326,7.81129002 C23.215326,7.37036358 22.8354566,7 22.3952614,7 L21.7174192,7 C21.277224,7 20.926969,7.3813319 20.926969,7.82189273" id="Fill-13" fill="#A8A8A8" transform="translate(22.073524, 14.312215) scale(1, -1) translate(-22.073524, -14.312215) "></path>
                </g>
            </g>
        </g>
    </g>
</svg>