<?xml version="1.0" encoding="UTF-8"?>
<svg width="80px" height="65px" viewBox="0 0 80 65" version="1.1" xmlns="http://www.w3.org/2000/svg" xmlns:xlink="http://www.w3.org/1999/xlink">
    <!-- Generator: Sketch 49 (51002) - http://www.bohemiancoding.com/sketch -->
    <title>Page 1</title>
    <desc>Created with Sketch.</desc>
    <defs>
        <filter x="-22.7%" y="-16.7%" width="150.0%" height="160.8%" filterUnits="objectBoundingBox" id="filter-1">
            <feOffset dx="1" dy="7" in="SourceAlpha" result="shadowOffsetOuter1"></feOffset>
            <feGaussianBlur stdDeviation="4" in="shadowOffsetOuter1" result="shadowBlurOuter1"></feGaussianBlur>
            <feColorMatrix values="0 0 0 0 0.26049149   0 0 0 0 0.324856505   0 0 0 0 0.26049149  0 0 0 0.364102129 0" type="matrix" in="shadowBlurOuter1" result="shadowMatrixOuter1"></feColorMatrix>
            <feMerge>
                <feMergeNode in="shadowMatrixOuter1"></feMergeNode>
                <feMergeNode in="SourceGraphic"></feMergeNode>
            </feMerge>
        </filter>
        <polygon id="path-2" points="0.0241539749 0.261061088 15.2635983 0.261061088 15.2635983 13.2562745 0.0241539749 13.2562745"></polygon>
    </defs>
    <g id="Page-1" stroke="none" stroke-width="1" fill="none" fill-rule="evenodd">
        <g id="thuỷ-canh-copy" transform="translate(-526.000000, -49.000000)">
            <g id="Page-1" filter="url(#filter-1)" transform="translate(533.000000, 50.000000)">
                <polygon id="Fill-1" fill="#F5A623" points="53.8242678 30.7949791 53.8242678 38.4937238 46.0585774 38.4937238 46.0585774 40.9037657 56.2343096 40.9037657 56.2343096 39.0962343 56.2343096 38.4937238 56.2343096 30.7949791"></polygon>
                <g id="Group-11" transform="translate(0.000000, 0.066946)">
                    <path d="M24.1004184,47.2740686 C11.4329707,47.2740686 1.1276318,36.9687297 1.1276318,24.301282 C1.1276318,11.6338343 11.4329707,1.3284954 24.1004184,1.3284954 C36.7678661,1.3284954 47.073205,11.6338343 47.073205,24.301282 C47.073205,36.9687297 36.7678661,47.2740686 24.1004184,47.2740686" id="Fill-2" fill="#FFFFFF"></path>
                    <path d="M24.1004184,0.20083682 C10.7900251,0.20083682 0,10.9908619 0,24.3012552 C0,37.6116485 10.7900251,48.4016736 24.1004184,48.4016736 C37.4108117,48.4016736 48.2008368,37.6116485 48.2008368,24.3012552 C48.2008368,10.9908619 37.4108117,0.20083682 24.1004184,0.20083682 M24.1004184,2.45583264 C36.1458075,2.45583264 45.945841,12.2558661 45.945841,24.3012552 C45.945841,36.3466444 36.1458075,46.1466778 24.1004184,46.1466778 C12.0550293,46.1466778 2.25499582,36.3466444 2.25499582,24.3012552 C2.25499582,12.2558661 12.0550293,2.45583264 24.1004184,2.45583264" id="Fill-4" fill="#F5A623"></path>
                    <path d="M52.2722276,24.579749 C52.3081105,24.4064937 52.3622025,24.2393975 52.4315582,24.0811381 L57.0612485,24.0811381 C57.130872,24.2393975 57.1846962,24.4064937 57.2205791,24.579749 L52.2722276,24.579749 Z M57.0612485,26.1015565 L52.4315582,26.1015565 C52.3622025,25.9430293 52.3081105,25.7762008 52.2722276,25.6026778 L57.2205791,25.6026778 C57.1846962,25.7762008 57.130872,25.9430293 57.0612485,26.1015565 Z M54.7462695,27.6177406 C54.1860686,27.6177406 53.6684452,27.4340418 53.2488301,27.1244854 L56.2437088,27.1244854 C55.8246293,27.4340418 55.3064703,27.6177406 54.7462695,27.6177406 Z M54.7462695,22.5652218 C55.3064703,22.5652218 55.8246293,22.7486527 56.2437088,23.0582092 L53.2488301,23.0582092 C53.6681774,22.7483849 54.1860686,22.5652218 54.7462695,22.5652218 Z M54.7462695,21.5420251 C52.7895833,21.5420251 51.1970812,23.1345272 51.1970812,25.0912134 C51.1970812,27.0484351 52.7895833,28.6404017 54.7462695,28.6404017 C56.7034912,28.6404017 58.2954577,27.0484351 58.2954577,25.0912134 C58.2954577,23.1345272 56.7034912,21.5420251 54.7462695,21.5420251 Z" id="Fill-6" fill="#F5A623"></path>
                    <g id="Group-10" transform="translate(48.468619, 18.476987)">
                        <mask id="mask-3" fill="white">
                            <use xlink:href="#path-2"></use>
                        </mask>
                        <g id="Clip-9"></g>
                        <path d="M1.04708285,8.92757155 L1.72350126,8.70772218 C1.93424603,8.63943766 2.07697406,8.44288536 2.07697406,8.22116151 L2.07697406,5.53342929 C2.07697406,5.31170544 1.93424603,5.11542092 1.72350126,5.0471364 L1.04708285,4.82701925 L1.04708285,1.95344603 C1.04708285,1.71511967 1.24095732,1.52151297 1.4790159,1.52151297 L2.28102427,1.52151297 L2.28102427,2.24720335 C2.28102427,2.52944603 2.51024603,2.75866778 2.79275649,2.75866778 L9.76313305,2.75866778 C10.0456435,2.75866778 10.2743297,2.52944603 10.2743297,2.24720335 L10.2743297,1.52151297 L11.0766059,1.52151297 C11.3149322,1.52151297 11.5085389,1.71511967 11.5085389,1.95344603 L11.5085389,11.8011448 C11.5085389,12.0394711 11.3149322,12.2333456 11.0766059,12.2333456 L10.2743297,12.2333456 L10.2743297,11.1201741 C10.2743297,10.8376636 10.0456435,10.6084418 9.76313305,10.6084418 L2.79275649,10.6084418 C2.51024603,10.6084418 2.28102427,10.8376636 2.28102427,11.1201741 L2.28102427,12.2333456 L1.4790159,12.2333456 C1.24095732,12.2333456 1.04708285,12.0394711 1.04708285,11.8011448 L1.04708285,8.92757155 Z M5.02418745,1.57881841 C5.10961004,1.39967197 5.293041,1.28372218 5.49173556,1.28372218 L7.06415397,1.28372218 C7.26258075,1.28372218 7.44601172,1.39967197 7.53143431,1.57881841 L7.60641339,1.73573891 L4.94920837,1.73573891 L5.02418745,1.57881841 Z M3.30395314,11.8798728 L9.25166862,11.8798728 L9.25166862,11.6311029 L3.30395314,11.6311029 L3.30395314,11.8798728 Z M12.5314678,6.95374728 L14.2409908,6.95374728 L14.2409908,6.56358828 L12.5314678,6.56358828 L12.5314678,6.95374728 Z M12.5314678,5.5409272 L14.2409908,5.5409272 L14.2409908,3.75481841 L12.5314678,3.75481841 L12.5314678,5.5409272 Z M0.0241539749,11.8011448 C0.0241539749,12.6036887 0.676739749,13.2562745 1.4790159,13.2562745 L2.79275649,13.2562745 C3.01983598,13.2562745 3.21210377,13.1076552 3.27878159,12.9028017 L9.27657238,12.9028017 C9.34325021,13.1076552 9.53578577,13.2562745 9.76313305,13.2562745 L11.0766059,13.2562745 C11.8786142,13.2562745 12.5314678,12.6036887 12.5314678,11.8011448 L12.5314678,7.97640837 L14.2458109,7.97640837 C14.2787481,8.22705272 14.4927063,8.42039163 14.7521874,8.42039163 C15.0344301,8.42039163 15.2636519,8.19170544 15.2636519,7.90919498 L15.2636519,2.79937071 C15.2636519,2.51712803 15.0344301,2.28790628 14.7521874,2.28790628 C14.4927063,2.28790628 14.2787481,2.48151297 14.2458109,2.73188954 L12.5314678,2.73188954 L12.5314678,1.95344603 C12.5314678,1.15116987 11.8786142,0.498316318 11.0766059,0.498316318 L9.76313305,0.498316318 C9.48062259,0.498316318 9.25166862,0.727538075 9.25166862,1.01004854 L9.25166862,1.73573891 L8.72761841,1.73573891 C8.71904937,1.70173054 8.70726695,1.66798996 8.69200335,1.6353205 L8.45448033,1.13804854 C8.20035481,0.605429289 7.65434644,0.261061088 7.06415397,0.261061088 L5.49173556,0.261061088 C4.90127531,0.261061088 4.35526695,0.605429289 4.10114142,1.13804854 L3.86388619,1.6353205 C3.84808703,1.66798996 3.8363046,1.70173054 3.82827113,1.73573891 L3.30422092,1.73573891 L3.30422092,1.01004854 C3.30422092,0.727538075 3.07499916,0.498316318 2.79275649,0.498316318 L1.4790159,0.498316318 C0.676739749,0.498316318 0.0241539749,1.15116987 0.0241539749,1.95344603 L0.0241539749,5.19870126 C0.0241539749,5.4204251 0.166882008,5.61670962 0.377626778,5.68526192 L1.05404519,5.9051113 L1.05404519,7.85001506 L0.377626778,8.06959665 C0.166882008,8.13814895 0.0241539749,8.33443347 0.0241539749,8.55588954 L0.0241539749,11.8011448 Z" id="Fill-8" fill="#F5A623" mask="url(#mask-3)"></path>
                    </g>
                </g>
                <text id="A" font-family="Roboto-Black, Roboto" font-size="18.7340586" font-weight="700" fill="#4A90E2">
                    <tspan x="19.0877193" y="21.4912281">A</tspan>
                </text>
                <g id="Group-18" transform="translate(0.000000, 24.301255)" fill="#F5A623">
                    <path d="M47.9330544,0.0645159817 C47.9330544,12.5784742 37.6224354,22.7232079 24.9037657,22.7232079 C12.1850959,22.7232079 -1.12280702,11.3938619 1.87447699,0.0645159817" id="Fill-12"></path>
                </g>
            </g>
        </g>
    </g>
</svg>