<?xml version="1.0" encoding="UTF-8"?>
<svg width="73px" height="59px" viewBox="0 0 73 59" version="1.1" xmlns="http://www.w3.org/2000/svg" xmlns:xlink="http://www.w3.org/1999/xlink">
    <!-- Generator: Sketch 49 (51002) - http://www.bohemiancoding.com/sketch -->
    <title>Page 1</title>
    <desc>Created with Sketch.</desc>
    <defs>
        <filter x="-25.4%" y="-18.9%" width="156.1%" height="168.9%" filterUnits="objectBoundingBox" id="filter-1">
            <feOffset dx="1" dy="7" in="SourceAlpha" result="shadowOffsetOuter1"></feOffset>
            <feGaussianBlur stdDeviation="4" in="shadowOffsetOuter1" result="shadowBlurOuter1"></feGaussianBlur>
            <feColorMatrix values="0 0 0 0 0.26049149   0 0 0 0 0.324856505   0 0 0 0 0.26049149  0 0 0 0.364102129 0" type="matrix" in="shadowBlurOuter1" result="shadowMatrixOuter1"></feColorMatrix>
            <feMerge>
                <feMergeNode in="shadowMatrixOuter1"></feMergeNode>
                <feMergeNode in="SourceGraphic"></feMergeNode>
            </feMerge>
        </filter>
        <polygon id="path-2" points="0.0215121339 0.232507531 13.5941423 0.232507531 13.5941423 11.8063695 0.0215121339 11.8063695"></polygon>
    </defs>
    <g id="Page-1" stroke="none" stroke-width="1" fill="none" fill-rule="evenodd">
        <g id="thuỷ-canh-copy" transform="translate(-684.000000, -313.000000)">
            <g id="Page-1" filter="url(#filter-1)" transform="translate(691.000000, 314.000000)">
                <polygon id="Fill-1" fill="#7BC32F" points="47.9372385 27.1882845 47.9372385 34.0449791 41.0209205 34.0449791 41.0209205 36.1914226 50.083682 36.1914226 50.083682 34.58159 50.083682 34.0449791 50.083682 27.1882845"></polygon>
                <g id="Group-19" transform="translate(0.000000, 0.059623)">
                    <path d="M21.4644351,42.1034674 C10.1824895,42.1034674 1.00429707,32.9252749 1.00429707,21.6433293 C1.00429707,10.3613837 10.1824895,1.18319121 21.4644351,1.18319121 C32.7463808,1.18319121 41.9245732,10.3613837 41.9245732,21.6433293 C41.9245732,32.9252749 32.7463808,42.1034674 21.4644351,42.1034674" id="Fill-2" fill="#FFFFFF"></path>
                    <path d="M21.4644351,0.178870293 C9.60986611,0.178870293 0,9.7887364 0,21.6433054 C0,33.4978745 9.60986611,43.1077406 21.4644351,43.1077406 C33.3190042,43.1077406 42.9288703,33.4978745 42.9288703,21.6433054 C42.9288703,9.7887364 33.3190042,0.178870293 21.4644351,0.178870293 M21.4644351,2.18722594 C32.1923598,2.18722594 40.9205146,10.9153808 40.9205146,21.6433054 C40.9205146,32.3712301 32.1923598,41.0993849 21.4644351,41.0993849 C10.7365105,41.0993849 2.00835565,32.3712301 2.00835565,21.6433054 C2.00835565,10.9153808 10.7365105,2.18722594 21.4644351,2.18722594" id="Fill-4" fill="#7BC32F"></path>
                    <path d="M40.5246067,25.1347573 C39.1172552,25.1347573 37.7812134,24.52159 36.8591967,23.4524226 C36.6116402,23.1652762 36.2510377,23.0002385 35.8718326,23.0002385 C35.4926276,23.0002385 35.1325021,23.1652762 34.8847071,23.4524226 C33.9629289,24.52159 32.6271255,25.1345188 31.2192971,25.1345188 C29.8117071,25.1345188 28.4756653,24.52159 27.553887,23.4521841 C27.3063305,23.1652762 26.945728,23 26.5667615,23 C26.1875565,23 25.826954,23.1650377 25.5793975,23.4521841 C24.6576192,24.5213515 23.3215774,25.1345188 21.9139874,25.1345188 C20.506159,25.1345188 19.1705941,24.5213515 18.2488159,23.4521841 C18.0012594,23.1650377 17.6406569,23 17.2614519,23 C16.8822469,23 16.5216444,23.1650377 16.2740879,23.4521841 C15.3523096,24.52159 14.0165063,25.1345188 12.6086778,25.1345188 C11.2010879,25.1345188 9.86528452,24.52159 8.94350628,23.4524226 C8.6957113,23.1652762 8.33534728,23.0002385 7.95614226,23.0002385 C7.57717573,23.0002385 7.21657322,23.1652762 6.96901674,23.4524226 C6.04723849,24.5218285 4.71119665,25.1347573 3.30360669,25.1347573 C2.58359414,25.1347573 2,25.7183515 2,26.438364 C2,27.1583766 2.58359414,27.7422092 3.30360669,27.7422092 C4.81994979,27.7422092 6.28143933,27.2792929 7.50825105,26.438364 C7.66112552,26.3336653 7.81113808,26.2239582 7.95614226,26.1075732 C8.10162343,26.2239582 8.25139749,26.3336653 8.40403347,26.438364 C9.63108368,27.2792929 11.0925732,27.7422092 12.6089163,27.7422092 C14.1252594,27.7422092 15.586749,27.2792929 16.8137992,26.438364 C16.9666736,26.3336653 17.1164477,26.2239582 17.2616904,26.1075732 C17.4066946,26.2239582 17.5567071,26.3336653 17.7095816,26.438364 C18.9361548,27.2792929 20.3978828,27.7422092 21.9142259,27.7422092 C23.4303305,27.7422092 24.8920586,27.2792929 26.1188703,26.438364 C26.2715063,26.3336653 26.4215188,26.2239582 26.5667615,26.1075732 C26.7120042,26.2239582 26.8617782,26.3336653 27.0146527,26.438364 C28.2414644,27.2792929 29.702954,27.7422092 31.2192971,27.7422092 C32.7358787,27.7422092 34.1973682,27.2792929 35.4241799,26.438364 C35.5770544,26.3336653 35.7268285,26.2239582 35.8720711,26.1075732 C36.0173138,26.2239582 36.1670879,26.3336653 36.3199623,26.438364 C37.5467741,27.2792929 39.0085021,27.7422092 40.5248452,27.7422092 C41.2448577,27.7422092 41.8284519,27.1583766 41.8284519,26.438364 C41.8284519,25.7183515 41.2448577,25.1347573 40.5246067,25.1347573" id="Fill-6" fill="#7BC32F"></path>
                    <path d="M46.5549527,21.6528452 C46.5869109,21.4985397 46.6350866,21.3497197 46.6968565,21.2087699 L50.8201745,21.2087699 C50.8821828,21.3497197 50.9301201,21.4985397 50.9620782,21.6528452 L46.5549527,21.6528452 Z M50.8201745,23.008205 L46.6968565,23.008205 C46.6350866,22.8670167 46.5869109,22.7184351 46.5549527,22.5638912 L50.9620782,22.5638912 C50.9301201,22.7184351 50.8821828,22.8670167 50.8201745,23.008205 Z M48.7583962,24.3585565 C48.2594674,24.3585565 47.798459,24.1949498 47.4247393,23.919251 L50.0920531,23.919251 C49.7188105,24.1949498 49.2573251,24.3585565 48.7583962,24.3585565 Z M48.7583962,19.8586569 C49.2573251,19.8586569 49.7188105,20.0220251 50.0920531,20.2977238 L47.4247393,20.2977238 C47.7982205,20.0217866 48.2594674,19.8586569 48.7583962,19.8586569 Z M48.7583962,18.9473724 C47.0157226,18.9473724 45.5974004,20.3656946 45.5974004,22.1083682 C45.5974004,23.8515188 47.0157226,25.269364 48.7583962,25.269364 C50.5015469,25.269364 51.9193921,23.8515188 51.9193921,22.1083682 C51.9193921,20.3656946 50.5015469,18.9473724 48.7583962,18.9473724 Z" id="Fill-8" fill="#7BC32F"></path>
                    <g id="Group-12" transform="translate(43.167364, 16.217573)">
                        <mask id="mask-3" fill="white">
                            <use xlink:href="#path-2"></use>
                        </mask>
                        <g id="Clip-11"></g>
                        <path d="M0.932558159,7.95111841 L1.53499331,7.75531506 C1.72268787,7.69449916 1.84980502,7.51944477 1.84980502,7.32197197 L1.84980502,4.92821046 C1.84980502,4.73073766 1.72268787,4.55592176 1.53499331,4.49510586 L0.932558159,4.29906402 L0.932558159,1.73978787 C0.932558159,1.52752845 1.10522762,1.35509749 1.31724854,1.35509749 L2.03153724,1.35509749 L2.03153724,2.00141548 C2.03153724,2.25278787 2.23568787,2.45693849 2.48729874,2.45693849 L8.69529038,2.45693849 C8.94690126,2.45693849 9.1505749,2.25278787 9.1505749,2.00141548 L9.1505749,1.35509749 L9.86510209,1.35509749 C10.0773615,1.35509749 10.2497925,1.52752845 10.2497925,1.73978787 L10.2497925,10.5103946 C10.2497925,10.722654 10.0773615,10.8953234 9.86510209,10.8953234 L9.1505749,10.8953234 L9.1505749,9.90390502 C9.1505749,9.65229414 8.94690126,9.44814351 8.69529038,9.44814351 L2.48729874,9.44814351 C2.23568787,9.44814351 2.03153724,9.65229414 2.03153724,9.90390502 L2.03153724,10.8953234 L1.31724854,10.8953234 C1.10522762,10.8953234 0.932558159,10.722654 0.932558159,10.5103946 L0.932558159,7.95111841 Z M4.47466695,1.40613515 C4.55074644,1.24658285 4.71411464,1.14331506 4.89107699,1.14331506 L6.29151213,1.14331506 C6.46823598,1.14331506 6.63160418,1.24658285 6.70768368,1.40613515 L6.77446192,1.54589247 L4.4078887,1.54589247 L4.47466695,1.40613515 Z M2.94258326,10.5805117 L8.23976736,10.5805117 L8.23976736,10.358951 L2.94258326,10.358951 L2.94258326,10.5805117 Z M11.1608385,6.19318117 L12.6833824,6.19318117 L12.6833824,5.84569582 L11.1608385,5.84569582 L11.1608385,6.19318117 Z M11.1608385,4.93488828 L12.6833824,4.93488828 L12.6833824,3.34413515 L11.1608385,3.34413515 L11.1608385,4.93488828 Z M0.0215121339,10.5103946 C0.0215121339,11.2251603 0.602721339,11.8063695 1.31724854,11.8063695 L2.48729874,11.8063695 C2.68954142,11.8063695 2.86077992,11.6740054 2.92016485,11.4915577 L8.26194728,11.4915577 C8.32133222,11.6740054 8.49280921,11.8063695 8.69529038,11.8063695 L9.86510209,11.8063695 C10.5793908,11.8063695 11.1608385,11.2251603 11.1608385,10.5103946 L11.1608385,7.1039887 L12.6876753,7.1039887 C12.71701,7.32721883 12.9075665,7.4994113 13.1386669,7.4994113 C13.3900393,7.4994113 13.59419,7.29573766 13.59419,7.04412678 L13.59419,2.49318954 C13.59419,2.24181715 13.3900393,2.03766653 13.1386669,2.03766653 C12.9075665,2.03766653 12.71701,2.21009749 12.6876753,2.43308912 L11.1608385,2.43308912 L11.1608385,1.73978787 C11.1608385,1.02526067 10.5793908,0.443812971 9.86510209,0.443812971 L8.69529038,0.443812971 C8.4436795,0.443812971 8.23976736,0.647963598 8.23976736,0.899574477 L8.23976736,1.54589247 L7.77303515,1.54589247 C7.76540335,1.51560377 7.75490962,1.48555356 7.74131548,1.45645732 L7.52977155,1.01357448 C7.303441,0.53921046 6.8171523,0.232507531 6.29151213,0.232507531 L4.89107699,0.232507531 C4.36519833,0.232507531 3.87890962,0.53921046 3.65257908,1.01357448 L3.44127364,1.45645732 C3.42720251,1.48555356 3.41670879,1.51560377 3.40955397,1.54589247 L2.94282176,1.54589247 L2.94282176,0.899574477 C2.94282176,0.647963598 2.73867113,0.443812971 2.48729874,0.443812971 L1.31724854,0.443812971 C0.602721339,0.443812971 0.0215121339,1.02526067 0.0215121339,1.73978787 L0.0215121339,4.63009331 C0.0215121339,4.82756611 0.148629289,5.00238201 0.336323849,5.0634364 L0.938758996,5.25923975 L0.938758996,6.99141967 L0.336323849,7.18698452 C0.148629289,7.24803891 0.0215121339,7.42285481 0.0215121339,7.62008912 L0.0215121339,10.5103946 Z" id="Fill-10" fill="#7BC32F" mask="url(#mask-3)"></path>
                    </g>
                    <path d="M23.2353891,20.8315416 L23.2301551,20.8542219 L23.2301551,11.0479249 L26.3199203,14.1307115 C26.4706576,14.2817977 26.6751299,14.3644939 26.8897212,14.3644939 C27.1043124,14.3644939 27.3070401,14.2817977 27.4584752,14.1307115 L27.9382524,13.6509343 C28.0889897,13.500197 28.1723837,13.299214 28.1723837,13.0849717 C28.1723837,12.8703804 28.0896875,12.6690485 27.9386013,12.5186601 L22.6547714,7.23378344 C22.5029874,7.08269724 22.3013065,6.99965217 22.0870642,7.0000011 C21.8714261,6.99965217 21.6693963,7.08269724 21.5179612,7.23378344 L16.2337823,12.5186601 C16.0830451,12.6690485 16,12.8703804 16,13.0849717 C16,13.299214 16.0830451,13.500197 16.2337823,13.6509343 L16.7139085,14.1307115 C16.8639479,14.2817977 17.0652798,14.3644939 17.2798711,14.3644939 C17.4941134,14.3644939 17.6846286,14.2817977 17.8353659,14.1307115 L20.9422285,11.013032 L20.9422285,20.8423584 C20.9422285,21.2841023 21.3229099,21.6550137 21.764305,21.6550137 L22.4429716,21.6550137 C22.8843666,21.6550137 23.2353891,21.2732855 23.2353891,20.8315416" id="Fill-13" fill="#7BC32F"></path>
                </g>
            </g>
        </g>
    </g>
</svg>