<?xml version="1.0" encoding="UTF-8"?>
<svg width="106px" height="92px" viewBox="0 0 106 92" version="1.1" xmlns="http://www.w3.org/2000/svg" xmlns:xlink="http://www.w3.org/1999/xlink">
    <!-- Generator: Sketch 49 (51002) - http://www.bohemiancoding.com/sketch -->
    <title>Page 1</title>
    <desc>Created with Sketch.</desc>
    <defs>
        <filter x="-16.1%" y="-11.2%" width="134.4%" height="142.1%" filterUnits="objectBoundingBox" id="filter-1">
            <feOffset dx="1" dy="7" in="SourceAlpha" result="shadowOffsetOuter1"></feOffset>
            <feGaussianBlur stdDeviation="4" in="shadowOffsetOuter1" result="shadowBlurOuter1"></feGaussianBlur>
            <feColorMatrix values="0 0 0 0 0.26049149   0 0 0 0 0.324856505   0 0 0 0 0.26049149  0 0 0 0.364102129 0" type="matrix" in="shadowBlurOuter1" result="shadowMatrixOuter1"></feColorMatrix>
            <feMerge>
                <feMergeNode in="shadowMatrixOuter1"></feMergeNode>
                <feMergeNode in="SourceGraphic"></feMergeNode>
            </feMerge>
        </filter>
    </defs>
    <g id="Page-1" stroke="none" stroke-width="1" fill="none" fill-rule="evenodd">
        <g id="Giá-thể-Copy" transform="translate(-527.000000, -684.000000)">
            <g id="Group" transform="translate(20.000000, 118.000000)">
                <g id="Page-1" filter="url(#filter-1)" transform="translate(514.000000, 567.000000)">
                    <g id="Group-21" transform="translate(0.000000, 0.102740)">
                        <path d="M84.3537123,47.7073562 C81.7252192,47.7073562 79.587,45.569137 79.587,42.9406438 L79.587,20.1414658 C79.587,17.5129726 81.7252192,15.3747534 84.3537123,15.3747534 C86.9822055,15.3747534 89.1204247,17.5129726 89.1204247,20.1414658 L89.1204247,42.9406438 C89.1204247,45.569137 86.9822055,47.7073562 84.3537123,47.7073562" id="Fill-1" fill="#FFFFFF"></path>
                        <path d="M84.3537123,14.6917808 C81.3442603,14.6917808 78.9039863,17.1316438 78.9039863,20.1415068 L78.9039863,42.9406849 C78.9039863,45.9505479 81.3442603,48.390411 84.3537123,48.390411 C87.3635753,48.390411 89.8034384,45.9505479 89.8034384,42.9406849 L89.8034384,20.1415068 C89.8034384,17.1316438 87.3635753,14.6917808 84.3537123,14.6917808 M84.3537123,16.0578082 C86.6053562,16.0578082 88.4378219,17.8894521 88.4378219,20.1415068 L88.4378219,42.9406849 C88.4378219,45.1927397 86.6053562,47.0247945 84.3537123,47.0247945 C82.1020685,47.0247945 80.2696027,45.1927397 80.2696027,42.9406849 L80.2696027,20.1415068 C80.2696027,17.8894521 82.1020685,16.0578082 84.3537123,16.0578082" id="Fill-3" fill="#7BC32F"></path>
                        <path d="M84.3537123,48.390411 C81.3442603,48.390411 78.9039863,45.9505479 78.9039863,42.9406849 L78.9039863,30 C78.9039863,29.9432877 78.9504247,29.8972603 79.006726,29.8972603 L89.8034384,29.8972603 L89.8034384,42.9406849 C89.8034384,45.9505479 87.3635753,48.390411 84.3537123,48.390411" id="Fill-5" fill="#7BC32F"></path>
                        <polygon id="Fill-7" fill="#7BC32F" points="82.6027397 47.1575342 82.6027397 58.9726027 70.6849315 58.9726027 70.6849315 62.6712329 86.3013699 62.6712329 86.3013699 59.8972603 86.3013699 58.9726027 86.3013699 47.1575342"></polygon>
                        <path d="M36.9863014,72.5503151 C17.5458904,72.5503151 1.73054795,56.7349726 1.73054795,37.2945616 C1.73054795,17.8541507 17.5458904,2.03839726 36.9863014,2.03839726 C56.4267123,2.03839726 72.2420548,17.8541507 72.2420548,37.2945616 C72.2420548,56.7349726 56.4267123,72.5503151 36.9863014,72.5503151" id="Fill-9" fill="#FFFFFF"></path>
                        <path d="M36.9863014,0.308219178 C16.5591781,0.308219178 0,16.8673973 0,37.2945205 C0,57.7216438 16.5591781,74.2808219 36.9863014,74.2808219 C57.4134247,74.2808219 73.9726027,57.7216438 73.9726027,37.2945205 C73.9726027,16.8673973 57.4134247,0.308219178 36.9863014,0.308219178 M36.9863014,3.76890411 C55.4720548,3.76890411 70.5119178,18.8083562 70.5119178,37.2945205 C70.5119178,55.780274 55.4720548,70.820137 36.9863014,70.820137 C18.5005479,70.820137 3.46068493,55.780274 3.46068493,37.2945205 C3.46068493,18.8083562 18.5005479,3.76890411 36.9863014,3.76890411" id="Fill-11" fill="#7BC32F"></path>
                        <path d="M69.2333425,38.5759726 C66.7786849,38.5759726 64.4493699,37.5066575 62.8416986,35.6425479 C62.4097808,35.142 61.7810137,34.8535068 61.1201918,34.8535068 C60.4585479,34.8535068 59.8301918,35.141589 59.398274,35.6425479 C57.7910137,37.5066575 55.4612877,38.5759726 53.0070411,38.5759726 C50.5523836,38.5759726 48.2230685,37.5066575 46.6153973,35.642137 C46.1834795,35.141589 45.5551233,34.8535068 44.8934795,34.8535068 C44.2322466,34.8535068 43.6038904,35.141589 43.1719726,35.642137 C41.5647123,37.5062466 39.2353973,38.5755616 36.7803288,38.5755616 C34.3260822,38.5755616 31.9967671,37.5062466 30.3890959,35.642137 C29.9571781,35.141589 29.3288219,34.8535068 28.667589,34.8535068 C28.0063562,34.8535068 27.377589,35.141589 26.9460822,35.642137 C25.338411,37.5066575 23.0090959,38.5759726 20.5544384,38.5759726 C18.0993699,38.5759726 15.7700548,37.5066575 14.1627945,35.6425479 C13.7308767,35.141589 13.1025205,34.8535068 12.4412877,34.8535068 C11.7796438,34.8535068 11.1512877,35.141589 10.7193699,35.6425479 C9.11210959,37.5066575 6.78238356,38.5759726 4.32772603,38.5759726 C3.07265753,38.5759726 2.05471233,39.5939178 2.05471233,40.8493973 C2.05471233,42.1048767 3.07265753,43.122411 4.32772603,43.122411 C6.97224658,43.122411 9.52060274,42.3156986 11.6604658,40.8493973 C11.9271781,40.6665205 12.187726,40.4754247 12.4416986,40.272411 C12.6944384,40.4754247 12.9562192,40.6665205 13.2225205,40.8493973 C15.3615616,42.3156986 17.9103288,43.122411 20.5544384,43.122411 C23.1985479,43.122411 25.7473151,42.3156986 27.8867671,40.8493973 C28.1530685,40.6665205 28.4144384,40.4754247 28.667589,40.272411 C28.9207397,40.4754247 29.1821096,40.6665205 29.448411,40.8493973 C31.587863,42.3156986 34.1370411,43.122411 36.7807397,43.122411 C39.4248493,43.122411 41.9736164,42.3156986 44.1130685,40.8493973 C44.3793699,40.6665205 44.6403288,40.4754247 44.8938904,40.272411 C45.1470411,40.4754247 45.408411,40.6665205 45.6751233,40.8493973 C47.8145753,42.3156986 50.3629315,43.122411 53.0074521,43.122411 C55.6515616,43.122411 58.1999178,42.3156986 60.3389589,40.8493973 C60.6056712,40.6665205 60.8670411,40.4754247 61.1201918,40.272411 C61.3733425,40.4754247 61.6347123,40.6665205 61.9010137,40.8493973 C64.0408767,42.3156986 66.5892329,43.122411 69.2337534,43.122411 C70.4892329,43.122411 71.5067671,42.1048767 71.5067671,40.8493973 C71.5067671,39.5939178 70.4892329,38.5759726 69.2333425,38.5759726" id="Fill-13" fill="#7BC32F"></path>
                        <path d="M5.86417808,31.3998082 C8.38335616,31.3998082 10.8113014,30.6309041 12.8496575,29.2340548 C13.1032192,29.0602192 13.3522603,28.8777534 13.5934932,28.6846027 C13.834726,28.8777534 14.0837671,29.0602192 14.3373288,29.2340548 C16.3756849,30.6309041 18.8036301,31.3998082 21.3223973,31.3998082 C23.8415753,31.3998082 26.2691096,30.6309041 28.3074658,29.2340548 C28.5614384,29.0602192 28.8104795,28.8777534 29.0517123,28.6846027 C29.2929452,28.8777534 29.5419863,29.0602192 29.7955479,29.2340548 C31.8339041,30.6309041 34.2622603,31.3998082 36.7806164,31.3998082 C39.2993836,31.3998082 41.7277397,30.6309041 43.7660959,29.2340548 C44.0196575,29.0602192 44.2682877,28.8777534 44.5099315,28.6846027 C44.7507534,28.8777534 44.9997945,29.0602192 45.2541781,29.2340548 C47.2925342,30.6309041 49.7200685,31.3998082 52.2392466,31.3998082 C54.7584247,31.3998082 57.1859589,30.6309041 59.2243151,29.2340548 C59.4778767,29.0602192 59.7265068,28.8777534 59.9681507,28.6846027 C60.2089726,28.8777534 60.4584247,29.0602192 60.7119863,29.2340548 C62.7503425,30.6309041 65.1782877,31.3998082 67.6974658,31.3998082 C68.8933562,31.3998082 69.8628082,30.4303562 69.8628082,29.2340548 C69.8628082,28.0377534 68.8933562,27.0683014 67.6974658,27.0683014 C65.3591096,27.0683014 63.1399315,26.0495342 61.6082877,24.2737808 C61.1973288,23.7970685 60.5981507,23.522137 59.9681507,23.522137 C59.3381507,23.522137 58.7393836,23.7966575 58.3280137,24.2737808 C56.7971918,26.0495342 54.5776027,27.0678904 52.2392466,27.0678904 C49.9004795,27.0678904 47.6817123,26.0495342 46.1496575,24.2733699 C45.7386986,23.7966575 45.1395205,23.522137 44.5099315,23.522137 C43.8799315,23.522137 43.2811644,23.7962466 42.8697945,24.2733699 C41.3385616,26.0491233 39.1193836,27.0678904 36.7806164,27.0678904 C34.4422603,27.0678904 32.2234932,26.0491233 30.6918493,24.2733699 C30.2804795,23.7962466 29.6817123,23.522137 29.0517123,23.522137 C28.4221233,23.522137 27.8233562,23.7962466 27.4119863,24.2733699 C25.8803425,26.0495342 23.6611644,27.0678904 21.3223973,27.0678904 C18.9840411,27.0678904 16.7644521,26.0495342 15.2336301,24.2741918 C14.8222603,23.7970685 14.2234932,23.5225479 13.5934932,23.5225479 C12.9634932,23.5225479 12.364726,23.7970685 11.9533562,24.2741918 C10.4217123,26.0499452 8.20212329,27.0683014 5.86417808,27.0683014 C4.66828767,27.0683014 3.69842466,28.0377534 3.69842466,29.2340548 C3.69842466,30.4303562 4.66828767,31.3998082 5.86417808,31.3998082" id="Fill-15" fill="#7BC32F"></path>
                        <path d="M5.44960274,73.5616438 C3.35124658,73.5616438 1.64371233,71.8545205 1.64371233,69.7557534 L1.64371233,51.8880822 C1.64371233,49.7893151 3.35124658,48.0821918 5.44960274,48.0821918 L68.5231644,48.0821918 C70.6215205,48.0821918 72.3286438,49.7893151 72.3286438,51.8880822 L72.3286438,69.7557534 C72.3286438,71.8545205 70.6215205,73.5616438 68.5231644,73.5616438 L5.44960274,73.5616438 Z" id="Fill-17" fill="#FFFFFF"></path>
                        <path d="M68.523,46.4383562 L5.44943836,46.4383562 C2.4399863,46.4383562 0.000123287671,48.8782192 0.000123287671,51.8880822 L0.000123287671,69.7557534 C0.000123287671,72.7656164 2.4399863,75.2054795 5.44943836,75.2054795 L68.523,75.2054795 C71.5324521,75.2054795 73.972726,72.7656164 73.972726,69.7557534 L73.972726,51.8880822 C73.972726,48.8782192 71.5324521,46.4383562 68.523,46.4383562 M68.523,49.7260274 C69.7147808,49.7260274 70.6850548,50.6958904 70.6850548,51.8880822 L70.6850548,69.7557534 C70.6850548,70.9479452 69.7147808,71.9178082 68.523,71.9178082 L5.44943836,71.9178082 C4.25765753,71.9178082 3.28779452,70.9479452 3.28779452,69.7557534 L3.28779452,51.8880822 C3.28779452,50.6958904 4.25765753,49.7260274 5.44943836,49.7260274 L68.523,49.7260274" id="Fill-19" fill="#7BC32F"></path>
                    </g>
                    <text id="FLOW" font-family="Roboto-Black, Roboto" font-size="12.3287671" font-weight="700" fill="#4A90E2">
                        <tspan x="20.6536204" y="19.9354207">FLOW</tspan>
                    </text>
                </g>
            </g>
        </g>
    </g>
</svg>