<?xml version="1.0" encoding="UTF-8"?>
<svg width="106px" height="88px" viewBox="0 0 106 88" version="1.1" xmlns="http://www.w3.org/2000/svg" xmlns:xlink="http://www.w3.org/1999/xlink">
    <!-- Generator: Sketch 49 (51002) - http://www.bohemiancoding.com/sketch -->
    <title>Page 1</title>
    <desc>Created with Sketch.</desc>
    <defs>
        <filter x="-16.1%" y="-11.6%" width="135.6%" height="143.8%" filterUnits="objectBoundingBox" id="filter-1">
            <feOffset dx="1" dy="7" in="SourceAlpha" result="shadowOffsetOuter1"></feOffset>
            <feGaussianBlur stdDeviation="4" in="shadowOffsetOuter1" result="shadowBlurOuter1"></feGaussianBlur>
            <feColorMatrix values="0 0 0 0 0.26049149   0 0 0 0 0.324856505   0 0 0 0 0.26049149  0 0 0 0.364102129 0" type="matrix" in="shadowBlurOuter1" result="shadowMatrixOuter1"></feColorMatrix>
            <feMerge>
                <feMergeNode in="shadowMatrixOuter1"></feMergeNode>
                <feMergeNode in="SourceGraphic"></feMergeNode>
            </feMerge>
        </filter>
        <polygon id="path-2" points="0.353902041 0.0908200501 16.8457959 0.0908200501 16.8457959 16.0886145 0.353902041 16.0886145"></polygon>
    </defs>
    <g id="Page-1" stroke="none" stroke-width="1" fill="none" fill-rule="evenodd">
        <g id="thuỷ-canh-copy" transform="translate(-646.000000, -151.000000)">
            <g id="Page-1" filter="url(#filter-1)" transform="translate(653.000000, 151.000000)">
                <g id="Group-28" transform="translate(0.000000, 0.275168)">
                    <path d="M75.4018898,47.6010862 C73.0523388,47.6010862 71.1410327,45.6972316 71.1410327,43.3568406 L71.1410327,23.0566201 C71.1410327,20.7162291 73.0523388,18.8123744 75.4018898,18.8123744 C77.7514408,18.8123744 79.6631143,20.7162291 79.6631143,23.0566201 L79.6631143,43.3568406 C79.6631143,45.6972316 77.7514408,47.6010862 75.4018898,47.6010862" id="Fill-1" fill="#FFFFFF"></path>
                    <path d="M75.4018898,18.2042607 C72.7114408,18.2042607 70.530502,20.3766967 70.530502,23.0566566 L70.530502,43.3568772 C70.530502,46.0368371 72.7114408,48.2092732 75.4018898,48.2092732 C78.0923388,48.2092732 80.2732776,46.0368371 80.2732776,43.3568772 L80.2732776,23.0566566 C80.2732776,20.3766967 78.0923388,18.2042607 75.4018898,18.2042607 M75.4018898,19.4205614 C77.4145837,19.4205614 79.0525837,21.0514436 79.0525837,23.0566566 L79.0525837,43.3568772 C79.0525837,45.3620902 77.4145837,46.9933383 75.4018898,46.9933383 C73.3891959,46.9933383 71.7515633,45.3620902 71.7515633,43.3568772 L71.7515633,23.0566566 C71.7515633,21.0514436 73.3891959,19.4205614 75.4018898,19.4205614" id="Fill-3" fill="#7BC32F"></path>
                    <path d="M75.4018898,48.2092732 C72.7114408,48.2092732 70.530502,46.0368371 70.530502,43.3568772 L70.530502,31.8345865 C70.530502,31.7840902 70.5716449,31.7431078 70.6223388,31.7431078 L80.2732776,31.7431078 L80.2732776,43.3568772 C80.2732776,46.0368371 78.0923388,48.2092732 75.4018898,48.2092732" id="Fill-5" fill="#7BC32F"></path>
                    <polygon id="Fill-7" fill="#7BC32F" points="73.8367347 47.1115288 73.8367347 57.6315789 63.1836735 57.6315789 63.1836735 60.924812 77.1428571 60.924812 77.1428571 58.4548872 77.1428571 57.6315789 77.1428571 47.1115288"></polygon>
                    <path d="M33.0612245,69.7210742 C15.6838776,69.7210742 1.54653061,55.6392095 1.54653061,38.3296105 C1.54653061,21.0200115 15.6838776,6.93778095 33.0612245,6.93778095 C50.4385714,6.93778095 64.5759184,21.0200115 64.5759184,38.3296105 C64.5759184,55.6392095 50.4385714,69.7210742 33.0612245,69.7210742" id="Fill-9" fill="#FFFFFF"></path>
                    <path d="M33.0612245,5.39724311 C14.8018776,5.39724311 0,20.1414135 0,38.3295739 C0,56.5177343 14.8018776,71.2619048 33.0612245,71.2619048 C51.3205714,71.2619048 66.122449,56.5177343 66.122449,38.3295739 C66.122449,20.1414135 51.3205714,5.39724311 33.0612245,5.39724311 M33.0612245,8.47861153 C49.5855918,8.47861153 63.0290204,21.8696291 63.0290204,38.3295739 C63.0290204,54.7891529 49.5855918,68.1805363 33.0612245,68.1805363 C16.5368571,68.1805363 3.09342857,54.7891529 3.09342857,38.3295739 C3.09342857,21.8696291 16.5368571,8.47861153 33.0612245,8.47861153" id="Fill-11" fill="#7BC32F"></path>
                    <path d="M61.8861306,39.4705694 C59.6923347,39.4705694 57.6098449,38.5184591 56.1727837,36.8586697 C55.786702,36.4129855 55.2250286,36.1561133 54.6339673,36.1561133 C54.0425388,36.1561133 53.4808653,36.4126195 53.0947837,36.8586697 C51.6580898,38.5184591 49.5759673,39.4705694 47.3818041,39.4705694 C45.1876408,39.4705694 43.1055184,38.5184591 41.6684571,36.8583038 C41.2823755,36.4126195 40.7203347,36.1561133 40.1292735,36.1561133 C39.5385796,36.1561133 38.9765388,36.4126195 38.5904571,36.8583038 C37.1537633,38.5180932 35.0712735,39.4702035 32.8774776,39.4702035 C30.6833143,39.4702035 28.6011918,38.5180932 27.1641306,36.8583038 C26.778049,36.4126195 26.2163755,36.1561133 25.6253143,36.1561133 C25.0342531,36.1561133 24.4722122,36.4126195 24.086498,36.8583038 C22.6494367,38.5184591 20.5673143,39.4705694 18.3727837,39.4705694 C16.1789878,39.4705694 14.096498,38.5184591 12.6598041,36.8586697 C12.2737224,36.4126195 11.712049,36.1561133 11.1209878,36.1561133 C10.5299265,36.1561133 9.96788571,36.4126195 9.58180408,36.8586697 C8.1451102,38.5184591 6.06262041,39.4705694 3.86882449,39.4705694 C2.74657959,39.4705694 1.83666122,40.3769404 1.83666122,41.49481 C1.83666122,42.6126797 2.74657959,43.5186847 3.86882449,43.5186847 C6.23270204,43.5186847 8.51025306,42.800394 10.4230286,41.49481 C10.6610694,41.3319779 10.894702,41.1618276 11.1209878,40.9810657 C11.3472735,41.1618276 11.5809061,41.3319779 11.8193143,41.49481 C13.7317224,42.800394 16.0096408,43.5186847 18.373151,43.5186847 C20.7366612,43.5186847 23.0149469,42.800394 24.9273551,41.49481 C25.1657633,41.3319779 25.3990286,41.1618276 25.6256816,40.9810657 C25.8516,41.1618276 26.0852327,41.3319779 26.3236408,41.49481 C28.236049,42.800394 30.5139673,43.5186847 32.8774776,43.5186847 C35.2409878,43.5186847 37.5189061,42.800394 39.4316816,41.49481 C39.6697224,41.3319779 39.9033551,41.1618276 40.1296408,40.9810657 C40.3559265,41.1618276 40.5895592,41.3319779 40.8276,41.49481 C42.7403755,42.800394 45.0182939,43.5186847 47.3821714,43.5186847 C49.7456816,43.5186847 52.0236,42.800394 53.9360082,41.49481 C54.174049,41.3319779 54.4076816,41.1618276 54.6339673,40.9810657 C54.8602531,41.1618276 55.0938857,41.3319779 55.3322939,41.49481 C57.244702,42.800394 59.5226204,43.5186847 61.8861306,43.5186847 C63.0087429,43.5186847 63.9182939,42.6126797 63.9182939,41.49481 C63.9182939,40.3769404 63.0083755,39.4705694 61.8861306,39.4705694" id="Fill-13" fill="#7BC32F"></path>
                    <path d="M11.4858367,31.1525945 C11.7128571,30.9978125 11.935102,30.8353464 12.151102,30.6633664 C12.3667347,30.8353464 12.5889796,30.9978125 12.816,31.1525945 C14.6380408,32.3963388 16.8079592,33.0809654 19.0597959,33.0809654 C21.3112653,33.0809654 23.481551,32.3963388 25.3035918,31.1525945 C25.5306122,30.9978125 25.7528571,30.8353464 25.9688571,30.6633664 C26.1841224,30.8353464 26.4067347,30.9978125 26.6337551,31.1525945 C28.4557959,32.3963388 30.6260816,33.0809654 32.877551,33.0809654 C35.1290204,33.0809654 37.2993061,32.3963388 39.1213469,31.1525945 C39.3483673,30.9978125 39.5706122,30.8353464 39.7862449,30.6633664 C40.0018776,30.8353464 40.2244898,30.9978125 40.4515102,31.1525945 C42.273551,32.3963388 44.4434694,33.0809654 46.6953061,33.0809654 C48.9471429,33.0809654 51.1170612,32.3963388 52.939102,31.1525945 C53.1657551,30.9978125 53.3883673,30.8353464 53.604,30.6633664 C53.8196327,30.8353464 54.0422449,30.9978125 54.2692653,31.1525945 C56.0913061,32.3963388 58.2612245,33.0809654 60.5130612,33.0809654 C61.5824082,33.0809654 62.4489796,32.2177724 62.4489796,31.1525945 C62.4489796,30.0874165 61.5824082,29.2242236 60.5130612,29.2242236 C58.4232245,29.2242236 56.4391837,28.3171208 55.070449,26.736003 C54.7027347,26.3115419 54.1671429,26.0667449 53.604,26.0667449 C53.0412245,26.0667449 52.506,26.3111759 52.1382857,26.736003 C50.769551,28.3171208 48.7855102,29.2238576 46.6953061,29.2238576 C44.605102,29.2238576 42.6214286,28.3171208 41.2523265,26.7356371 C40.8846122,26.3111759 40.3493878,26.0667449 39.7862449,26.0667449 C39.223102,26.0667449 38.6878776,26.31081 38.3201633,26.7356371 C36.9514286,28.3167549 34.9677551,29.2238576 32.877551,29.2238576 C30.7873469,29.2238576 28.8036735,28.3167549 27.4349388,26.7356371 C27.0672245,26.31081 26.532,26.0667449 25.9688571,26.0667449 C25.4057143,26.0667449 24.8704898,26.31081 24.5027755,26.7356371 C23.1340408,28.3171208 21.15,29.2238576 19.0597959,29.2238576 C16.9695918,29.2238576 14.985551,28.3171208 13.6171837,26.7363689 C13.249102,26.3115419 12.7138776,26.0671108 12.151102,26.0671108 C11.5879592,26.0671108 11.0527347,26.3115419 10.6846531,26.7363689 C9.31591837,28.3174867 7.33187755,29.2242236 5.24204082,29.2242236 C4.17269388,29.2242236 3.30612245,30.0874165 3.30612245,31.1525945 C3.30612245,32.2177724 4.17269388,33.0809654 5.24204082,33.0809654 C7.49387755,33.0809654 9.66379592,32.3963388 11.4858367,31.1525945 Z" id="Fill-15" fill="#7BC32F"></path>
                    <path d="M77.8050735,12.0428411 C78.8002163,13.0341043 78.8002163,14.641202 77.8050735,15.6324652 C76.810298,16.6233624 75.1965429,16.6233624 74.2017673,15.6324652 C73.2066245,14.641202 73.2066245,13.0341043 74.2017673,12.0428411 C75.1965429,11.0515779 76.810298,11.0515779 77.8050735,12.0428411" id="Fill-17" fill="#7BC32F"></path>
                    <path d="M84.6503265,13.8027449 C84.6510612,13.7489554 84.6473878,13.6962637 84.6451837,13.6435719 L84.6407755,13.4869604 C84.6415102,13.4595168 84.637102,13.4342687 84.6334286,13.4038977 C84.4203673,8.97486516 80.7704082,5.50709073 76.3236735,5.50709073 L75.8013061,5.50782256 L75.0794694,5.50782256 C74.2000408,5.50782256 73.485551,6.22391779 73.485551,7.10101554 C73.4848163,7.98067469 74.2007755,8.69530627 75.0794694,8.69457444 L76.3240408,8.69457444 C79.1515102,8.69530627 81.4514694,10.9862987 81.4522041,13.8012812 L81.4665306,14.682404 C81.4665306,15.5492561 82.1773469,16.2558376 83.0527347,16.2551058 C83.475551,16.2558376 83.8733878,16.0915419 84.1735102,15.7940531 C84.4721633,15.498394 84.6385714,15.103206 84.637102,14.6831358 L84.6503265,13.8027449 Z" id="Fill-19" fill="#7BC32F"></path>
                    <g id="Group-23" transform="translate(73.102041, 0.000000)">
                        <mask id="mask-3" fill="white">
                            <use xlink:href="#path-2"></use>
                        </mask>
                        <g id="Clip-22"></g>
                        <path d="M16.8452082,14.6417875 L16.8452082,13.8960531 C16.8452082,13.8931258 16.8466776,13.8901985 16.8444735,13.8865393 L16.8459429,13.2959529 C16.8452082,13.1931308 16.8330857,13.0925043 16.8125143,12.9951709 C16.3489224,5.89166717 10.4706367,0.240479198 3.25777959,0.101431579 C3.22361633,0.0999679198 3.19239184,0.0908200501 3.15675918,0.0908200501 L1.8045551,0.0915518797 C1.00300408,0.0908200501 0.353902041,0.741782456 0.353902041,1.54533133 C0.353902041,2.34705063 1.00226939,2.99911078 1.8052898,2.99837895 L3.15602449,2.99911078 C3.16667755,2.99764712 3.17549388,2.99618346 3.18357551,2.99691529 C9.02843265,3.09754185 13.7620653,7.77722607 13.9281061,13.5820982 L13.9270041,14.6425193 C13.9270041,15.4398476 14.581249,16.0886145 15.3864735,16.0886145 C16.191698,16.0871509 16.8452082,15.4391158 16.8452082,14.6417875" id="Fill-21" fill="#7BC32F" mask="url(#mask-3)"></path>
                    </g>
                    <path d="M4.87127755,70.6215539 C2.99560408,70.6215539 1.46927755,69.1015439 1.46927755,67.232817 L1.46927755,51.3235739 C1.46927755,49.4548471 2.99560408,47.9348371 4.87127755,47.9348371 L61.2513184,47.9348371 C63.1269918,47.9348371 64.652951,49.4548471 64.652951,51.3235739 L64.652951,67.232817 C64.652951,69.1015439 63.1269918,70.6215539 61.2513184,70.6215539 L4.87127755,70.6215539 Z" id="Fill-24" fill="#FFFFFF"></path>
                    <path d="M61.2511714,46.4711779 L4.87113061,46.4711779 C2.18104898,46.4711779 0.000110204082,48.643614 0.000110204082,51.3235739 L0.000110204082,67.232817 C0.000110204082,69.9127769 2.18104898,72.085213 4.87113061,72.085213 L61.2511714,72.085213 C63.9416204,72.085213 66.1225592,69.9127769 66.1225592,67.232817 L66.1225592,51.3235739 C66.1225592,48.643614 63.9416204,46.4711779 61.2511714,46.4711779 M61.2511714,49.3984962 C62.3168449,49.3984962 63.1837837,50.2620551 63.1837837,51.3235739 L63.1837837,67.232817 C63.1837837,68.2943358 62.3168449,69.1578947 61.2511714,69.1578947 L4.87113061,69.1578947 C3.80582449,69.1578947 2.93888571,68.2943358 2.93888571,67.232817 L2.93888571,51.3235739 C2.93888571,50.2620551 3.80582449,49.3984962 4.87113061,49.3984962 L61.2511714,49.3984962" id="Fill-26" fill="#7BC32F"></path>
                </g>
                <text id="EC" font-family="Roboto-Black, Roboto" font-size="14.6938776" font-weight="700" fill="#4A90E2">
                    <tspan x="22.8980204" y="22.9914812">EC</tspan>
                </text>
            </g>
        </g>
    </g>
</svg>