<?xml version="1.0" encoding="UTF-8"?>
<svg width="106px" height="92px" viewBox="0 0 106 92" version="1.1" xmlns="http://www.w3.org/2000/svg" xmlns:xlink="http://www.w3.org/1999/xlink">
    <!-- Generator: Sketch 49 (51002) - http://www.bohemiancoding.com/sketch -->
    <title>Page 1</title>
    <desc>Created with Sketch.</desc>
    <defs>
        <filter x="-16.1%" y="-11.0%" width="134.4%" height="140.3%" filterUnits="objectBoundingBox" id="filter-1">
            <feOffset dx="1" dy="7" in="SourceAlpha" result="shadowOffsetOuter1"></feOffset>
            <feGaussianBlur stdDeviation="4" in="shadowOffsetOuter1" result="shadowBlurOuter1"></feGaussianBlur>
            <feColorMatrix values="0 0 0 0 0.26049149   0 0 0 0 0.324856505   0 0 0 0 0.26049149  0 0 0 0.364102129 0" type="matrix" in="shadowBlurOuter1" result="shadowMatrixOuter1"></feColorMatrix>
            <feMerge>
                <feMergeNode in="shadowMatrixOuter1"></feMergeNode>
                <feMergeNode in="SourceGraphic"></feMergeNode>
            </feMerge>
        </filter>
    </defs>
    <g id="Page-1" stroke="none" stroke-width="1" fill="none" fill-rule="evenodd">
        <g id="thuỷ-canh-copy" transform="translate(-380.000000, -398.000000)">
            <g id="Page-1" filter="url(#filter-1)" transform="translate(387.000000, 399.000000)">
                <g id="Group-21" transform="translate(0.000000, 0.102740)">
                    <path d="M84.3537123,47.7073562 C81.7252192,47.7073562 79.587,45.569137 79.587,42.9406438 L79.587,20.1414658 C79.587,17.5129726 81.7252192,15.3747534 84.3537123,15.3747534 C86.9822055,15.3747534 89.1208356,17.5129726 89.1208356,20.1414658 L89.1208356,42.9406438 C89.1208356,45.569137 86.9822055,47.7073562 84.3537123,47.7073562" id="Fill-1" fill="#FFFFFF"></path>
                    <path d="M84.3537123,14.6917808 C81.3438493,14.6917808 78.9039863,17.1316438 78.9039863,20.1415068 L78.9039863,42.9406849 C78.9039863,45.9505479 81.3438493,48.390411 84.3537123,48.390411 C87.3635753,48.390411 89.8034384,45.9505479 89.8034384,42.9406849 L89.8034384,20.1415068 C89.8034384,17.1316438 87.3635753,14.6917808 84.3537123,14.6917808 M84.3537123,16.0578082 C86.6053562,16.0578082 88.4378219,17.8894521 88.4378219,20.1415068 L88.4378219,42.9406849 C88.4378219,45.1927397 86.6053562,47.0247945 84.3537123,47.0247945 C82.1020685,47.0247945 80.2700137,45.1927397 80.2700137,42.9406849 L80.2700137,20.1415068 C80.2700137,17.8894521 82.1020685,16.0578082 84.3537123,16.0578082" id="Fill-3" fill="#FF0000"></path>
                    <path d="M84.3537123,48.390411 C81.3438493,48.390411 78.9039863,45.9505479 78.9039863,42.9406849 L78.9039863,30 C78.9039863,29.9432877 78.9500137,29.8972603 79.006726,29.8972603 L89.8034384,29.8972603 L89.8034384,42.9406849 C89.8034384,45.9505479 87.3635753,48.390411 84.3537123,48.390411" id="Fill-5" fill="#FF0000"></path>
                    <polygon id="Fill-7" fill="#FF0000" points="82.6027397 47.1575342 82.6027397 58.9726027 70.6849315 58.9726027 70.6849315 62.6712329 86.3013699 62.6712329 86.3013699 59.8972603 86.3013699 58.9726027 86.3013699 47.1575342"></polygon>
                    <path d="M37.3972603,72.5503151 C17.9568493,72.5503151 2.14109589,56.7349726 2.14109589,37.2945616 C2.14109589,17.8541507 17.9568493,2.03839726 37.3972603,2.03839726 C56.8376712,2.03839726 72.6534247,17.8541507 72.6534247,37.2945616 C72.6534247,56.7349726 56.8376712,72.5503151 37.3972603,72.5503151" id="Fill-9" fill="#FFFFFF"></path>
                    <path d="M37.3972603,0.308219178 C16.970137,0.308219178 0.410958904,16.8673973 0.410958904,37.2945205 C0.410958904,57.7216438 16.970137,74.2808219 37.3972603,74.2808219 C57.8243836,74.2808219 74.3835616,57.7216438 74.3835616,37.2945205 C74.3835616,16.8673973 57.8243836,0.308219178 37.3972603,0.308219178 M37.3972603,3.76890411 C55.8834247,3.76890411 70.9228767,18.8083562 70.9228767,37.2945205 C70.9228767,55.780274 55.8834247,70.820137 37.3972603,70.820137 C18.9110959,70.820137 3.87164384,55.780274 3.87164384,37.2945205 C3.87164384,18.8083562 18.9110959,3.76890411 37.3972603,3.76890411" id="Fill-11" fill="#FF0000"></path>
                    <path d="M70.0552603,38.5759726 C67.6010137,38.5759726 65.2712877,37.5066575 63.6636164,35.6425479 C63.2316986,35.142 62.6033425,34.8535068 61.9421096,34.8535068 C61.2804658,34.8535068 60.6521096,35.141589 60.2201918,35.6425479 C58.6129315,37.5066575 56.2836164,38.5759726 53.8289589,38.5759726 C51.3743014,38.5759726 49.0449863,37.5066575 47.4373151,35.642137 C47.0053973,35.141589 46.3766301,34.8535068 45.7153973,34.8535068 C45.0545753,34.8535068 44.4258082,35.141589 43.9938904,35.642137 C42.3866301,37.5062466 40.0569041,38.5755616 37.6026575,38.5755616 C35.148,38.5755616 32.8186849,37.5062466 31.2110137,35.642137 C30.7790959,35.141589 30.1507397,34.8535068 29.4895068,34.8535068 C28.828274,34.8535068 28.1995068,35.141589 27.768,35.642137 C26.1603288,37.5066575 23.8310137,38.5759726 21.3759452,38.5759726 C18.9216986,38.5759726 16.5919726,37.5066575 14.9847123,35.6425479 C14.5527945,35.141589 13.9244384,34.8535068 13.2632055,34.8535068 C12.6019726,34.8535068 11.9732055,35.141589 11.5412877,35.6425479 C9.9340274,37.5066575 7.60430137,38.5759726 5.15005479,38.5759726 C3.89457534,38.5759726 2.87663014,39.5939178 2.87663014,40.8493973 C2.87663014,42.1048767 3.89457534,43.122411 5.15005479,43.122411 C7.79457534,43.122411 10.3425205,42.3156986 12.4823836,40.8493973 C12.7486849,40.6665205 13.0100548,40.4754247 13.2632055,40.272411 C13.5163562,40.4754247 13.777726,40.6665205 14.0444384,40.8493973 C16.1838904,42.3156986 18.7322466,43.122411 21.3763562,43.122411 C24.0204658,43.122411 26.5692329,42.3156986 28.7086849,40.8493973 C28.9753973,40.6665205 29.2363562,40.4754247 29.4899178,40.272411 C29.7426575,40.4754247 30.0040274,40.6665205 30.2707397,40.8493973 C32.4101918,42.3156986 34.9585479,43.122411 37.6026575,43.122411 C40.2467671,43.122411 42.7951233,42.3156986 44.9349863,40.8493973 C45.2012877,40.6665205 45.4626575,40.4754247 45.7158082,40.272411 C45.9689589,40.4754247 46.2303288,40.6665205 46.4966301,40.8493973 C48.6364932,42.3156986 51.1848493,43.122411 53.8293699,43.122411 C56.4734795,43.122411 59.0218356,42.3156986 61.1612877,40.8493973 C61.427589,40.6665205 61.6889589,40.4754247 61.9421096,40.272411 C62.1952603,40.4754247 62.4566301,40.6665205 62.7233425,40.8493973 C64.8627945,42.3156986 67.4111507,43.122411 70.0552603,43.122411 C71.3111507,43.122411 72.3286849,42.1048767 72.3286849,40.8493973 C72.3286849,39.5939178 71.3107397,38.5759726 70.0552603,38.5759726" id="Fill-13" fill="#FF0000"></path>
                    <path d="M6.68630137,31.3998082 C9.20547945,31.3998082 11.6330137,30.6309041 13.6713699,29.2340548 C13.9253425,29.0602192 14.1739726,28.8777534 14.4156164,28.6846027 C14.6568493,28.8777534 14.9054795,29.0602192 15.1594521,29.2340548 C17.1978082,30.6309041 19.6253425,31.3998082 22.1445205,31.3998082 C24.6632877,31.3998082 27.0912329,30.6309041 29.129589,29.2340548 C29.3835616,29.0602192 29.6321918,28.8777534 29.8738356,28.6846027 C30.1146575,28.8777534 30.3636986,29.0602192 30.6176712,29.2340548 C32.6560274,30.6309041 35.0839726,31.3998082 37.6027397,31.3998082 C40.1215068,31.3998082 42.5494521,30.6309041 44.5878082,29.2340548 C44.8417808,29.0602192 45.090411,28.8777534 45.3316438,28.6846027 C45.5728767,28.8777534 45.8219178,29.0602192 46.0758904,29.2340548 C48.1142466,30.6309041 50.5417808,31.3998082 53.0609589,31.3998082 C55.580137,31.3998082 58.0076712,30.6309041 60.0460274,29.2340548 C60.299589,29.0602192 60.5486301,28.8777534 60.789863,28.6846027 C61.0310959,28.8777534 61.280137,29.0602192 61.5341096,29.2340548 C63.5724658,30.6309041 66,31.3998082 68.5191781,31.3998082 C69.7154795,31.3998082 70.6849315,30.4303562 70.6849315,29.2340548 C70.6849315,28.0377534 69.7154795,27.0683014 68.5191781,27.0683014 C66.1812329,27.0683014 63.9616438,26.0495342 62.430411,24.2737808 C62.0190411,23.7970685 61.419863,23.522137 60.789863,23.522137 C60.160274,23.522137 59.5615068,23.7966575 59.150137,24.2737808 C57.6189041,26.0495342 55.3993151,27.0678904 53.0609589,27.0678904 C50.7226027,27.0678904 48.5034247,26.0495342 46.9717808,24.2733699 C46.560411,23.7966575 45.9616438,23.522137 45.3316438,23.522137 C44.7016438,23.522137 44.1028767,23.7962466 43.6915068,24.2733699 C42.160274,26.0491233 39.9410959,27.0678904 37.6027397,27.0678904 C35.2643836,27.0678904 33.0452055,26.0491233 31.5139726,24.2733699 C31.1026027,23.7962466 30.5038356,23.522137 29.8738356,23.522137 C29.2438356,23.522137 28.6450685,23.7962466 28.2336986,24.2733699 C26.7024658,26.0495342 24.4828767,27.0678904 22.1445205,27.0678904 C19.8061644,27.0678904 17.5865753,26.0495342 16.0557534,24.2741918 C15.6439726,23.7970685 15.0452055,23.5225479 14.4156164,23.5225479 C13.7856164,23.5225479 13.1868493,23.7970685 12.7750685,24.2741918 C11.2438356,26.0499452 9.02424658,27.0683014 6.68630137,27.0683014 C5.49,27.0683014 4.52054795,28.0377534 4.52054795,29.2340548 C4.52054795,30.4303562 5.49,31.3998082 6.68630137,31.3998082" id="Fill-15" fill="#FF0000"></path>
                    <path d="M5.44960274,73.5616438 C3.35124658,73.5616438 1.64371233,71.8545205 1.64371233,69.7557534 L1.64371233,51.8880822 C1.64371233,49.7893151 3.35124658,48.0821918 5.44960274,48.0821918 L68.5231644,48.0821918 C70.6215205,48.0821918 72.3286438,49.7893151 72.3286438,51.8880822 L72.3286438,69.7557534 C72.3286438,71.8545205 70.6215205,73.5616438 68.5231644,73.5616438 L5.44960274,73.5616438 Z" id="Fill-17" fill="#FFFFFF"></path>
                    <path d="M68.523,46.4383562 L5.44943836,46.4383562 C2.4399863,46.4383562 0.000123287671,48.8782192 0.000123287671,51.8880822 L0.000123287671,69.7557534 C0.000123287671,72.7656164 2.4399863,75.2054795 5.44943836,75.2054795 L68.523,75.2054795 C71.532863,75.2054795 73.972726,72.7656164 73.972726,69.7557534 L73.972726,51.8880822 C73.972726,48.8782192 71.532863,46.4383562 68.523,46.4383562 M68.523,49.7260274 C69.7151918,49.7260274 70.6850548,50.6958904 70.6850548,51.8880822 L70.6850548,69.7557534 C70.6850548,70.9479452 69.7151918,71.9178082 68.523,71.9178082 L5.44943836,71.9178082 C4.25765753,71.9178082 3.28779452,70.9479452 3.28779452,69.7557534 L3.28779452,51.8880822 C3.28779452,50.6958904 4.25765753,49.7260274 5.44943836,49.7260274 L68.523,49.7260274" id="Fill-19" fill="#FF0000"></path>
                </g>
                <text id="pH" font-family="Roboto-Black, Roboto" font-size="16.4383562" font-weight="700" fill="#4A90E2">
                    <tspan x="25.6165068" y="20.6163699">pH</tspan>
                </text>
            </g>
        </g>
    </g>
</svg>