<?xml version="1.0" encoding="UTF-8"?>
<svg width="66px" height="56px" viewBox="0 0 66 56" version="1.1" xmlns="http://www.w3.org/2000/svg" xmlns:xlink="http://www.w3.org/1999/xlink">
    <!-- Generator: Sketch 49 (51002) - http://www.bohemiancoding.com/sketch -->
    <title>Page 1</title>
    <desc>Created with Sketch.</desc>
    <defs>
        <filter x="-29.0%" y="-20.2%" width="162.0%" height="173.8%" filterUnits="objectBoundingBox" id="filter-1">
            <feOffset dx="1" dy="7" in="SourceAlpha" result="shadowOffsetOuter1"></feOffset>
            <feGaussianBlur stdDeviation="4" in="shadowOffsetOuter1" result="shadowBlurOuter1"></feGaussianBlur>
            <feColorMatrix values="0 0 0 0 0.26049149   0 0 0 0 0.324856505   0 0 0 0 0.26049149  0 0 0 0.364102129 0" type="matrix" in="shadowBlurOuter1" result="shadowMatrixOuter1"></feColorMatrix>
            <feMerge>
                <feMergeNode in="shadowMatrixOuter1"></feMergeNode>
                <feMergeNode in="SourceGraphic"></feMergeNode>
            </feMerge>
        </filter>
    </defs>
    <g id="Page-1" stroke="none" stroke-width="1" fill="none" fill-rule="evenodd">
        <g id="thuỷ-canh-copy" transform="translate(-652.000000, -241.000000)">
            <g id="Page-1" filter="url(#filter-1)" transform="translate(659.000000, 242.000000)">
                <g id="Group-19" transform="translate(0.000000, 0.055143)">
                    <path d="M46.8631735,25.6056431 C45.4028995,25.6056431 44.215,24.4580114 44.215,23.0472382 L44.215,10.8103912 C44.215,9.39961806 45.4028995,8.2519863 46.8631735,8.2519863 C48.3234475,8.2519863 49.5115753,9.39961806 49.5115753,10.8103912 L49.5115753,23.0472382 C49.5115753,24.4580114 48.3234475,25.6056431 46.8631735,25.6056431" id="Fill-1" fill="#FFFFFF"></path>
                    <path d="M46.8631735,7.88541909 C45.1910274,7.88541909 43.8355479,9.19495008 43.8355479,10.8104133 L43.8355479,23.0472603 C43.8355479,24.6627235 45.1910274,25.9722545 46.8631735,25.9722545 C48.5353196,25.9722545 49.8907991,24.6627235 49.8907991,23.0472603 L49.8907991,10.8104133 C49.8907991,9.19495008 48.5353196,7.88541909 46.8631735,7.88541909 M46.8631735,8.61837706 C48.1140868,8.61837706 49.1321233,9.60168331 49.1321233,10.8104133 L49.1321233,23.0472603 C49.1321233,24.2559902 48.1140868,25.2392965 46.8631735,25.2392965 C45.6122603,25.2392965 44.5944521,24.2559902 44.5944521,23.0472603 L44.5944521,10.8104133 C44.5944521,9.60168331 45.6122603,8.61837706 46.8631735,8.61837706" id="Fill-3" fill="#F5A623"></path>
                    <path d="M46.8631735,25.9722545 C45.1910274,25.9722545 43.8355479,24.6627235 43.8355479,23.0472603 L43.8355479,16.1016949 C43.8355479,16.0712561 43.8611187,16.0465521 43.8926256,16.0465521 L49.8907991,16.0465521 L49.8907991,23.0472603 C49.8907991,24.6627235 48.5353196,25.9722545 46.8631735,25.9722545" id="Fill-5" fill="#F5A623"></path>
                    <polygon id="Fill-7" fill="#F5A623" points="45.890411 25.310541 45.890411 31.6519619 39.2694064 31.6519619 39.2694064 33.6371024 47.9452055 33.6371024 47.9452055 32.148247 47.9452055 31.6519619 47.9452055 25.310541"></polygon>
                    <path d="M20.5479452,38.9394346 C9.74771689,38.9394346 0.961187215,30.450974 0.961187215,20.0168551 C0.961187215,9.58273624 9.74771689,1.0942756 20.5479452,1.0942756 C31.3481735,1.0942756 40.1347032,9.58273624 40.1347032,20.0168551 C40.1347032,30.450974 31.3481735,38.9394346 20.5479452,38.9394346" id="Fill-9" fill="#FFFFFF"></path>
                    <path d="M20.5479452,0.165428372 C9.19954338,0.165428372 0,9.05312282 0,20.0168331 C0,30.9805433 9.19954338,39.8682378 20.5479452,39.8682378 C31.896347,39.8682378 41.0958904,30.9805433 41.0958904,20.0168331 C41.0958904,9.05312282 31.896347,0.165428372 20.5479452,0.165428372 M20.5479452,2.02285814 C30.8180365,2.02285814 39.1732877,10.095101 39.1732877,20.0168331 C39.1732877,29.9385651 30.8180365,38.010808 20.5479452,38.010808 C10.2778539,38.010808 1.92260274,29.9385651 1.92260274,20.0168331 C1.92260274,10.095101 10.2778539,2.02285814 20.5479452,2.02285814" id="Fill-11" fill="#F5A623"></path>
                    <path d="M33.3412121,27.9135709 C33.1341414,27.6513118 32.8323232,27.5002206 32.5149495,27.5002206 C32.1975758,27.5002206 31.8959596,27.6510912 31.6886869,27.9135709 C30.9171717,28.8904806 29.7991919,29.4507314 28.6210101,29.4507314 C27.4430303,29.4507314 26.3250505,28.8904806 25.5535354,27.9133504 C25.3462626,27.6510912 25.0444444,27.5 24.7270707,27.5 C24.409697,27.5 24.1080808,27.6510912 23.9008081,27.9133504 C23.1294949,28.89026 22.0113131,29.4505108 20.8333333,29.4505108 C19.6551515,29.4505108 18.5371717,28.89026 17.7656566,27.9133504 C17.5583838,27.6510912 17.2567677,27.5 16.9393939,27.5 C16.6220202,27.5 16.320404,27.6510912 16.1131313,27.9133504 C15.3416162,28.8904806 14.2236364,29.4507314 13.0454545,29.4507314 C11.8674747,29.4507314 10.7494949,28.8904806 9.9779798,27.9135709 C9.77070707,27.6510912 9.46888889,27.5002206 9.15171717,27.5002206 C8.83414141,27.5002206 8.53272727,27.6510912 8.32525253,27.9135709 C7.55373737,28.8907012 6.43575758,29.4507314 5.25777778,29.4507314 C4.65515152,29.4507314 4.16666667,29.9840724 4.16666667,30.6420362 C4.16666667,31.3 4.65515152,31.8333411 5.25777778,31.8333411 C6.52686869,31.8333411 7.75010101,31.4105062 8.7769697,30.6420362 C8.90484848,30.5463083 9.03030303,30.446169 9.15171717,30.3398537 C9.27333333,30.446169 9.39858586,30.5463083 9.52666667,30.6420362 C10.5533333,31.4105062 11.7765657,31.8333411 13.0456566,31.8333411 C14.3145455,31.8333411 15.5377778,31.4105062 16.5646465,30.6420362 C16.6925253,30.5463083 16.8179798,30.446169 16.939596,30.3398537 C17.0610101,30.446169 17.1864646,30.5463083 17.3143434,30.6420362 C18.3412121,31.4105062 19.5644444,31.8333411 20.8333333,31.8333411 C22.1024242,31.8333411 23.3256566,31.4105062 24.3523232,30.6420362 C24.480404,30.5463083 24.6056566,30.446169 24.7272727,30.3398537 C24.8486869,30.446169 24.9741414,30.5463083 25.1020202,30.6420362 C26.1288889,31.4105062 27.3521212,31.8333411 28.6212121,31.8333411 C29.890303,31.8333411 31.1135354,31.4105062 32.140202,30.6420362 C32.2680808,30.5463083 32.3935354,30.446169 32.5151515,30.3398537 C32.6365657,30.446169 32.7620202,30.5463083 32.889899,30.6420362 C33.9167677,31.4105062 35.139798,31.8333411 36.4088889,31.8333411 C37.0117172,31.8333411 37.5,31.3 37.5,30.6420362 C37.5,29.9840724 37.0115152,29.4507314 36.4088889,29.4507314 C35.2309091,29.4507314 34.1129293,28.8904806 33.3412121,27.9135709 Z" id="Fill-13" fill="#F5A623"></path>
                </g>
                <text id="CẠN" font-family="Roboto-Black, Roboto" font-size="9.13242009" font-weight="700" fill="#F5A623">
                    <tspan x="10.8333333" y="19.6666667">CẠN</tspan>
                </text>
            </g>
        </g>
    </g>
</svg>