<?xml version="1.0" encoding="UTF-8"?>
<svg width="100px" height="80px" viewBox="0 0 100 80" version="1.1" xmlns="http://www.w3.org/2000/svg" xmlns:xlink="http://www.w3.org/1999/xlink">
    <!-- Generator: Sketch 49 (51002) - http://www.bohemiancoding.com/sketch -->
    <title>Page 1 Copy 10</title>
    <desc>Created with Sketch.</desc>
    <defs>
        <filter x="-17.3%" y="-13.1%" width="136.9%" height="147.7%" filterUnits="objectBoundingBox" id="filter-1">
            <feOffset dx="1" dy="7" in="SourceAlpha" result="shadowOffsetOuter1"></feOffset>
            <feGaussianBlur stdDeviation="4" in="shadowOffsetOuter1" result="shadowBlurOuter1"></feGaussianBlur>
            <feColorMatrix values="0 0 0 0 0.26049149   0 0 0 0 0.324856505   0 0 0 0 0.26049149  0 0 0 0.364102129 0" type="matrix" in="shadowBlurOuter1" result="shadowMatrixOuter1"></feColorMatrix>
            <feMerge>
                <feMergeNode in="shadowMatrixOuter1"></feMergeNode>
                <feMergeNode in="SourceGraphic"></feMergeNode>
            </feMerge>
        </filter>
    </defs>
    <g id="Page-1" stroke="none" stroke-width="1" fill="none" fill-rule="evenodd">
        <g id="thuỷ-canh-copy" transform="translate(-1347.000000, -255.000000)">
            <g id="Page-1-Copy-10" filter="url(#filter-1)" transform="translate(1354.000000, 256.000000)">
                <polygon id="Fill-1" fill="#FF0000" points="70.9210526 40 70.9210526 49.9006623 61 49.9006623 61 53 74 53 74 50.6754967 74 49.9006623 74 40"></polygon>
                <g id="Group-34">
                    <path d="M31.7647059,62.500226 C15.0688235,62.500226 1.48588235,48.8757162 1.48588235,32.1283034 C1.48588235,15.3808905 15.0688235,1.75638072 31.7647059,1.75638072 C48.4605882,1.75638072 62.0435294,15.3808905 62.0435294,32.1283034 C62.0435294,48.8757162 48.4605882,62.500226 31.7647059,62.500226" id="Fill-2" fill="#FFFFFF"></path>
                    <path d="M31.7647059,0.265522876 C14.2214118,0.265522876 0,14.5308279 0,32.128268 C0,49.7257081 14.2214118,63.9910131 31.7647059,63.9910131 C49.308,63.9910131 63.5294118,49.7257081 63.5294118,32.128268 C63.5294118,14.5308279 49.308,0.265522876 31.7647059,0.265522876 M31.7647059,3.24681373 C47.6410588,3.24681373 60.5572941,16.203268 60.5572941,32.128268 C60.5572941,48.053268 47.6410588,61.0097222 31.7647059,61.0097222 C15.8883529,61.0097222 2.97211765,48.053268 2.97211765,32.128268 C2.97211765,16.203268 15.8883529,3.24681373 31.7647059,3.24681373" id="Fill-4" fill="#FF0000"></path>
                    <path d="M68.8955647,32.1424292 C68.9428588,31.9133715 69.0138,31.6924564 69.1055647,31.4832244 L75.2075647,31.4832244 C75.2989765,31.6924564 75.3702706,31.9133715 75.4175647,32.1424292 L68.8955647,32.1424292 Z M75.2075647,34.1543845 L69.1055647,34.1543845 C69.0138,33.9447985 68.9428588,33.7242375 68.8955647,33.4948257 L75.4175647,33.4948257 C75.3702706,33.7242375 75.2989765,33.9447985 75.2075647,34.1543845 Z M72.1563882,36.1589052 C71.4180353,36.1589052 70.7354471,35.9160403 70.1827412,35.506781 L74.1303882,35.506781 C73.5776824,35.9160403 72.8947412,36.1589052 72.1563882,36.1589052 Z M72.1563882,29.4790577 C72.8947412,29.4790577 73.5773294,29.7215686 74.1300353,30.1308279 L70.1827412,30.1308279 C70.7354471,29.7212146 71.4180353,29.4790577 72.1563882,29.4790577 Z M72.1563882,28.1263072 C69.5770941,28.1263072 67.4788588,30.2317266 67.4788588,32.8186275 C67.4788588,35.4062364 69.5770941,37.5109477 72.1563882,37.5109477 C74.7356824,37.5109477 76.8342706,35.4062364 76.8342706,32.8186275 C76.8342706,30.2317266 74.7360353,28.1263072 72.1563882,28.1263072 Z" id="Fill-6" fill="#FF0000"></path>
                    <path d="M65.2622471,35.8770615 L66.1537765,35.5864025 C66.4315412,35.4961247 66.6196588,35.2362663 66.6196588,34.9431291 L66.6196588,31.3897249 C66.6196588,31.0965877 66.4315412,30.8370833 66.1537765,30.7468056 L65.2622471,30.4557925 L65.2622471,26.6566912 C65.2622471,26.341604 65.5177765,26.08564 65.8318941,26.08564 L66.8889529,26.08564 L66.8889529,27.0450626 C66.8889529,27.4182108 67.1907176,27.7212609 67.5630706,27.7212609 L76.7501294,27.7212609 C77.1224824,27.7212609 77.4242471,27.4182108 77.4242471,27.0450626 L77.4242471,26.08564 L78.4813059,26.08564 C78.7954235,26.08564 79.0506,26.341604 79.0506,26.6566912 L79.0506,39.6761629 C79.0506,39.99125 78.7954235,40.2475681 78.4813059,40.2475681 L77.4242471,40.2475681 L77.4242471,38.7758633 C77.4242471,38.4023611 77.1224824,38.099311 76.7501294,38.099311 L67.5630706,38.099311 C67.1907176,38.099311 66.8889529,38.4023611 66.8889529,38.7758633 L66.8889529,40.2475681 L65.8315412,40.2475681 C65.5177765,40.2475681 65.2622471,39.99125 65.2622471,39.6761629 L65.2622471,35.8770615 Z M70.5044824,26.1614025 C70.6167176,25.9245561 70.8588353,25.7712609 71.1203647,25.7712609 L73.1928353,25.7712609 C73.4543647,25.7712609 73.6961294,25.9245561 73.8087176,26.1614025 L73.9075412,26.3688644 L70.4053059,26.3688644 L70.5044824,26.1614025 Z M68.2371882,39.7802478 L76.0760118,39.7802478 L76.0760118,39.4513535 L68.2371882,39.4513535 L68.2371882,39.7802478 Z M80.3988353,33.2675027 L82.6516588,33.2675027 L82.6516588,32.7516803 L80.3988353,32.7516803 L80.3988353,33.2675027 Z M80.3988353,31.3996378 L82.6516588,31.3996378 L82.6516588,29.0382544 L80.3988353,29.0382544 L80.3988353,31.3996378 Z M63.9143647,39.6761629 C63.9143647,40.7371923 64.7744824,41.5999646 65.8318941,41.5999646 L67.5630706,41.5999646 C67.8623647,41.5999646 68.1161294,41.4034777 68.2036588,41.1326443 L76.1091882,41.1326443 C76.1970706,41.4034777 76.4508353,41.5999646 76.7501294,41.5999646 L78.4813059,41.5999646 C79.5387176,41.5999646 80.3988353,40.7371923 80.3988353,39.6761629 L80.3988353,34.6195452 L82.6583647,34.6195452 C82.7021294,34.9509178 82.9837765,35.2065278 83.3261294,35.2065278 C83.6981294,35.2065278 83.9998941,34.9041857 83.9998941,34.5306836 L83.9998941,27.7750735 C83.9998941,27.4019254 83.6981294,27.0988753 83.3261294,27.0988753 C82.9837765,27.0988753 82.7021294,27.3548393 82.6583647,27.6858578 L80.3988353,27.6858578 L80.3988353,26.6566912 C80.3988353,25.5960158 79.5387176,24.7328894 78.4813059,24.7328894 L76.7501294,24.7328894 C76.3777765,24.7328894 76.0760118,25.0359395 76.0760118,25.4094417 L76.0760118,26.3688644 L75.3853059,26.3688644 C75.3743647,26.3239025 75.3588353,26.2792947 75.3383647,26.2361029 L75.0256588,25.5786683 C74.6903647,24.8745016 73.9710706,24.4192184 73.1928353,24.4192184 L71.1203647,24.4192184 C70.3424824,24.4192184 69.6228353,24.8745016 69.2875412,25.5786683 L68.9748353,26.2361029 C68.9543647,26.2792947 68.9388353,26.3239025 68.9278941,26.3688644 L68.2371882,26.3688644 L68.2371882,25.4094417 C68.2371882,25.0359395 67.9354235,24.7328894 67.5630706,24.7328894 L65.8315412,24.7328894 C64.7744824,24.7328894 63.9140118,25.5960158 63.9140118,26.6566912 L63.9140118,30.9471868 C63.9140118,31.2403241 64.1021294,31.4998284 64.3798941,31.5904602 L65.2714235,31.8811193 L65.2714235,34.4524428 L64.3798941,34.7427478 C64.1021294,34.8333796 63.9140118,35.092884 63.9140118,35.3856672 L63.9143647,39.6761629 Z" id="Fill-8" fill="#FF0000"></path>
                    <path d="M32.2778824,15.6481481 C28.3750588,15.6481481 25.2,18.8337146 25.2,22.7485839 C25.2,26.6630991 28.3750588,29.8483115 32.2778824,29.8483115 C36.18,29.8483115 39.3557647,26.6638072 39.3557647,22.7485839 C39.3557647,18.8330065 36.18,15.6481481 32.2778824,15.6481481" id="Fill-10" fill="#FF0000"></path>
                    <path d="M31.3810588,13.4124455 C30.6183529,13.4124455 30,12.7921841 30,12.0278322 L30,9.81124728 C30,9.04618736 30.6183529,8.42592593 31.3810588,8.42592593 C32.1437647,8.42592593 32.7621176,9.04618736 32.7621176,9.81124728 L32.7621176,12.0278322 C32.7621176,12.7921841 32.1430588,13.4124455 31.3810588,13.4124455" id="Fill-12" fill="#FF0000"></path>
                    <path d="M37.6039412,15.9687228 C37.0653529,15.4277642 37.0653529,14.5504766 37.6039412,14.009518 L39.1664118,12.4422249 C39.7053529,11.9019744 40.5799412,11.9019744 41.1192353,12.4422249 C41.6588824,12.9831836 41.6588824,13.8608252 41.1192353,14.4010757 L39.5567647,15.9687228 C39.0181765,16.5093273 38.1439412,16.5093273 37.6039412,15.9687228" id="Fill-14" fill="#FF0000"></path>
                    <path d="M25.5197647,29.2951389 C24.9804706,28.7534722 24.1062353,28.7534722 23.5669412,29.2951389 L22.0044706,30.8620779 C21.4655295,31.4023284 21.4648236,32.2806781 22.0044706,32.8209286 C22.5437647,33.3611792 23.418353,33.3611792 23.9572942,32.8209286 L25.5197647,31.2529276 C26.0590589,30.712323 26.0590589,29.8346814 25.5197647,29.2951389" id="Fill-16" fill="#FF0000"></path>
                    <path d="M40.8,23.051988 C40.8,22.2869281 41.418,21.6666667 42.1810588,21.6666667 L44.3904706,21.6666667 C45.1531765,21.6666667 45.7715294,22.2869281 45.7715294,23.051988 C45.7715294,23.8170479 45.1531765,24.4366013 44.3904706,24.4366013 L42.1810588,24.4366013 C41.418,24.4366013 40.8,23.8170479 40.8,23.051988" id="Fill-18" fill="#FF0000"></path>
                    <path d="M22.9708235,23.051988 C22.9708235,22.2869281 22.3528235,21.6666667 21.5897647,21.6666667 L19.3810588,21.6666667 C18.618,21.6666667 18,22.2869281 18,23.051988 C18,23.8170479 18.618,24.4366013 19.3810588,24.4366013 L21.5904706,24.4366013 C22.3528235,24.4366013 22.9708235,23.8170479 22.9708235,23.051988" id="Fill-20" fill="#FF0000"></path>
                    <path d="M37.6044706,29.2940768 C38.1437647,28.7538263 39.0187059,28.7538263 39.5572941,29.2940768 L41.1197647,30.8613698 C41.6594118,31.4012663 41.6594118,32.279616 41.1197647,32.8198666 C40.5804706,33.3601171 39.7062353,33.3601171 39.1669412,32.8198666 L37.6044706,31.2522195 C37.0651765,30.7112609 37.0651765,29.8343273 37.6044706,29.2940768" id="Fill-22" fill="#FF0000"></path>
                    <path d="M25.5200294,15.9685458 C26.0593235,15.4275871 26.0593235,14.5502996 25.5200294,14.009341 L23.9575588,12.442756 C23.4182647,11.9017974 22.5440294,11.9017974 22.0047353,12.442756 C21.4650882,12.9830065 21.4650882,13.8606481 22.0047353,14.4008987 L23.5672059,15.9685458 C24.1065,16.5098584 24.9807353,16.5098584 25.5200294,15.9685458" id="Fill-24" fill="#FF0000"></path>
                    <path d="M38.3156471,41.704793 L2.55529412,41.704793 C1.80670588,41.704793 1.2,41.0962146 1.2,40.3453159 L1.2,39.8779956 C1.2,39.1270969 1.80670588,38.5185185 2.55529412,38.5185185 L38.3156471,38.5185185 C39.0642353,38.5185185 39.6705882,39.1270969 39.6705882,39.8779956 L39.6705882,40.3453159 C39.6705882,41.0962146 39.0642353,41.704793 38.3156471,41.704793" id="Fill-26" fill="#FF0000"></path>
                    <path d="M60.8301176,41.704793 L48.2989412,41.704793 C47.4709412,41.704793 46.8,41.031781 46.8,40.2008715 L46.8,40.0224401 C46.8,39.1915305 47.4709412,38.5185185 48.2989412,38.5185185 L60.8301176,38.5185185 C61.6581176,38.5185185 62.3294118,39.1915305 62.3294118,40.0224401 L62.3294118,40.2008715 C62.3294118,41.031781 61.6581176,41.704793 60.8301176,41.704793" id="Fill-28" fill="#FF0000"></path>
                </g>
            </g>
        </g>
    </g>
</svg>