<?xml version="1.0" encoding="UTF-8"?>
<svg width="80px" height="81px" viewBox="0 0 80 81" version="1.1" xmlns="http://www.w3.org/2000/svg" xmlns:xlink="http://www.w3.org/1999/xlink">
    <!-- Generator: Sketch 49 (51002) - http://www.bohemiancoding.com/sketch -->
    <title>Group 9</title>
    <desc>Created with Sketch.</desc>
    <defs>
        <filter x="-22.7%" y="-12.9%" width="148.4%" height="147.0%" filterUnits="objectBoundingBox" id="filter-1">
            <feOffset dx="1" dy="7" in="SourceAlpha" result="shadowOffsetOuter1"></feOffset>
            <feGaussianBlur stdDeviation="4" in="shadowOffsetOuter1" result="shadowBlurOuter1"></feGaussianBlur>
            <feColorMatrix values="0 0 0 0 0.26049149   0 0 0 0 0.324856505   0 0 0 0 0.26049149  0 0 0 0.364102129 0" type="matrix" in="shadowBlurOuter1" result="shadowMatrixOuter1"></feColorMatrix>
            <feMerge>
                <feMergeNode in="shadowMatrixOuter1"></feMergeNode>
                <feMergeNode in="SourceGraphic"></feMergeNode>
            </feMerge>
        </filter>
        <polygon id="path-2" points="0 64.7111111 64 64.7111111 64 0.266666667 0 0.266666667"></polygon>
    </defs>
    <g id="Page-1" stroke="none" stroke-width="1" fill="none" fill-rule="evenodd">
        <g id="thuỷ-canh-copy" transform="translate(-1471.000000, -539.000000)">
            <g id="Group-9" filter="url(#filter-1)" transform="translate(1478.000000, 540.000000)">
                <g id="Page-1-Copy-7">
                    <g id="Group-20" transform="translate(0.000000, 0.088889)">
                        <path d="M32,62.7694578 C15.1804444,62.7694578 1.49688889,49.0862578 1.49688889,32.2667022 C1.49688889,15.4471467 15.1804444,1.76394667 32,1.76394667 C48.8195556,1.76394667 62.5027556,15.4471467 62.5027556,32.2667022 C62.5027556,49.0862578 48.8195556,62.7694578 32,62.7694578" id="Fill-1" fill="#FFFFFF"></path>
                        <path d="M32,0.266666667 C14.3267556,0.266666667 0,14.5934222 0,32.2666667 C0,49.9399111 14.3267556,64.2666667 32,64.2666667 C49.6732444,64.2666667 64,49.9399111 64,32.2666667 C64,14.5934222 49.6732444,0.266666667 32,0.266666667 M32,3.2608 C47.9936,3.2608 61.0058667,16.2730667 61.0058667,32.2666667 C61.0058667,48.2602667 47.9936,61.2725333 32,61.2725333 C16.0060444,61.2725333 2.99413333,48.2602667 2.99413333,32.2666667 C2.99413333,16.2730667 16.0060444,3.2608 32,3.2608" id="Fill-3" fill="#B3B3B3"></path>
                        <path d="M59.2468622,38.5980706 C57.1860622,38.5980706 55.2301511,37.7006484 53.8801067,36.1351373 C53.5181511,35.7152262 52.9897956,35.4730929 52.4351289,35.4730929 C51.8797511,35.4730929 51.3521067,35.7148706 50.98944,36.1351373 C49.6397511,37.7006484 47.68384,38.5980706 45.6233956,38.5980706 C43.5625956,38.5980706 41.6066844,37.7006484 40.2569956,36.1351373 C39.8943289,35.7148706 39.3666844,35.4727373 38.8113067,35.4727373 C38.2562844,35.4727373 37.72864,35.7145151 37.3659733,36.1351373 C36.01664,37.7002929 34.0607289,38.5977151 31.9999289,38.5977151 C29.9387733,38.5977151 27.9832178,37.7002929 26.6335289,36.1351373 C26.2708622,35.7145151 25.7432178,35.4727373 25.1881956,35.4727373 C24.6328178,35.4727373 24.1055289,35.7145151 23.7428622,36.1351373 C22.3931733,37.7006484 20.4372622,38.5980706 18.3764622,38.5980706 C16.3153067,38.5980706 14.3597511,37.7006484 13.0100622,36.1351373 C12.6473956,35.7148706 12.1201067,35.4730929 11.5647289,35.4730929 C11.0097067,35.4730929 10.4820622,35.7148706 10.1193956,36.1351373 C8.76970667,37.701004 6.81379556,38.5980706 4.75299556,38.5980706 C3.69877333,38.5980706 2.84437333,39.4524706 2.84437333,40.5066929 C2.84437333,41.5609151 3.69877333,42.4153151 4.75299556,42.4153151 C6.97308444,42.4153151 9.11281778,41.7379818 10.9090844,40.5066929 C11.1330844,40.3534484 11.3524622,40.1927373 11.5650844,40.0227818 C11.7773511,40.1927373 11.9967289,40.3534484 12.2207289,40.5066929 C14.0169956,41.7379818 16.1567289,42.4153151 18.3764622,42.4153151 C20.5965511,42.4153151 22.7362844,41.7379818 24.5325511,40.5066929 C24.7565511,40.3534484 24.9759289,40.1927373 25.1881956,40.0227818 C25.4008178,40.1927373 25.6201956,40.3534484 25.8441956,40.5066929 C27.6401067,41.7379818 29.7801956,42.4153151 31.9999289,42.4153151 C34.2200178,42.4153151 36.3597511,41.7379818 38.1560178,40.5066929 C38.3796622,40.3534484 38.59904,40.1927373 38.8116622,40.0227818 C39.0242844,40.1927373 39.2436622,40.3534484 39.4673067,40.5066929 C41.2635733,41.7379818 43.4033067,42.4153151 45.6237511,42.4153151 C47.84384,42.4153151 49.9832178,41.7379818 51.7794844,40.5066929 C52.0031289,40.3534484 52.2225067,40.1927373 52.4351289,40.0227818 C52.6473956,40.1927373 52.8671289,40.3534484 53.0911289,40.5066929 C54.88704,41.7379818 57.0267733,42.4153151 59.2468622,42.4153151 C60.3010844,42.4153151 61.1554844,41.5609151 61.1554844,40.5066929 C61.1554844,39.4524706 60.3010844,38.5980706 59.2468622,38.5980706" id="Fill-5" fill="#B3B3B3"></path>
                        <path d="M32.9620267,39.914764 C32.9620267,39.914764 30.8852267,35.9876529 27.98816,34.2255195 C25.0914489,32.4630306 16.2171378,29.7277418 16.2171378,29.7277418 C16.2171378,29.7277418 28.8674489,26.9832084 34.1527822,30.6098751 C36.9488711,32.5284529 32.9620267,39.914764 32.9620267,39.914764 Z" id="Fill-7" fill="#B3B3B3"></path>
                        <path d="M32.8064711,38.0412351 C32.8064711,38.0412351 34.2301156,34.7118129 36.4278044,32.8586573 C38.6258489,31.0058573 45.50976,27.330124 45.50976,27.330124 C45.50976,27.330124 38.3318044,25.4574129 34.3456711,29.1470129 C32.2368711,31.0986573 32.8064711,38.0412351 32.8064711,38.0412351 Z" id="Fill-9" fill="#B3B3B3"></path>
                        <path d="M36.2903886,15.2034413 L26.7104557,15.2034413 L26.7104557,14.299619 C26.7104557,11.8078095 28.5011948,9.78090159 30.7022393,9.78090159 L32.2989527,9.78090159 C34.4999972,9.78090159 36.2903886,11.8078095 36.2903886,14.299619 L36.2903886,15.2034413 Z M29.9038825,3.33368889 C29.9038825,2.83532698 30.2620304,2.42986667 30.7022393,2.42986667 L32.2989527,2.42986667 C32.7391616,2.42986667 33.0969617,2.83532698 33.0969617,3.33368889 L33.0969617,8.03781587 C32.8361745,7.99530159 32.5698237,7.97325714 32.2989527,7.97325714 L30.7022393,7.97325714 C30.4310205,7.97325714 30.1646698,7.99530159 29.9038825,8.03781587 L29.9038825,3.33368889 Z M34.6936752,8.58459683 L34.6936752,4.23751111 L34.5563272,2.42986667 C34.2266921,1.37803175 33.3396677,0.622222222 32.2989527,0.622222222 L30.7022393,0.622222222 C29.3816126,0.622222222 28.3071691,1.83860317 28.3071691,3.33368889 L28.3071691,8.58459683 C26.420808,9.60179048 25.1137422,11.7810413 25.1137422,14.299619 L25.1137422,17.0110857 L37.887102,17.0110857 L37.887102,14.299619 C37.887102,11.7810413 36.5800363,9.60179048 34.6936752,8.58459683 Z" id="Fill-11" fill="#A8A8A8" opacity="0.879999995"></path>
                        <polygon id="Fill-13" fill="#A8A8A8" points="25.855143 19.6450819 28.1132129 17.0887137 29.2422479 18.3668978 26.984178 20.923266"></polygon>
                        <mask id="mask-3" fill="white">
                            <use xlink:href="#path-2"></use>
                        </mask>
                        <g id="Clip-16"></g>
                        <polygon id="Fill-15" fill="#A8A8A8" mask="url(#mask-3)" points="30.7021002 22.6666667 32.2988136 22.6666667 32.2988136 19.0513778 30.7021002 19.0513778"></polygon>
                        <polygon id="Fill-17" fill="#A8A8A8" mask="url(#mask-3)" points="33.7585616 18.3668584 34.8875966 17.0890679 37.1456665 19.6450425 36.0166315 20.9232267"></polygon>
                    </g>
                </g>
                <text id="01" font-family="OpenSans-Semibold, Open Sans" font-size="20.2105263" font-weight="500" fill="#B3B3B3">
                    <tspan x="20.2105263" y="59.0526316">01</tspan>
                </text>
            </g>
        </g>
    </g>
</svg>