<?xml version="1.0" encoding="UTF-8"?>
<svg width="106px" height="91px" viewBox="0 0 106 91" version="1.1" xmlns="http://www.w3.org/2000/svg" xmlns:xlink="http://www.w3.org/1999/xlink">
    <!-- Generator: Sketch 49 (51002) - http://www.bohemiancoding.com/sketch -->
    <title>Page 1</title>
    <desc>Created with Sketch.</desc>
    <defs>
        <filter x="-16.1%" y="-11.3%" width="134.4%" height="141.3%" filterUnits="objectBoundingBox" id="filter-1">
            <feOffset dx="1" dy="7" in="SourceAlpha" result="shadowOffsetOuter1"></feOffset>
            <feGaussianBlur stdDeviation="4" in="shadowOffsetOuter1" result="shadowBlurOuter1"></feGaussianBlur>
            <feColorMatrix values="0 0 0 0 0.26049149   0 0 0 0 0.324856505   0 0 0 0 0.26049149  0 0 0 0.364102129 0" type="matrix" in="shadowBlurOuter1" result="shadowMatrixOuter1"></feColorMatrix>
            <feMerge>
                <feMergeNode in="shadowMatrixOuter1"></feMergeNode>
                <feMergeNode in="SourceGraphic"></feMergeNode>
            </feMerge>
        </filter>
    </defs>
    <g id="Page-1" stroke="none" stroke-width="1" fill="none" fill-rule="evenodd">
        <g id="Giá-thể-Copy" transform="translate(-58.000000, -305.000000)">
            <g id="Group" transform="translate(20.000000, 118.000000)">
                <g id="Page-1" filter="url(#filter-1)" transform="translate(45.000000, 188.000000)">
                    <path d="M84.3537123,47.2696311 C81.7252192,47.2696311 79.587,45.1372541 79.587,42.5159426 L79.587,19.7790574 C79.587,17.1577459 81.7252192,15.0253689 84.3537123,15.0253689 C86.9822055,15.0253689 89.1208356,17.1577459 89.1208356,19.7790574 L89.1208356,42.5159426 C89.1208356,45.1372541 86.9822055,47.2696311 84.3537123,47.2696311" id="Fill-1" fill="#FFFFFF"></path>
                    <path d="M84.3537123,14.3442623 C81.3438493,14.3442623 78.9039863,16.777459 78.9039863,19.7790984 L78.9039863,42.5159836 C78.9039863,45.517623 81.3438493,47.9508197 84.3537123,47.9508197 C87.3635753,47.9508197 89.8034384,45.517623 89.8034384,42.5159836 L89.8034384,19.7790984 C89.8034384,16.777459 87.3635753,14.3442623 84.3537123,14.3442623 M84.3537123,15.7061475 C86.6053562,15.7061475 88.4378219,17.5331967 88.4378219,19.7790984 L88.4378219,42.5159836 C88.4378219,44.7618852 86.6053562,46.5889344 84.3537123,46.5889344 C82.1020685,46.5889344 80.2700137,44.7618852 80.2700137,42.5159836 L80.2700137,19.7790984 C80.2700137,17.5331967 82.1020685,15.7061475 84.3537123,15.7061475" id="Fill-3" fill="#7BC32F"></path>
                    <path d="M84.3537123,47.9508197 C81.3438493,47.9508197 78.9039863,45.517623 78.9039863,42.5159836 L78.9039863,29.6106557 C78.9039863,29.5540984 78.9500137,29.5081967 79.006726,29.5081967 L89.8034384,29.5081967 L89.8034384,42.5159836 C89.8034384,45.517623 87.3635753,47.9508197 84.3537123,47.9508197" id="Fill-5" fill="#7BC32F"></path>
                    <polygon id="Fill-7" fill="#7BC32F" points="82.6027397 46.7213115 82.6027397 58.5040984 70.6849315 58.5040984 70.6849315 62.192623 86.3013699 62.192623 86.3013699 59.4262295 86.3013699 58.5040984 86.3013699 46.7213115"></polygon>
                    <path d="M36.9863014,72.0447131 C17.5458904,72.0447131 1.73013699,56.272582 1.73013699,36.8852869 C1.73013699,17.4979918 17.5458904,1.72586066 36.9863014,1.72586066 C56.4267123,1.72586066 72.2424658,17.4979918 72.2424658,36.8852869 C72.2424658,56.272582 56.4267123,72.0447131 36.9863014,72.0447131" id="Fill-9" fill="#FFFFFF"></path>
                    <path d="M36.9863014,0 C16.5591781,0 0,16.5139344 0,36.8852459 C0,57.2565574 16.5591781,73.7704918 36.9863014,73.7704918 C57.4134247,73.7704918 73.9726027,57.2565574 73.9726027,36.8852459 C73.9726027,16.5139344 57.4134247,0 36.9863014,0 M36.9863014,3.45122951 C55.4724658,3.45122951 70.5119178,18.45 70.5119178,36.8852459 C70.5119178,55.3204918 55.4724658,70.3192623 36.9863014,70.3192623 C18.500137,70.3192623 3.46068493,55.3204918 3.46068493,36.8852459 C3.46068493,18.45 18.500137,3.45122951 36.9863014,3.45122951" id="Fill-11" fill="#7BC32F"></path>
                    <path d="M5.44960274,73.0532787 C3.35124658,73.0532787 1.64371233,71.3508197 1.64371233,69.2577869 L1.64371233,51.4389344 C1.64371233,49.3459016 3.35124658,47.6434426 5.44960274,47.6434426 L68.5231644,47.6434426 C70.6215205,47.6434426 72.3286438,49.3459016 72.3286438,51.4389344 L72.3286438,69.2577869 C72.3286438,71.3508197 70.6215205,73.0532787 68.5231644,73.0532787 L5.44960274,73.0532787 Z" id="Fill-13" fill="#FFFFFF"></path>
                    <path d="M68.523,46.0040984 L5.44943836,46.0040984 C2.4399863,46.0040984 0.000123287671,48.4372951 0.000123287671,51.4389344 L0.000123287671,69.2577869 C0.000123287671,72.2594262 2.4399863,74.692623 5.44943836,74.692623 L68.523,74.692623 C71.532863,74.692623 73.972726,72.2594262 73.972726,69.2577869 L73.972726,51.4389344 C73.972726,48.4372951 71.532863,46.0040984 68.523,46.0040984 M68.523,49.2827869 C69.7151918,49.2827869 70.6850548,50.25 70.6850548,51.4389344 L70.6850548,69.2577869 C70.6850548,70.4467213 69.7151918,71.4139344 68.523,71.4139344 L5.44943836,71.4139344 C4.25765753,71.4139344 3.28779452,70.4467213 3.28779452,69.2577869 L3.28779452,51.4389344 C3.28779452,50.25 4.25765753,49.2827869 5.44943836,49.2827869 L68.523,49.2827869" id="Fill-15" fill="#7BC32F"></path>
                    <path d="M40.707411,35.8814754 C43.9391918,38.0929508 39.3311096,46.6068852 39.3311096,46.6068852 C39.3311096,46.6068852 36.9306986,42.0802459 33.5822055,40.0490984 C30.2341233,38.017541 19.977,34.8646721 19.977,34.8646721 C19.977,34.8646721 34.5985068,31.7011475 40.707411,35.8814754" id="Fill-17" fill="#7BC32F"></path>
                    <path d="M40.9303562,34.1952869 C38.4929589,36.444877 39.1513151,44.4473361 39.1513151,44.4473361 C39.1513151,44.4473361 40.7967945,40.6096311 43.3369315,38.4735656 C45.8774795,36.3379098 53.8340548,32.1010246 53.8340548,32.1010246 C53.8340548,32.1010246 45.5376164,29.942418 40.9303562,34.1952869" id="Fill-19" fill="#7BC32F"></path>
                    <path d="M18.0821918,43.647541 C18.0821918,46.4766393 15.7820548,48.7704918 12.9452055,48.7704918 C10.1083562,48.7704918 7.80821918,46.4766393 7.80821918,43.647541 C7.80821918,40.8184426 10.1083562,38.5245902 12.9452055,38.5245902 C15.7820548,38.5245902 18.0821918,40.8184426 18.0821918,43.647541" id="Fill-21" fill="#7BC32F"></path>
                    <path d="M46.6558767,22.5289754 C46.6558767,27.2888115 42.7866986,31.147418 38.0138219,31.147418 C33.2405342,31.147418 29.3713562,27.2888115 29.3713562,22.5289754 C29.3713562,17.7691393 38.0138219,8.60643443 38.0138219,8.60643443 C38.0138219,8.60643443 46.6558767,17.7691393 46.6558767,22.5289754" id="Fill-23" fill="#7BC32F"></path>
                    <path d="M43.1649452,41.5407377 C42.8180959,40.582541 43.3157671,39.5255738 44.2761781,39.1796721 C45.237,38.8341803 46.296863,39.3296721 46.6437123,40.2878689 C46.9905616,41.2460656 46.4933014,42.3030328 45.5324795,42.6489344 C44.5716575,42.9948361 43.5117945,42.4989344 43.1649452,41.5407377" id="Fill-25" fill="#7BC32F"></path>
                    <path d="M33.6986301,44.4672131 C33.6986301,46.3909836 32.1345205,47.9508197 30.2054795,47.9508197 C28.2764384,47.9508197 26.7123288,46.3909836 26.7123288,44.4672131 C26.7123288,42.5434426 28.2764384,40.9836066 30.2054795,40.9836066 C32.1345205,40.9836066 33.6986301,42.5434426 33.6986301,44.4672131" id="Fill-27" fill="#7BC32F"></path>
                    <path d="M57.9452055,37.0901639 C57.9452055,39.0139344 56.3810959,40.5737705 54.4520548,40.5737705 C52.5230137,40.5737705 50.9589041,39.0139344 50.9589041,37.0901639 C50.9589041,35.1663934 52.5230137,33.6065574 54.4520548,33.6065574 C56.3810959,33.6065574 57.9452055,35.1663934 57.9452055,37.0901639" id="Fill-29" fill="#7BC32F"></path>
                    <path d="M15.381863,36.9684836 C13.6640548,37.2061885 12.0777534,36.009877 11.8393973,34.2967623 C11.6010411,32.5836475 12.8006301,31.0016803 14.5184384,30.7639754 C16.2362466,30.5262705 17.822137,31.722582 18.0609041,33.4356967 C18.2992603,35.1492213 17.0996712,36.7307787 15.381863,36.9684836" id="Fill-31" fill="#7BC32F"></path>
                    <path d="M22.4155068,32.3986475 C20.5045479,32.6634016 18.7407123,31.3326639 18.4752329,29.4273361 C18.2101644,27.5215984 19.544137,25.7621721 21.4550959,25.4978279 C23.3660548,25.2334836 25.1298904,26.5638115 25.3949589,28.4691393 C25.6604384,30.3752869 24.3264658,32.1343033 22.4155068,32.3986475" id="Fill-33" fill="#7BC32F"></path>
                    <path d="M61.9922055,47.1651639 C59.6242603,47.492623 57.4383699,45.8438525 57.1096027,43.4827869 C56.7808356,41.1213115 58.4341233,38.9413934 60.8020685,38.6135246 C63.1700137,38.2856557 65.3559041,39.9340164 65.6846712,42.2959016 C66.0130274,44.657377 64.3601507,46.8372951 61.9922055,47.1651639" id="Fill-35" fill="#7BC32F"></path>
                    <path d="M51.5930137,47.9736475 C49.6820548,48.2384016 47.9182192,46.9076639 47.6527397,45.0019262 C47.3876712,43.0965984 48.7216438,41.3371721 50.6326027,41.072418 C52.5435616,40.8080738 54.3073973,42.1384016 54.5728767,44.0441393 C54.8379452,45.949877 53.5039726,47.7088934 51.5930137,47.9736475" id="Fill-37" fill="#7BC32F"></path>
                    <path d="M23.1316849,42.7018033 C21.6436027,42.907541 20.2701781,41.8718852 20.0634658,40.3878689 C19.8567534,38.9034426 20.8956575,37.5337705 22.3837397,37.3280328 C23.8718219,37.1218852 25.2456575,38.157541 25.4519589,39.6415574 C25.6586712,41.1255738 24.6197671,42.4956557 23.1316849,42.7018033" id="Fill-39" fill="#7BC32F"></path>
                </g>
            </g>
        </g>
    </g>
</svg>