<?xml version="1.0" encoding="UTF-8"?>
<svg width="106px" height="92px" viewBox="0 0 106 92" version="1.1" xmlns="http://www.w3.org/2000/svg" xmlns:xlink="http://www.w3.org/1999/xlink">
    <!-- Generator: Sketch 49 (51002) - http://www.bohemiancoding.com/sketch -->
    <title>Page 1</title>
    <desc>Created with Sketch.</desc>
    <defs>
        <filter x="-16.1%" y="-11.2%" width="134.4%" height="142.1%" filterUnits="objectBoundingBox" id="filter-1">
            <feOffset dx="1" dy="7" in="SourceAlpha" result="shadowOffsetOuter1"></feOffset>
            <feGaussianBlur stdDeviation="4" in="shadowOffsetOuter1" result="shadowBlurOuter1"></feGaussianBlur>
            <feColorMatrix values="0 0 0 0 0.26049149   0 0 0 0 0.324856505   0 0 0 0 0.26049149  0 0 0 0.364102129 0" type="matrix" in="shadowBlurOuter1" result="shadowMatrixOuter1"></feColorMatrix>
            <feMerge>
                <feMergeNode in="shadowMatrixOuter1"></feMergeNode>
                <feMergeNode in="SourceGraphic"></feMergeNode>
            </feMerge>
        </filter>
    </defs>
    <g id="Page-1" stroke="none" stroke-width="1" fill="none" fill-rule="evenodd">
        <g id="Giá-thể-Copy" transform="translate(-58.000000, -387.000000)">
            <g id="Group" transform="translate(20.000000, 118.000000)">
                <g id="Page-1" filter="url(#filter-1)" transform="translate(45.000000, 270.000000)">
                    <g id="Group-17" transform="translate(0.000000, 0.102740)">
                        <path d="M84.3537123,47.7073562 C81.7252192,47.7073562 79.587,45.569137 79.587,42.9406438 L79.587,20.1414658 C79.587,17.5129726 81.7252192,15.3747534 84.3537123,15.3747534 C86.9822055,15.3747534 89.1208356,17.5129726 89.1208356,20.1414658 L89.1208356,42.9406438 C89.1208356,45.569137 86.9822055,47.7073562 84.3537123,47.7073562" id="Fill-1" fill="#FFFFFF"></path>
                        <path d="M84.3537123,14.6917808 C81.3438493,14.6917808 78.9039863,17.1316438 78.9039863,20.1415068 L78.9039863,42.9406849 C78.9039863,45.9505479 81.3438493,48.390411 84.3537123,48.390411 C87.3635753,48.390411 89.8034384,45.9505479 89.8034384,42.9406849 L89.8034384,20.1415068 C89.8034384,17.1316438 87.3635753,14.6917808 84.3537123,14.6917808 M84.3537123,16.0573973 C86.6053562,16.0573973 88.4378219,17.8894521 88.4378219,20.1415068 L88.4378219,42.9406849 C88.4378219,45.1927397 86.6053562,47.0247945 84.3537123,47.0247945 C82.1020685,47.0247945 80.2700137,45.1927397 80.2700137,42.9406849 L80.2700137,20.1415068 C80.2700137,17.8894521 82.1020685,16.0573973 84.3537123,16.0573973" id="Fill-3" fill="#7BC32F"></path>
                        <path d="M84.3537123,48.390411 C81.3438493,48.390411 78.9039863,45.9505479 78.9039863,42.9406849 L78.9039863,30 C78.9039863,29.9432877 78.9500137,29.8972603 79.006726,29.8972603 L89.8034384,29.8972603 L89.8034384,42.9406849 C89.8034384,45.9505479 87.3635753,48.390411 84.3537123,48.390411" id="Fill-5" fill="#7BC32F"></path>
                        <polygon id="Fill-7" fill="#7BC32F" points="82.6027397 47.1575342 82.6027397 58.9726027 70.6849315 58.9726027 70.6849315 62.6712329 86.3013699 62.6712329 86.3013699 59.8972603 86.3013699 58.9726027 86.3013699 47.1575342"></polygon>
                        <path d="M36.9863014,72.5503151 C17.5458904,72.5503151 1.73013699,56.7349726 1.73013699,37.2945616 C1.73013699,17.8541507 17.5458904,2.03880822 36.9863014,2.03880822 C56.4267123,2.03880822 72.2424658,17.8541507 72.2424658,37.2945616 C72.2424658,56.7349726 56.4267123,72.5503151 36.9863014,72.5503151" id="Fill-9" fill="#FFFFFF"></path>
                        <path d="M36.9863014,0.308219178 C16.5591781,0.308219178 0,16.8673973 0,37.2945205 C0,57.7216438 16.5591781,74.2808219 36.9863014,74.2808219 C57.4134247,74.2808219 73.9726027,57.7216438 73.9726027,37.2945205 C73.9726027,16.8673973 57.4134247,0.308219178 36.9863014,0.308219178 M36.9863014,3.76890411 C55.4724658,3.76890411 70.5119178,18.8087671 70.5119178,37.2945205 C70.5119178,55.780274 55.4724658,70.820137 36.9863014,70.820137 C18.500137,70.820137 3.46068493,55.780274 3.46068493,37.2945205 C3.46068493,18.8087671 18.500137,3.76890411 36.9863014,3.76890411" id="Fill-11" fill="#7BC32F"></path>
                        <path d="M5.44960274,73.5616438 C3.35124658,73.5616438 1.64371233,71.8545205 1.64371233,69.7557534 L1.64371233,51.8880822 C1.64371233,49.7893151 3.35124658,48.0821918 5.44960274,48.0821918 L68.5231644,48.0821918 C70.6215205,48.0821918 72.3286438,49.7893151 72.3286438,51.8880822 L72.3286438,69.7557534 C72.3286438,71.8545205 70.6215205,73.5616438 68.5231644,73.5616438 L5.44960274,73.5616438 Z" id="Fill-13" fill="#FFFFFF"></path>
                        <path d="M68.523,46.4383562 L5.44943836,46.4383562 C2.4399863,46.4383562 0.000123287671,48.8782192 0.000123287671,51.8880822 L0.000123287671,69.7557534 C0.000123287671,72.7656164 2.4399863,75.2054795 5.44943836,75.2054795 L68.523,75.2054795 C71.532863,75.2054795 73.972726,72.7656164 73.972726,69.7557534 L73.972726,51.8880822 C73.972726,48.8782192 71.532863,46.4383562 68.523,46.4383562 M68.523,49.7260274 C69.7151918,49.7260274 70.6850548,50.6958904 70.6850548,51.8880822 L70.6850548,69.7557534 C70.6850548,70.9479452 69.7151918,71.9178082 68.523,71.9178082 L5.44943836,71.9178082 C4.25765753,71.9178082 3.28779452,70.9479452 3.28779452,69.7557534 L3.28779452,51.8880822 C3.28779452,50.6958904 4.25765753,49.7260274 5.44943836,49.7260274 L68.523,49.7260274" id="Fill-15" fill="#7BC32F"></path>
                    </g>
                    <text id="EC" font-family="Roboto-Black, Roboto" font-size="16.4383562" font-weight="700" fill="#4A90E2">
                        <tspan x="27.6713014" y="25.1369178">EC</tspan>
                    </text>
                    <g id="Group-22" transform="translate(19.726027, 31.746575)" fill="#7BC32F">
                        <path d="M20.9813836,4.64416438 C24.2131644,6.86169863 19.6050822,15.3989589 19.6050822,15.3989589 C19.6050822,15.3989589 17.2046712,10.8599178 13.8561781,8.82320548 C10.5080959,6.78608219 0.250972603,3.62457534 0.250972603,3.62457534 C0.250972603,3.62457534 14.8724795,0.452383562 20.9813836,4.64416438" id="Fill-18"></path>
                        <path d="M21.2043288,2.95335616 C18.7669315,5.20910959 19.4252877,13.2334932 19.4252877,13.2334932 C19.4252877,13.2334932 21.0707671,9.38527397 23.6109041,7.24335616 C26.1514521,5.10184932 34.1080274,0.853356164 34.1080274,0.853356164 C34.1080274,0.853356164 25.811589,-1.31116438 21.2043288,2.95335616" id="Fill-20"></path>
                    </g>
                </g>
            </g>
        </g>
    </g>
</svg>