<?xml version="1.0" encoding="UTF-8"?>
<svg width="105px" height="87px" viewBox="0 0 105 87" version="1.1" xmlns="http://www.w3.org/2000/svg" xmlns:xlink="http://www.w3.org/1999/xlink">
    <!-- Generator: Sketch 49 (51002) - http://www.bohemiancoding.com/sketch -->
    <title>Page 1</title>
    <desc>Created with Sketch.</desc>
    <defs>
        <filter x="-16.1%" y="-12.0%" width="134.4%" height="143.7%" filterUnits="objectBoundingBox" id="filter-1">
            <feOffset dx="1" dy="7" in="SourceAlpha" result="shadowOffsetOuter1"></feOffset>
            <feGaussianBlur stdDeviation="4" in="shadowOffsetOuter1" result="shadowBlurOuter1"></feGaussianBlur>
            <feColorMatrix values="0 0 0 0 0.26049149   0 0 0 0 0.324856505   0 0 0 0 0.26049149  0 0 0 0.364102129 0" type="matrix" in="shadowBlurOuter1" result="shadowMatrixOuter1"></feColorMatrix>
            <feMerge>
                <feMergeNode in="shadowMatrixOuter1"></feMergeNode>
                <feMergeNode in="SourceGraphic"></feMergeNode>
            </feMerge>
        </filter>
        <polygon id="path-2" points="0.349119581 0.0888739196 16.61815 0.0888739196 16.61815 15.7438609 0.349119581 15.7438609"></polygon>
    </defs>
    <g id="Page-1" stroke="none" stroke-width="1" fill="none" fill-rule="evenodd">
        <g id="Giá-thể-Copy" transform="translate(-564.000000, -572.000000)">
            <g id="Group" transform="translate(20.000000, 118.000000)">
                <g id="Page-1" filter="url(#filter-1)" transform="translate(551.000000, 455.000000)">
                    <g id="Group-28">
                        <path d="M74.3829453,46.58107 C72.065145,46.58107 70.1796673,44.7180119 70.1796673,42.4277718 L70.1796673,22.562553 C70.1796673,20.2723129 72.065145,18.4092549 74.3829453,18.4092549 C76.7007457,18.4092549 78.5865857,20.2723129 78.5865857,22.562553 L78.5865857,42.4277718 C78.5865857,44.7180119 76.7007457,46.58107 74.3829453,46.58107" id="Fill-1" fill="#FFFFFF"></path>
                        <path d="M74.3829453,17.814172 C71.7288538,17.814172 69.5773871,19.9400562 69.5773871,22.5625888 L69.5773871,42.4278077 C69.5773871,45.0503402 71.7288538,47.1762244 74.3829453,47.1762244 C77.0370369,47.1762244 79.1885035,45.0503402 79.1885035,42.4278077 L79.1885035,22.5625888 C79.1885035,19.9400562 77.0370369,17.814172 74.3829453,17.814172 M74.3829453,19.0044094 C76.3684407,19.0044094 77.9843055,20.6003444 77.9843055,22.5625888 L77.9843055,42.4278077 C77.9843055,44.3900521 76.3684407,45.9863452 74.3829453,45.9863452 C72.39745,45.9863452 70.7819475,44.3900521 70.7819475,42.4278077 L70.7819475,22.5625888 C70.7819475,20.6003444 72.39745,19.0044094 74.3829453,19.0044094" id="Fill-3" fill="#7BC32F"></path>
                        <path d="M74.3829453,47.1762244 C71.7288538,47.1762244 69.5773871,45.0503402 69.5773871,42.4278077 L69.5773871,31.1524215 C69.5773871,31.1030073 69.617974,31.062903 69.6679828,31.062903 L79.1885035,31.062903 L79.1885035,42.4278077 C79.1885035,45.0503402 77.0370369,47.1762244 74.3829453,47.1762244" id="Fill-5" fill="#7BC32F"></path>
                        <polygon id="Fill-7" fill="#7BC32F" points="72.838941 46.102003 72.838941 56.3966251 62.32984 56.3966251 62.32984 59.6192893 76.1003861 59.6192893 76.1003861 57.2022911 76.1003861 56.3966251 76.1003861 46.102003"></polygon>
                        <path d="M32.6144512,68.2270615 C15.4719333,68.2270615 1.52563155,54.446949 1.52563155,37.5082674 C1.52563155,20.5695858 15.4719333,6.78911524 32.6144512,6.78911524 C49.7569691,6.78911524 63.7032708,20.5695858 63.7032708,37.5082674 C63.7032708,54.446949 49.7569691,68.2270615 32.6144512,68.2270615" id="Fill-9" fill="#FFFFFF"></path>
                        <path d="M32.6144512,5.2815887 C14.6018522,5.2815887 0,19.7098148 0,37.5082316 C0,55.3066484 14.6018522,69.7348745 32.6144512,69.7348745 C50.6270502,69.7348745 65.2289024,55.3066484 65.2289024,37.5082316 C65.2289024,19.7098148 50.6270502,5.2815887 32.6144512,5.2815887 M32.6144512,8.29692825 C48.9155163,8.29692825 62.1772769,21.4009974 62.1772769,37.5082316 C62.1772769,53.6151077 48.9155163,66.7195349 32.6144512,66.7195349 C16.3133861,66.7195349 3.05162548,53.6151077 3.05162548,37.5082316 C3.05162548,21.4009974 16.3133861,8.29692825 32.6144512,8.29692825" id="Fill-11" fill="#7BC32F"></path>
                        <path d="M61.0498315,38.6247773 C58.8856815,38.6247773 56.8313335,37.6930693 55.413692,36.0688465 C55.0328277,35.6327126 54.4787444,35.3813448 53.8956705,35.3813448 C53.3122342,35.3813448 52.7581509,35.6323545 52.3772866,36.0688465 C50.9600075,37.6930693 48.9060218,38.6247773 46.7415094,38.6247773 C44.576997,38.6247773 42.5230114,37.6930693 41.1053699,36.0684884 C40.7245056,35.6323545 40.1700599,35.3813448 39.586986,35.3813448 C39.0042745,35.3813448 38.4498288,35.6323545 38.0689645,36.0684884 C36.6516854,37.6927112 34.5973373,38.6244193 32.4331873,38.6244193 C30.2686749,38.6244193 28.2146892,37.6927112 26.7970478,36.0684884 C26.4161835,35.6323545 25.8621002,35.3813448 25.2790263,35.3813448 C24.6959523,35.3813448 24.1415067,35.6323545 23.7610047,36.0684884 C22.3433633,37.6930693 20.2893776,38.6247773 18.1245028,38.6247773 C15.9603528,38.6247773 13.9060047,37.6930693 12.4887256,36.0688465 C12.1078613,35.6323545 11.553778,35.3813448 10.9707041,35.3813448 C10.3876302,35.3813448 9.83318456,35.6323545 9.45232024,36.0688465 C8.03504115,37.6930693 5.98069311,38.6247773 3.81654308,38.6247773 C2.70946365,38.6247773 1.81184148,39.5117262 1.81184148,40.6056417 C1.81184148,41.6995571 2.70946365,42.5861479 3.81654308,42.5861479 C6.14847634,42.5861479 8.39524964,41.883249 10.2821768,40.6056417 C10.5170009,40.4462988 10.7474763,40.2797945 10.9707041,40.102906 C11.1939319,40.2797945 11.4244074,40.4462988 11.6595938,40.6056417 C13.5461586,41.883249 15.7932943,42.5861479 18.1248652,42.5861479 C20.4564361,42.5861479 22.7039341,41.883249 24.590499,40.6056417 C24.8256854,40.4462988 25.0557985,40.2797945 25.2793886,40.102906 C25.5022541,40.2797945 25.7327295,40.4462988 25.9679159,40.6056417 C27.8544808,41.883249 30.1016164,42.5861479 32.4331873,42.5861479 C34.7647582,42.5861479 37.0118939,41.883249 38.8988211,40.6056417 C39.1336451,40.4462988 39.3641206,40.2797945 39.5873484,40.102906 C39.8105762,40.2797945 40.0410516,40.4462988 40.2758757,40.6056417 C42.1628029,41.883249 44.4099386,42.5861479 46.7418718,42.5861479 C49.0734427,42.5861479 51.3205784,41.883249 53.2071432,40.6056417 C53.4419672,40.4462988 53.6724427,40.2797945 53.8956705,40.102906 C54.1188983,40.2797945 54.3493737,40.4462988 54.5845602,40.6056417 C56.471125,41.883249 58.7182607,42.5861479 61.0498315,42.5861479 C62.1572734,42.5861479 63.0545331,41.6995571 63.0545331,40.6056417 C63.0545331,39.5117262 62.156911,38.6247773 61.0498315,38.6247773" id="Fill-13" fill="#7BC32F"></path>
                        <path d="M11.3306227,30.4850435 C11.5545753,30.3335783 11.7738169,30.1745935 11.986898,30.0062988 C12.1996167,30.1745935 12.4188582,30.3335783 12.6428108,30.4850435 C14.4402295,31.7021364 16.5808246,32.3720925 18.8022311,32.3720925 C21.0232752,32.3720925 23.1642328,31.7021364 24.9616514,30.4850435 C25.185604,30.3335783 25.4048456,30.1745935 25.6179266,30.0062988 C25.830283,30.1745935 26.0498869,30.3335783 26.2738395,30.4850435 C28.0712581,31.7021364 30.2122157,32.3720925 32.4332598,32.3720925 C34.6543039,32.3720925 36.7952614,31.7021364 38.5926801,30.4850435 C38.8166327,30.3335783 39.0358742,30.1745935 39.2485929,30.0062988 C39.4613116,30.1745935 39.6809156,30.3335783 39.9048682,30.4850435 C41.7022868,31.7021364 43.842882,32.3720925 46.0642885,32.3720925 C48.285695,32.3720925 50.4262901,31.7021364 52.2237088,30.4850435 C52.447299,30.3335783 52.6669029,30.1745935 52.8796216,30.0062988 C53.0923403,30.1745935 53.3119443,30.3335783 53.5358969,30.4850435 C55.3333155,31.7021364 57.4739106,32.3720925 59.6953172,32.3720925 C60.7502135,32.3720925 61.6050745,31.5273964 61.6050745,30.4850435 C61.6050745,29.4426906 60.7502135,28.5979945 59.6953172,28.5979945 C57.6337215,28.5979945 55.676492,27.7103295 54.3262537,26.1630926 C53.9635085,25.747727 53.4351544,25.5081756 52.8796216,25.5081756 C52.3244512,25.5081756 51.7964595,25.7473689 51.4337143,26.1630926 C50.083476,27.7103295 48.1262466,28.5976364 46.0642885,28.5976364 C44.0023304,28.5976364 42.0454633,27.7103295 40.6948627,26.1627345 C40.3321175,25.7473689 39.8041258,25.5081756 39.2485929,25.5081756 C38.6930601,25.5081756 38.1650684,25.7470108 37.8023232,26.1627345 C36.4520849,27.7099715 34.4952179,28.5976364 32.4332598,28.5976364 C30.3713017,28.5976364 28.4144346,27.7099715 27.0641964,26.1627345 C26.7014512,25.7470108 26.1734595,25.5081756 25.6179266,25.5081756 C25.0623938,25.5081756 24.5344021,25.7470108 24.1716569,26.1627345 C22.8214186,27.7103295 20.8641892,28.5976364 18.8022311,28.5976364 C16.740273,28.5976364 14.7830436,27.7103295 13.4331677,26.1634507 C13.0700601,25.747727 12.5420684,25.5085337 11.986898,25.5085337 C11.4313651,25.5085337 10.9033734,25.747727 10.5402659,26.1634507 C9.19002758,27.7106876 7.23279812,28.5979945 5.17120243,28.5979945 C4.11630612,28.5979945 3.26144512,29.4426906 3.26144512,30.4850435 C3.26144512,31.5273964 4.11630612,32.3720925 5.17120243,32.3720925 C7.39260894,32.3720925 9.53320408,31.7021364 11.3306227,30.4850435 Z" id="Fill-15" fill="#7BC32F"></path>
                        <path d="M76.7536536,11.784782 C77.7353485,12.754804 77.7353485,14.3274641 76.7536536,15.2974861 C75.772321,16.26715 74.1803734,16.26715 73.1990408,15.2974861 C72.2173458,14.3274641 72.2173458,12.754804 73.1990408,11.784782 C74.1803734,10.81476 75.772321,10.81476 76.7536536,11.784782" id="Fill-17" fill="#7BC32F"></path>
                        <path d="M83.5064032,13.5069738 C83.507128,13.4543369 83.5035041,13.4027743 83.5013298,13.3512117 L83.4969812,13.1979561 C83.497706,13.1711006 83.4933574,13.1463935 83.4897336,13.1166733 C83.2795516,8.78254795 79.6789162,5.38908245 75.2922725,5.38908245 L74.7769641,5.3897986 L74.064882,5.3897986 C73.1973376,5.3897986 72.492503,6.09054905 72.492503,6.94885197 C72.4917783,7.80966141 73.1980623,8.50897956 74.064882,8.50826341 L75.2926349,8.50826341 C78.0818952,8.50897956 80.3507739,10.7508797 80.3514986,13.5055415 L80.3656315,14.3677832 C80.3656315,15.2160601 81.0668423,15.9075006 81.9304004,15.9067845 C82.347503,15.9075006 82.7399636,15.7467255 83.0360303,15.4556115 C83.3306475,15.1662878 83.4948069,14.7795681 83.4933574,14.3684994 L83.5064032,13.5069738 Z" id="Fill-19" fill="#7BC32F"></path>
                        <g id="Group-23" transform="translate(72.114175, 0.000000)">
                            <mask id="mask-3" fill="white">
                                <use xlink:href="#path-2"></use>
                            </mask>
                            <g id="Clip-22"></g>
                            <path d="M16.6175702,14.328037 L16.6175702,13.5982826 C16.6175702,13.595418 16.6190197,13.5925534 16.6168454,13.5889727 L16.618295,13.0110416 C16.6175702,12.9104228 16.6056116,12.8119525 16.5853181,12.7167049 C16.1279911,5.76541803 10.3291416,0.235326108 3.21375554,0.0992580601 C3.18005394,0.0978257649 3.14925141,0.0888739196 3.11410028,0.0888739196 L1.78016922,0.0895900672 C0.989449972,0.0888739196 0.349119581,0.725887227 0.349119581,1.51221731 C0.349119581,2.29675703 0.988725207,2.93484456 1.78089399,2.93412841 L3.11337551,2.93484456 C3.12388461,2.93341227 3.1325818,2.93197997 3.14055422,2.93269612 C8.90642681,3.03116642 13.5760915,7.61057237 13.7398885,13.2910553 L13.7388013,14.3287532 C13.7388013,15.108996 14.3842051,15.7438609 15.1785482,15.7438609 C15.9728912,15.7424286 16.6175702,15.1082799 16.6175702,14.328037" id="Fill-21" fill="#7BC32F" mask="url(#mask-3)"></path>
                        </g>
                        <path d="M4.80544948,69.1082453 C2.95512295,69.1082453 1.44942245,67.6208067 1.44942245,65.7921237 L1.44942245,50.2237906 C1.44942245,48.3951077 2.95512295,46.9076691 4.80544948,46.9076691 L60.4235978,46.9076691 C62.2739244,46.9076691 63.7792625,48.3951077 63.7792625,50.2237906 L63.7792625,65.7921237 C63.7792625,67.6208067 62.2739244,69.1082453 60.4235978,69.1082453 L4.80544948,69.1082453 Z" id="Fill-24" fill="#FFFFFF"></path>
                        <path d="M60.4234529,45.4753739 L4.80530452,45.4753739 C2.15157534,45.4753739 0.000108714837,47.6012581 0.000108714837,50.2237906 L0.000108714837,65.7921237 C0.000108714837,68.4146563 2.15157534,70.5405405 4.80530452,70.5405405 L60.4234529,70.5405405 C63.0775445,70.5405405 65.2290111,68.4146563 65.2290111,65.7921237 L65.2290111,50.2237906 C65.2290111,47.6012581 63.0775445,45.4753739 60.4234529,45.4753739 M60.4234529,48.3399643 C61.4747254,48.3399643 62.3299488,49.1850185 62.3299488,50.2237906 L62.3299488,65.7921237 C62.3299488,66.8308959 61.4747254,67.6759501 60.4234529,67.6759501 L4.80530452,67.6759501 C3.75439443,67.6759501 2.89917104,66.8308959 2.89917104,65.7921237 L2.89917104,50.2237906 C2.89917104,49.1850185 3.75439443,48.3399643 4.80530452,48.3399643 L60.4234529,48.3399643" id="Fill-26" fill="#7BC32F"></path>
                    </g>
                    <text id="EC" font-family="Roboto-Black, Roboto" font-size="13.8996139" font-weight="700" fill="#4A90E2">
                        <tspan x="23.1081081" y="22.7297297">EC</tspan>
                    </text>
                </g>
            </g>
        </g>
    </g>
</svg>