<?xml version="1.0" encoding="UTF-8"?>
<svg width="66px" height="56px" viewBox="0 0 66 56" version="1.1" xmlns="http://www.w3.org/2000/svg" xmlns:xlink="http://www.w3.org/1999/xlink">
    <!-- Generator: Sketch 49 (51002) - http://www.bohemiancoding.com/sketch -->
    <title>Page 1 Copy 6</title>
    <desc>Created with Sketch.</desc>
    <defs>
        <filter x="-29.0%" y="-20.7%" width="162.0%" height="175.6%" filterUnits="objectBoundingBox" id="filter-1">
            <feOffset dx="1" dy="7" in="SourceAlpha" result="shadowOffsetOuter1"></feOffset>
            <feGaussianBlur stdDeviation="4" in="shadowOffsetOuter1" result="shadowBlurOuter1"></feGaussianBlur>
            <feColorMatrix values="0 0 0 0 0.26049149   0 0 0 0 0.324856505   0 0 0 0 0.26049149  0 0 0 0.364102129 0" type="matrix" in="shadowBlurOuter1" result="shadowMatrixOuter1"></feColorMatrix>
            <feMerge>
                <feMergeNode in="shadowMatrixOuter1"></feMergeNode>
                <feMergeNode in="SourceGraphic"></feMergeNode>
            </feMerge>
        </filter>
    </defs>
    <g id="Page-1" stroke="none" stroke-width="1" fill="none" fill-rule="evenodd">
        <g id="thuỷ-canh-copy" transform="translate(-1846.000000, -989.000000)">
            <g id="Page-1-Copy-6" filter="url(#filter-1)" transform="translate(1853.000000, 990.000000)">
                <polygon id="Fill-1" fill="#F5A623" points="44.2731278 24.6846487 44.2731278 30.965035 37.8854626 30.965035 37.8854626 32.9310689 46.2555066 32.9310689 46.2555066 31.4565435 46.2555066 30.965035 46.2555066 24.6846487"></polygon>
                <g id="Group-34" transform="translate(0.000000, 0.054612)">
                    <path d="M19.8237885,38.5646519 C9.40418502,38.5646519 0.92753304,30.1578906 0.92753304,19.8241977 C0.92753304,9.4905047 9.40418502,1.08374346 19.8237885,1.08374346 C30.2433921,1.08374346 38.7200441,9.4905047 38.7200441,19.8241977 C38.7200441,30.1578906 30.2433921,38.5646519 19.8237885,38.5646519" id="Fill-2" fill="#FFFFFF"></path>
                    <path d="M19.8237885,0.163836164 C8.8753304,0.163836164 0,8.96598868 0,19.8241758 C0,30.682363 8.8753304,39.4845155 19.8237885,39.4845155 C30.7722467,39.4845155 39.6475771,30.682363 39.6475771,19.8241758 C39.6475771,8.96598868 30.7722467,0.163836164 19.8237885,0.163836164 M19.8237885,2.00338861 C29.7317181,2.00338861 37.7927313,9.99793806 37.7927313,19.8241758 C37.7927313,29.6504136 29.7317181,37.644963 19.8237885,37.644963 C9.91585903,37.644963 1.85484581,29.6504136 1.85484581,19.8241758 C1.85484581,9.99793806 9.91585903,2.00338861 19.8237885,2.00338861" id="Fill-4" fill="#F5A623"></path>
                    <path d="M45.2432379,19.6434973 C45.7115198,19.6434973 46.1011674,19.2668926 46.1011674,18.8024717 L46.1011674,15.8591004 C46.1011674,15.3948979 45.7115198,15.0182932 45.2432379,15.0182932 C44.7749559,15.0182932 44.3850881,15.3948979 44.3850881,15.8591004 L44.3850881,18.8026901 C44.3853084,19.2668926 44.7749559,19.6434973 45.2432379,19.6434973" id="Fill-6" fill="#F5A623"></path>
                    <path d="M47.0763436,15.7457694 C46.9706167,15.7020798 46.8496916,15.7136575 46.7534361,15.7767891 C46.6580617,15.8399206 46.6005727,15.9463049 46.6005727,16.0601164 L46.6005727,17.1772606 C46.6005727,17.2995916 46.6668722,17.4123109 46.7730396,17.4730395 C47.6963877,17.9986259 48.2968282,18.976837 48.2968282,20.0941997 C48.2968282,21.7662023 46.9274449,23.1266978 45.2419824,23.1266978 C43.5560793,23.1266978 42.1891189,21.7662023 42.1891189,20.0941997 C42.1891189,18.9772739 42.8085022,17.9994997 43.7155507,17.4734764 C43.8210573,17.4125293 43.8860352,17.3000285 43.8860352,17.1790082 L43.8860352,16.059898 C43.8860352,15.9463049 43.8285463,15.8397022 43.7327313,15.7765706 C43.6371366,15.7132206 43.5162115,15.7018613 43.4098238,15.745551 C41.6864758,16.458566 40.4944053,18.1369036 40.4944053,20.0941997 C40.4944053,22.6981024 42.6206167,24.8083122 45.2459471,24.8083122 C47.870837,24.8083122 49.9937445,22.6981024 49.9937445,20.0941997 C49.9935242,18.1369036 48.8003524,16.458566 47.0763436,15.7457694" id="Fill-8" fill="#F5A623"></path>
                    <path d="M37.8854626,14.035298 C37.8854626,18.4719814 39.5204846,22.6312354 37.7588106,26.2137862 C34.1786344,33.49401 27.4874449,38.3922744 19.8237885,38.3922744 C12.0651982,38.3922744 5.30352423,33.3723343 1.75748899,25.9429104 C0.0773127753,22.4221805 1.76211454,18.3603543 1.76211454,14.035298" id="Fill-10" fill="#F5A623"></path>
                    <path d="M10.5726872,19.3872794 C10.5726872,21.076321 9.19207048,22.4455544 7.48898678,22.4455544 C5.78590308,22.4455544 4.40528634,21.076321 4.40528634,19.3872794 C4.40528634,17.6982378 5.78590308,16.3290043 7.48898678,16.3290043 C9.19207048,16.3290043 10.5726872,17.6982378 10.5726872,19.3872794" id="Fill-12" fill="#FFFFFF"></path>
                    <path d="M24.0088106,18.5134865 C24.0088106,20.2025281 22.6281938,21.5717616 20.9251101,21.5717616 C19.2220264,21.5717616 17.8414097,20.2025281 17.8414097,18.5134865 C17.8414097,16.8244449 19.2220264,15.4552115 20.9251101,15.4552115 C22.6281938,15.4552115 24.0088106,16.8244449 24.0088106,18.5134865" id="Fill-14" fill="#FFFFFF"></path>
                    <path d="M34.3612335,18.5134865 C34.3612335,20.2025281 32.9806167,21.5717616 31.277533,21.5717616 C29.5744493,21.5717616 28.1938326,20.2025281 28.1938326,18.5134865 C28.1938326,16.8244449 29.5744493,15.4552115 31.277533,15.4552115 C32.9806167,15.4552115 34.3612335,16.8244449 34.3612335,18.5134865" id="Fill-16" fill="#FFFFFF"></path>
                    <path d="M28.4140969,22.1178821 C28.4140969,23.1432781 27.5757709,23.974692 26.5418502,23.974692 C25.5079295,23.974692 24.6696035,23.1432781 24.6696035,22.1178821 C24.6696035,21.0924862 25.5079295,20.2610723 26.5418502,20.2610723 C27.5757709,20.2610723 28.4140969,21.0924862 28.4140969,22.1178821" id="Fill-18" fill="#FFFFFF"></path>
                    <path d="M18.722467,22.7732268 C18.722467,23.7986227 17.884141,24.6300366 16.8502203,24.6300366 C15.8162996,24.6300366 14.9779736,23.7986227 14.9779736,22.7732268 C14.9779736,21.7478308 15.8162996,20.9164169 16.8502203,20.9164169 C17.884141,20.9164169 18.722467,21.7478308 18.722467,22.7732268" id="Fill-20" fill="#FFFFFF"></path>
                    <path d="M14.9779736,18.6227106 C14.9779736,19.6481066 14.1396476,20.4795205 13.1057269,20.4795205 C12.0718062,20.4795205 11.2334802,19.6481066 11.2334802,18.6227106 C11.2334802,17.5973147 12.0718062,16.7659008 13.1057269,16.7659008 C14.1396476,16.7659008 14.9779736,17.5973147 14.9779736,18.6227106" id="Fill-22" fill="#FFFFFF"></path>
                    <path d="M28.6343612,26.04995 C28.6343612,27.075346 27.7960352,27.9067599 26.7621145,27.9067599 C25.7281938,27.9067599 24.8898678,27.075346 24.8898678,26.04995 C24.8898678,25.0245541 25.7281938,24.1931402 26.7621145,24.1931402 C27.7960352,24.1931402 28.6343612,25.0245541 28.6343612,26.04995" id="Fill-24" fill="#FFFFFF"></path>
                    <path d="M35.9030837,23.4285714 C35.9030837,24.4539674 35.0647577,25.2853813 34.030837,25.2853813 C32.9969163,25.2853813 32.1585903,24.4539674 32.1585903,23.4285714 C32.1585903,22.4031755 32.9969163,21.5717616 34.030837,21.5717616 C35.0647577,21.5717616 35.9030837,22.4031755 35.9030837,23.4285714" id="Fill-26" fill="#FFFFFF"></path>
                    <path d="M12.9955947,23.4285714 C12.9955947,24.4539674 12.1572687,25.2853813 11.123348,25.2853813 C10.0894273,25.2853813 9.25110132,24.4539674 9.25110132,23.4285714 C9.25110132,22.4031755 10.0894273,21.5717616 11.123348,21.5717616 C12.1572687,21.5717616 12.9955947,22.4031755 12.9955947,23.4285714" id="Fill-28" fill="#FFFFFF"></path>
                </g>
            </g>
        </g>
    </g>
</svg>