<?xml version="1.0" encoding="UTF-8"?>
<svg width="106px" height="91px" viewBox="0 0 106 91" version="1.1" xmlns="http://www.w3.org/2000/svg" xmlns:xlink="http://www.w3.org/1999/xlink">
    <!-- Generator: Sketch 49 (51002) - http://www.bohemiancoding.com/sketch -->
    <title>Page 1</title>
    <desc>Created with Sketch.</desc>
    <defs>
        <filter x="-16.1%" y="-11.3%" width="134.4%" height="141.3%" filterUnits="objectBoundingBox" id="filter-1">
            <feOffset dx="1" dy="7" in="SourceAlpha" result="shadowOffsetOuter1"></feOffset>
            <feGaussianBlur stdDeviation="4" in="shadowOffsetOuter1" result="shadowBlurOuter1"></feGaussianBlur>
            <feColorMatrix values="0 0 0 0 0.26049149   0 0 0 0 0.324856505   0 0 0 0 0.26049149  0 0 0 0.364102129 0" type="matrix" in="shadowBlurOuter1" result="shadowMatrixOuter1"></feColorMatrix>
            <feMerge>
                <feMergeNode in="shadowMatrixOuter1"></feMergeNode>
                <feMergeNode in="SourceGraphic"></feMergeNode>
            </feMerge>
        </filter>
    </defs>
    <g id="Page-1" stroke="none" stroke-width="1" fill="none" fill-rule="evenodd">
        <g id="Giá-thể-Copy" transform="translate(-58.000000, -218.000000)">
            <g id="Group" transform="translate(20.000000, 118.000000)">
                <g id="Page-1" filter="url(#filter-1)" transform="translate(45.000000, 101.000000)">
                    <path d="M84.3537123,47.2696311 C81.7252192,47.2696311 79.587,45.1372541 79.587,42.5159426 L79.587,19.7790574 C79.587,17.1577459 81.7252192,15.0253689 84.3537123,15.0253689 C86.9822055,15.0253689 89.1208356,17.1577459 89.1208356,19.7790574 L89.1208356,42.5159426 C89.1208356,45.1372541 86.9822055,47.2696311 84.3537123,47.2696311" id="Fill-1" fill="#FFFFFF"></path>
                    <path d="M84.3537123,14.3442623 C81.3438493,14.3442623 78.9039863,16.777459 78.9039863,19.7790984 L78.9039863,42.5159836 C78.9039863,45.517623 81.3438493,47.9508197 84.3537123,47.9508197 C87.3635753,47.9508197 89.8034384,45.517623 89.8034384,42.5159836 L89.8034384,19.7790984 C89.8034384,16.777459 87.3635753,14.3442623 84.3537123,14.3442623 M84.3537123,15.7061475 C86.6053562,15.7061475 88.4378219,17.5331967 88.4378219,19.7790984 L88.4378219,42.5159836 C88.4378219,44.7618852 86.6053562,46.5889344 84.3537123,46.5889344 C82.1020685,46.5889344 80.2700137,44.7618852 80.2700137,42.5159836 L80.2700137,19.7790984 C80.2700137,17.5331967 82.1020685,15.7061475 84.3537123,15.7061475" id="Fill-3" fill="#7BC32F"></path>
                    <path d="M84.3537123,47.9508197 C81.3438493,47.9508197 78.9039863,45.517623 78.9039863,42.5159836 L78.9039863,29.6106557 C78.9039863,29.5540984 78.9500137,29.5081967 79.006726,29.5081967 L89.8034384,29.5081967 L89.8034384,42.5159836 C89.8034384,45.517623 87.3635753,47.9508197 84.3537123,47.9508197" id="Fill-5" fill="#7BC32F"></path>
                    <polygon id="Fill-7" fill="#7BC32F" points="82.6027397 46.7213115 82.6027397 58.5040984 70.6849315 58.5040984 70.6849315 62.192623 86.3013699 62.192623 86.3013699 59.4262295 86.3013699 58.5040984 86.3013699 46.7213115"></polygon>
                    <path d="M36.9863014,72.0447131 C17.5458904,72.0447131 1.73013699,56.272582 1.73013699,36.8852869 C1.73013699,17.4979918 17.5458904,1.72586066 36.9863014,1.72586066 C56.4267123,1.72586066 72.2424658,17.4979918 72.2424658,36.8852869 C72.2424658,56.272582 56.4267123,72.0447131 36.9863014,72.0447131" id="Fill-9" fill="#FFFFFF"></path>
                    <path d="M36.9863014,0 C16.5591781,0 0,16.5139344 0,36.8852459 C0,57.2565574 16.5591781,73.7704918 36.9863014,73.7704918 C57.4134247,73.7704918 73.9726027,57.2565574 73.9726027,36.8852459 C73.9726027,16.5139344 57.4134247,0 36.9863014,0 M36.9863014,3.45122951 C55.4724658,3.45122951 70.5119178,18.45 70.5119178,36.8852459 C70.5119178,55.3204918 55.4724658,70.3192623 36.9863014,70.3192623 C18.500137,70.3192623 3.46068493,55.3204918 3.46068493,36.8852459 C3.46068493,18.45 18.500137,3.45122951 36.9863014,3.45122951" id="Fill-11" fill="#7BC32F"></path>
                    <path d="M5.44960274,73.0532787 C3.35124658,73.0532787 1.64371233,71.3508197 1.64371233,69.2577869 L1.64371233,51.4389344 C1.64371233,49.3459016 3.35124658,47.6434426 5.44960274,47.6434426 L68.5231644,47.6434426 C70.6215205,47.6434426 72.3286438,49.3459016 72.3286438,51.4389344 L72.3286438,69.2577869 C72.3286438,71.3508197 70.6215205,73.0532787 68.5231644,73.0532787 L5.44960274,73.0532787 Z" id="Fill-13" fill="#FFFFFF"></path>
                    <path d="M68.523,46.0040984 L5.44943836,46.0040984 C2.4399863,46.0040984 0.000123287671,48.4372951 0.000123287671,51.4389344 L0.000123287671,69.2577869 C0.000123287671,72.2594262 2.4399863,74.692623 5.44943836,74.692623 L68.523,74.692623 C71.532863,74.692623 73.972726,72.2594262 73.972726,69.2577869 L73.972726,51.4389344 C73.972726,48.4372951 71.532863,46.0040984 68.523,46.0040984 M68.523,49.2827869 C69.7151918,49.2827869 70.6850548,50.25 70.6850548,51.4389344 L70.6850548,69.2577869 C70.6850548,70.4467213 69.7151918,71.4139344 68.523,71.4139344 L5.44943836,71.4139344 C4.25765753,71.4139344 3.28779452,70.4467213 3.28779452,69.2577869 L3.28779452,51.4389344 C3.28779452,50.25 4.25765753,49.2827869 5.44943836,49.2827869 L68.523,49.2827869" id="Fill-15" fill="#7BC32F"></path>
                    <path d="M40.707411,35.8814754 C43.9391918,38.0929508 39.3311096,46.6068852 39.3311096,46.6068852 C39.3311096,46.6068852 36.9306986,42.0802459 33.5822055,40.0490984 C30.2341233,38.017541 19.977,34.8646721 19.977,34.8646721 C19.977,34.8646721 34.5985068,31.7011475 40.707411,35.8814754" id="Fill-17" fill="#7BC32F"></path>
                    <path d="M40.9303562,34.1952869 C38.4929589,36.444877 39.1513151,44.4473361 39.1513151,44.4473361 C39.1513151,44.4473361 40.7967945,40.6096311 43.3369315,38.4735656 C45.8774795,36.3379098 53.8340548,32.1010246 53.8340548,32.1010246 C53.8340548,32.1010246 45.5376164,29.942418 40.9303562,34.1952869" id="Fill-19" fill="#7BC32F"></path>
                    <path d="M36.1866575,23.8841393 C36.1061096,23.5279918 35.7473425,23.2939754 35.3811781,23.3771721 C34.1035068,23.6656967 33.2109041,24.780041 33.2109041,26.087418 C33.2109041,26.4575 33.5129589,26.7591393 33.8840548,26.7591393 C34.2551507,26.7591393 34.5576164,26.4575 34.5576164,26.087418 C34.5576164,25.4230738 35.0285753,24.8333197 35.6783014,24.687418 C36.0395342,24.6046311 36.2680274,24.2443852 36.1866575,23.8841393 Z M39.3909041,26.125123 C39.3909041,27.9784016 37.8785753,29.4865984 36.0193973,29.4865984 C34.1606301,29.4865984 32.6487123,27.9784016 32.6487123,26.125123 C32.6487123,24.6058607 33.6781644,23.2714344 35.151863,22.8804508 L35.3458356,22.8292213 L35.3458356,16.4083197 L36.6937808,16.4083197 L36.6937808,22.8288115 L36.8877534,22.8808607 C38.361863,23.2714344 39.3909041,24.6062705 39.3909041,26.125123 Z M40.2604932,26.125123 C40.2604932,24.5267623 39.3699452,23.0825 37.9361096,22.3562705 L37.6509041,22.2115984 L37.6509041,9.63536885 C37.6509041,8.7382377 36.9189863,8.00872951 36.0193973,8.00872951 C35.1202192,8.00872951 34.3883014,8.7382377 34.3883014,9.63536885 L34.3883014,22.2115984 L34.1030959,22.3562705 C32.6688493,23.0829098 31.7783014,24.5271721 31.7783014,26.125123 C31.7783014,28.4570902 33.6810411,30.3542213 36.0193973,30.3542213 C38.3577534,30.3542213 40.2604932,28.4570902 40.2604932,26.125123 Z M41.3043288,26.125123 C41.3043288,29.0312705 38.9339178,31.3956148 36.0193973,31.3956148 C33.1052877,31.3956148 30.7344658,29.0312705 30.7344658,26.125123 C30.7344658,24.2415164 31.7261096,22.530041 33.3444658,21.5833197 L33.3444658,9.63495902 C33.3444658,8.16405738 34.5444658,6.96733607 36.0193973,6.96733607 C37.4947397,6.96733607 38.6947397,8.16405738 38.6947397,9.63495902 L38.6947397,21.5837295 C40.3126849,22.5292213 41.3043288,24.2411066 41.3043288,26.125123 Z M40.6739178,20.1927459 L44.7189863,20.1927459 L44.7189863,19.1517623 L40.6739178,19.1517623 L40.6739178,20.1927459 Z M40.6739178,17.9238934 L43.0225479,17.9238934 L43.0225479,16.8829098 L40.6739178,16.8829098 L40.6739178,17.9238934 Z M40.6739178,15.6546311 L44.7189863,15.6546311 L44.7189863,14.6132377 L40.6739178,14.6132377 L40.6739178,15.6546311 Z M40.6739178,13.3853689 L43.0225479,13.3853689 L43.0225479,12.3443852 L40.6739178,12.3443852 L40.6739178,13.3853689 Z M40.6739178,11.1165164 L44.7189863,11.1165164 L44.7189863,10.0755328 L40.6739178,10.0755328 L40.6739178,11.1165164 Z" id="Fill-21" fill="#7BC32F"></path>
                </g>
            </g>
        </g>
    </g>
</svg>