<?xml version="1.0" encoding="UTF-8"?>
<svg width="69px" height="60px" viewBox="0 0 69 60" version="1.1" xmlns="http://www.w3.org/2000/svg" xmlns:xlink="http://www.w3.org/1999/xlink">
    <!-- Generator: Sketch 49 (51002) - http://www.bohemiancoding.com/sketch -->
    <title>Page 1 Copy 17</title>
    <desc>Created with Sketch.</desc>
    <defs>
        <filter x="-27.4%" y="-18.9%" width="158.5%" height="168.9%" filterUnits="objectBoundingBox" id="filter-1">
            <feOffset dx="1" dy="7" in="SourceAlpha" result="shadowOffsetOuter1"></feOffset>
            <feGaussianBlur stdDeviation="4" in="shadowOffsetOuter1" result="shadowBlurOuter1"></feGaussianBlur>
            <feColorMatrix values="0 0 0 0 0.26049149   0 0 0 0 0.324856505   0 0 0 0 0.26049149  0 0 0 0.364102129 0" type="matrix" in="shadowBlurOuter1" result="shadowMatrixOuter1"></feColorMatrix>
            <feMerge>
                <feMergeNode in="shadowMatrixOuter1"></feMergeNode>
                <feMergeNode in="SourceGraphic"></feMergeNode>
            </feMerge>
        </filter>
    </defs>
    <g id="Page-1" stroke="none" stroke-width="1" fill="none" fill-rule="evenodd">
        <g id="thuỷ-canh-copy" transform="translate(-444.000000, -201.000000)">
            <g id="Page-1-Copy-17" filter="url(#filter-1)" transform="translate(451.000000, 202.000000)">
                <g id="Group-19">
                    <path d="M49.6900777,27.6747342 C48.1492232,27.6747342 46.8957732,26.4343668 46.8957732,24.9095946 L46.8957732,11.6839363 C46.8957732,10.1591641 48.1492232,8.91879676 49.6900777,8.91879676 C51.2309323,8.91879676 52.4846232,10.1591641 52.4846232,11.6839363 L52.4846232,24.9095946 C52.4846232,26.4343668 51.2309323,27.6747342 49.6900777,27.6747342" id="Fill-1" fill="#FFFFFF"></path>
                    <path d="M49.6900777,8.5226087 C47.9256595,8.5226087 46.4953823,9.93795773 46.4953823,11.6839601 L46.4953823,24.9096185 C46.4953823,26.6556209 47.9256595,28.0709699 49.6900777,28.0709699 C51.4544959,28.0709699 52.8847732,26.6556209 52.8847732,24.9096185 L52.8847732,11.6839601 C52.8847732,9.93795773 51.4544959,8.5226087 49.6900777,8.5226087 M49.6900777,9.31479411 C51.0100186,9.31479411 52.0842323,10.3775575 52.0842323,11.6839601 L52.0842323,24.9096185 C52.0842323,26.2160211 51.0100186,27.2787845 49.6900777,27.2787845 C48.3701368,27.2787845 47.2961641,26.2160211 47.2961641,24.9096185 L47.2961641,11.6839601 C47.2961641,10.3775575 48.3701368,9.31479411 49.6900777,9.31479411" id="Fill-3" fill="#7BC32F"></path>
                    <path d="M49.6900777,28.0709699 C47.9256595,28.0709699 46.4953823,26.6556209 46.4953823,24.9096185 L46.4953823,17.4028094 C46.4953823,17.3699109 46.5223641,17.3432107 46.5556095,17.3432107 L52.8847732,17.3432107 L52.8847732,24.9096185 C52.8847732,26.6556209 51.4544959,28.0709699 49.6900777,28.0709699" id="Fill-5" fill="#7BC32F"></path>
                    <polygon id="Fill-7" fill="#7BC32F" points="48.6636364 27.355786 48.6636364 34.2096321 41.6772727 34.2096321 41.6772727 36.3551839 50.8318182 36.3551839 50.8318182 34.7460201 50.8318182 34.2096321 50.8318182 27.355786"></polygon>
                    <path d="M21.6818182,42.0859767 C10.2856136,42.0859767 1.01422727,32.9115971 1.01422727,21.6343382 C1.01422727,10.3570794 10.2856136,1.18269969 21.6818182,1.18269969 C33.0780227,1.18269969 42.3494091,10.3570794 42.3494091,21.6343382 C42.3494091,32.9115971 33.0780227,42.0859767 21.6818182,42.0859767" id="Fill-9" fill="#FFFFFF"></path>
                    <path d="M21.6818182,0.178795987 C9.70719091,0.178795987 0,9.78466997 0,21.6343144 C0,33.4839588 9.70719091,43.0898328 21.6818182,43.0898328 C33.6564455,43.0898328 43.3636364,33.4839588 43.3636364,21.6343144 C43.3636364,9.78466997 33.6564455,0.178795987 21.6818182,0.178795987 M21.6818182,2.18631732 C32.5186318,2.18631732 41.3349409,10.9108463 41.3349409,21.6343144 C41.3349409,32.3577825 32.5186318,41.0823114 21.6818182,41.0823114 C10.8450045,41.0823114 2.02869545,32.3577825 2.02869545,21.6343144 C2.02869545,10.9108463 10.8450045,2.18631732 21.6818182,2.18631732" id="Fill-11" fill="#7BC32F"></path>
                    <path d="M10.0955771,17.7535356 C10.0533641,17.5678801 9.86461831,17.4456036 9.67215264,17.4891366 C9.00062535,17.6394215 8.53142962,18.220715 8.53142962,18.9026786 C8.53142962,19.0956962 8.69041597,19.2528631 8.88546942,19.2528631 C9.08052286,19.2528631 9.23934748,19.0958562 9.23934748,18.9026786 C9.23934748,18.5560151 9.48680334,18.2487234 9.82838948,18.1723806 C10.0181056,18.1293277 10.1384371,17.9414316 10.0955771,17.7535356 Z M11.7798944,18.9222044 C11.7798944,19.889053 10.9849626,20.6755277 10.0077545,20.6755277 C9.03086996,20.6755277 8.23593821,19.889053 8.23593821,18.9222044 C8.23593821,18.1298079 8.77710639,17.4339202 9.55182116,17.2300193 L9.65355301,17.2032913 L9.65355301,13.8544517 L10.3621178,13.8544517 L10.3621178,17.2029712 L10.4640114,17.2300193 C11.2390496,17.4339202 11.7798944,18.130128 11.7798944,18.9222044 Z M12.2367982,18.9222044 C12.2367982,18.0888356 11.7688963,17.3354908 11.0152072,16.9566577 L10.8651163,16.8812752 L10.8651163,10.3220373 C10.8651163,9.85405765 10.4805085,9.47378415 10.0077545,9.47378415 C9.53516237,9.47378415 9.15039276,9.85405765 9.15039276,10.3220373 L9.15039276,16.8812752 L9.00046361,16.9566577 C8.24677451,17.3356508 7.77871093,18.0891557 7.77871093,18.9222044 C7.77871093,20.1384074 8.77872375,21.1279828 10.0077545,21.1279828 C11.2369471,21.1279828 12.2367982,20.1384074 12.2367982,18.9222044 Z M12.7855679,18.9222044 C12.7855679,20.4378568 11.5393931,21.6711849 10.0077545,21.6711849 C8.47611596,21.6711849 7.22994116,20.4378568 7.22994116,18.9222044 C7.22994116,17.9399912 7.75121584,17.0474048 8.60178472,16.5534974 L8.60178472,10.3217172 C8.60178472,9.55444822 9.23255457,8.93042196 10.0077545,8.93042196 C10.7831163,8.93042196 11.4138861,9.55444822 11.4138861,10.3217172 L11.4138861,16.5534974 C12.2642933,17.0467646 12.7855679,17.9396711 12.7855679,18.9222044 Z M12.4541712,15.828481 L14.5803508,15.828481 L14.5803508,15.2854389 L12.4541712,15.2854389 L12.4541712,15.828481 Z M12.4541712,14.6450877 L13.688701,14.6450877 L13.688701,14.1020456 L12.4541712,14.1020456 L12.4541712,14.6450877 Z M12.4541712,13.4613744 L14.5803508,13.4613744 L14.5803508,12.9183323 L12.4541712,12.9183323 L12.4541712,13.4613744 Z M12.4541712,12.2779812 L13.688701,12.2779812 L13.688701,11.7349391 L12.4541712,11.7349391 L12.4541712,12.2779812 Z M12.4541712,11.0945879 L14.5803508,11.0945879 L14.5803508,10.5515458 L12.4541712,10.5515458 L12.4541712,11.0945879 Z" id="Fill-13" fill="#7BC32F"></path>
                    <path d="M40.8524973,19.0099137 C39.9192281,19.0099137 39.033521,18.6048626 38.4223704,17.8987172 C38.2580501,17.7091863 38.0191256,17.6001585 37.7676344,17.6001585 C37.5163023,17.6001585 37.2773777,17.7090278 37.1132165,17.8987172 C36.5020659,18.6048626 35.6163589,19.0097552 34.6830896,19.0097552 C33.7499794,19.0097552 32.8642724,18.6048626 32.2529627,17.8987172 C32.0888015,17.7090278 31.8498769,17.6 31.5983857,17.6 C31.3470536,17.6 31.1081291,17.7090278 30.9438088,17.8987172 C30.3328172,18.6047041 29.4471102,19.0097552 28.5138409,19.0097552 C27.5805717,19.0097552 26.6950237,18.6047041 26.083714,17.8987172 C25.9195528,17.7090278 25.6806282,17.6 25.4292961,17.6 C25.177805,17.6 24.9388804,17.7090278 24.7747192,17.8987172 C24.1635686,18.6048626 23.2778615,19.0097552 22.3444332,19.0097552 C21.411323,19.0097552 20.525775,18.6048626 19.9144653,17.8987172 C19.7503041,17.7090278 19.5113796,17.6001585 19.2600475,17.6001585 C19.0085563,17.6001585 18.7696317,17.7090278 18.6054705,17.8987172 C17.9943199,18.6050211 17.1084538,19.0099137 16.1753436,19.0099137 C15.6979717,19.0099137 15.3111111,19.3954728 15.3111111,19.8710434 C15.3111111,20.3466139 15.6979717,20.7320146 16.1753436,20.7320146 C17.1808311,20.7320146 18.1495732,20.4263246 18.9632211,19.8710434 C19.0643902,19.8017917 19.1638095,19.7293706 19.2600475,19.6525123 C19.3562854,19.7293706 19.4555457,19.8017917 19.5570329,19.8710434 C20.3703627,20.4263246 21.3394229,20.7320146 22.3445923,20.7320146 C23.3499207,20.7320146 24.3189809,20.4263246 25.1324697,19.8710434 C25.2336389,19.8017917 25.3330582,19.7293706 25.4292961,19.6525123 C25.5255341,19.7293706 25.6249534,19.8017917 25.7262816,19.8710434 C26.5396114,20.4263246 27.5086716,20.7320146 28.514,20.7320146 C29.5191693,20.7320146 30.4882296,20.4263246 31.3015593,19.8710434 C31.4028875,19.8017917 31.5023069,19.7293706 31.5985448,19.6525123 C31.6947827,19.7293706 31.7942021,19.8017917 31.8953712,19.8710434 C32.70886,20.4263246 33.6777612,20.7320146 34.6832487,20.7320146 C35.6885771,20.7320146 36.6574782,20.4263246 37.470808,19.8710434 C37.5722953,19.8017917 37.6715555,19.7293706 37.7677935,19.6525123 C37.8640314,19.7293706 37.9634507,19.8017917 38.0647789,19.8710434 C38.8781087,20.4263246 39.8471689,20.7320146 40.8524973,20.7320146 C41.3298693,20.7320146 41.7168889,20.3466139 41.7168889,19.8710434 C41.7168889,19.3954728 41.3298693,19.0099137 40.8524973,19.0099137" id="Fill-6" fill="#7BC32F"></path>
                    <path d="M27.8016507,25.4253084 C27.7988108,25.4253347 27.7959678,25.4253479 27.7931215,25.4253479 C26.7687005,25.4253479 25.7812363,25.119658 24.9524602,24.5643767 C24.8542367,24.498498 24.7577734,24.4297511 24.6641867,24.3570446 C24.5706004,24.4297511 24.4741446,24.498498 24.3760753,24.5643767 C23.5471371,25.119658 22.559673,25.4253479 21.5352519,25.4253479 C21.5304934,25.4253479 21.5257356,25.4253413 21.5209786,25.4253281 C21.5162261,25.4253413 21.5114683,25.4253479 21.5067097,25.4253479 C20.4821266,25.4253479 19.4948245,25.119658 18.6658863,24.5643767 C18.567817,24.498498 18.4713613,24.4297511 18.3777749,24.3570446 C18.2841886,24.4297511 18.1877328,24.498498 18.0896635,24.5643767 C17.2605632,25.119658 16.2734233,25.4253479 15.2488401,25.4253479 C15.2460097,25.4253479 15.2431823,25.4253349 15.2403582,25.4253088 C15.233673,25.4253349 15.2269862,25.4253479 15.2202979,25.4253479 C14.1958768,25.4253479 13.2084127,25.119658 12.3796366,24.5643767 C12.276384,24.495125 12.1750766,24.4227039 12.077011,24.3458456 C11.9789453,24.4227039 11.8776379,24.495125 11.7745474,24.5643767 C10.9456092,25.119658 9.95814508,25.4253479 8.933724,25.4253479 C7.90946502,25.4253479 6.9220009,25.119658 6.0932248,24.5643767 C5.98981014,24.495125 5.88866477,24.4227039 5.79059914,24.3458456 C5.69253352,24.4227039 5.59122605,24.495125 5.48813558,24.5643767 C4.65903529,25.119658 3.67189536,25.4253479 2.64731219,25.4253479 C2.16087427,25.4253479 1.76666667,25.0399472 1.76666667,24.5643767 C1.76666667,24.0888062 2.16087427,23.703247 2.64731219,23.703247 C3.59814353,23.703247 4.50083356,23.2983544 5.1235908,22.5920506 C5.29086968,22.4023612 5.53433178,22.2934918 5.79059914,22.2934918 C6.04670441,22.2934918 6.29016651,22.4023612 6.4574454,22.5920506 C7.08036473,23.2981959 7.98273058,23.7030885 8.93356191,23.7030885 C9.88471743,23.7030885 10.7872454,23.2981959 11.4100026,22.5920506 C11.5772815,22.4023612 11.8207436,22.2933333 12.077011,22.2933333 C12.3331162,22.2933333 12.5765783,22.4023612 12.7438572,22.5920506 C13.3667765,23.2980375 14.2691424,23.7030885 15.2201358,23.7030885 C16.1711292,23.7030885 17.0736572,23.2980375 17.6962523,22.5920506 C17.8636933,22.4023612 18.1071554,22.2933333 18.3632607,22.2933333 C18.369732,22.2933333 18.3761952,22.2934029 18.3826492,22.2935415 C18.3858065,22.2935084 18.3889658,22.2934918 18.3921271,22.2934918 C18.6482323,22.2934918 18.8916944,22.4023612 19.0589733,22.5920506 C19.6787756,23.2946625 20.5752348,23.6990289 21.5208199,23.7030581 C22.4665663,23.6990289 23.3631852,23.2946625 23.9828262,22.5920506 C24.1501051,22.4023612 24.3935672,22.2934918 24.6496725,22.2934918 C24.652833,22.2934918 24.6559916,22.2935084 24.6591481,22.2935415 C24.6656028,22.2934029 24.6720668,22.2933333 24.6785389,22.2933333 C24.9346441,22.2933333 25.1781062,22.4023612 25.3453851,22.5920506 C25.9683045,23.2980375 26.8706703,23.7030885 27.8216637,23.7030885 C28.7726572,23.7030885 29.6751851,23.2980375 30.2977803,22.5920506 C30.4652212,22.4023612 30.7086833,22.2933333 30.9647886,22.2933333 C31.221056,22.2933333 31.4645181,22.4023612 31.6317969,22.5920506 C32.2547163,23.2981959 33.1572442,23.7030885 34.1080756,23.7030885 C35.059069,23.7030885 35.9615969,23.2981959 36.5843542,22.5920506 C36.751633,22.4023612 36.9950951,22.2934918 37.2512004,22.2934918 C37.5074678,22.2934918 37.7509299,22.4025196 37.9183708,22.5920506 C38.5411281,23.2981959 39.443656,23.703247 40.3946495,23.703247 C40.8810874,23.703247 41.2754571,24.0888062 41.2754571,24.5643767 C41.2754571,25.0399472 40.8810874,25.4253479 40.3946495,25.4253479 C39.3702284,25.4253479 38.3827643,25.119658 37.5539882,24.5643767 C37.4507356,24.495125 37.3494281,24.4227039 37.2513625,24.3458456 C37.1532969,24.4227039 37.0521515,24.495125 36.9487368,24.5643767 C36.1199607,25.119658 35.1326587,25.4253479 34.1082376,25.4253479 C33.0836545,25.4253479 32.0963525,25.119658 31.2674143,24.5643767 C31.1643238,24.495125 31.0630163,24.4227039 30.9649507,24.3458456 C30.8668851,24.4227039 30.7655776,24.495125 30.662325,24.5643767 C29.8335489,25.119658 28.8460848,25.4253479 27.8218258,25.4253479 C27.8150992,25.4253479 27.8083741,25.4253347 27.8016507,25.4253084 Z" id="Combined-Shape" fill="#7BC32F"></path>
                    <path d="M3.43553227,42.6726421 C2.20545045,42.6726421 1.20447318,41.6823508 1.20447318,40.4648693 L1.20447318,30.0999468 C1.20447318,28.8824653 2.20545045,27.8921739 3.43553227,27.8921739 L40.4100186,27.8921739 C41.6401005,27.8921739 42.6408368,28.8824653 42.6408368,30.0999468 L42.6408368,40.4648693 C42.6408368,41.6823508 41.6401005,42.6726421 40.4100186,42.6726421 L3.43553227,42.6726421 Z" id="Fill-15" fill="#FFFFFF"></path>
                    <path d="M40.4099223,26.9385953 L3.43543591,26.9385953 C1.67125864,26.9385953 0.240981364,28.3539443 0.240981364,30.0999468 L0.240981364,40.4648693 C0.240981364,42.2108717 1.67125864,43.6262207 3.43543591,43.6262207 L40.4099223,43.6262207 C42.1743405,43.6262207 43.6046177,42.2108717 43.6046177,40.4648693 L43.6046177,30.0999468 C43.6046177,28.3539443 42.1743405,26.9385953 40.4099223,26.9385953 M40.4099223,28.8457525 C41.1087995,28.8457525 41.677345,29.4083639 41.677345,30.0999468 L41.677345,40.4648693 C41.677345,41.1564522 41.1087995,41.7190635 40.4099223,41.7190635 L3.43543591,41.7190635 C2.73679955,41.7190635 2.16825409,41.1564522 2.16825409,40.4648693 L2.16825409,30.0999468 C2.16825409,29.4083639 2.73679955,28.8457525 3.43543591,28.8457525 L40.4099223,28.8457525" id="Fill-17" fill="#7BC32F"></path>
                </g>
            </g>
        </g>
    </g>
</svg>