<?xml version="1.0" encoding="UTF-8"?>
<svg width="96px" height="83px" viewBox="0 0 96 83" version="1.1" xmlns="http://www.w3.org/2000/svg" xmlns:xlink="http://www.w3.org/1999/xlink">
    <!-- Generator: Sketch 49 (51002) - http://www.bohemiancoding.com/sketch -->
    <title>Page 1</title>
    <desc>Created with Sketch.</desc>
    <defs>
        <filter x="-18.1%" y="-12.7%" width="138.8%" height="147.8%" filterUnits="objectBoundingBox" id="filter-1">
            <feOffset dx="1" dy="7" in="SourceAlpha" result="shadowOffsetOuter1"></feOffset>
            <feGaussianBlur stdDeviation="4" in="shadowOffsetOuter1" result="shadowBlurOuter1"></feGaussianBlur>
            <feColorMatrix values="0 0 0 0 0.26049149   0 0 0 0 0.324856505   0 0 0 0 0.26049149  0 0 0 0.364102129 0" type="matrix" in="shadowBlurOuter1" result="shadowMatrixOuter1"></feColorMatrix>
            <feMerge>
                <feMergeNode in="shadowMatrixOuter1"></feMergeNode>
                <feMergeNode in="SourceGraphic"></feMergeNode>
            </feMerge>
        </filter>
    </defs>
    <g id="Page-1" stroke="none" stroke-width="1" fill="none" fill-rule="evenodd">
        <g id="Giá-thể-Copy" transform="translate(-565.000000, -501.000000)">
            <g id="Group" transform="translate(20.000000, 118.000000)">
                <g id="Page-1" filter="url(#filter-1)" transform="translate(552.000000, 384.000000)">
                    <g id="Group-21" transform="translate(0.000000, 0.091324)">
                        <path d="M74.9810776,42.4065388 C72.6446393,42.4065388 70.744,40.5058995 70.744,38.1694612 L70.744,17.9035251 C70.744,15.5670868 72.6446393,13.6664475 74.9810776,13.6664475 C77.317516,13.6664475 79.2185205,15.5670868 79.2185205,17.9035251 L79.2185205,38.1694612 C79.2185205,40.5058995 77.317516,42.4065388 74.9810776,42.4065388" id="Fill-1" fill="#FFFFFF"></path>
                        <path d="M74.9810776,13.0593607 C72.3056438,13.0593607 70.1368767,15.2281279 70.1368767,17.9035616 L70.1368767,38.1694977 C70.1368767,40.8449315 72.3056438,43.0136986 74.9810776,43.0136986 C77.6565114,43.0136986 79.8252785,40.8449315 79.8252785,38.1694977 L79.8252785,17.9035616 C79.8252785,15.2281279 77.6565114,13.0593607 74.9810776,13.0593607 M74.9810776,14.2736073 C76.9825388,14.2736073 78.6113973,15.9017352 78.6113973,17.9035616 L78.6113973,38.1694977 C78.6113973,40.1713242 76.9825388,41.7998174 74.9810776,41.7998174 C72.9796164,41.7998174 71.3511233,40.1713242 71.3511233,38.1694977 L71.3511233,17.9035616 C71.3511233,15.9017352 72.9796164,14.2736073 74.9810776,14.2736073" id="Fill-3" fill="#7BC32F"></path>
                        <path d="M74.9810776,43.0136986 C72.3056438,43.0136986 70.1368767,40.8449315 70.1368767,38.1694977 L70.1368767,26.6666667 C70.1368767,26.6162557 70.17779,26.5753425 70.2282009,26.5753425 L79.8252785,26.5753425 L79.8252785,38.1694977 C79.8252785,40.8449315 77.6565114,43.0136986 74.9810776,43.0136986" id="Fill-5" fill="#7BC32F"></path>
                        <polygon id="Fill-7" fill="#7BC32F" points="73.4246575 41.9178082 73.4246575 52.4200913 62.8310502 52.4200913 62.8310502 55.7077626 76.7123288 55.7077626 76.7123288 53.2420091 76.7123288 52.4200913 76.7123288 41.9178082"></polygon>
                        <path d="M33.2420091,64.4891689 C15.9616438,64.4891689 1.90319635,50.4310868 1.90319635,33.1507215 C1.90319635,15.8703562 15.9616438,1.81190868 33.2420091,1.81190868 C50.5223744,1.81190868 64.5808219,15.8703562 64.5808219,33.1507215 C64.5808219,50.4310868 50.5223744,64.4891689 33.2420091,64.4891689" id="Fill-9" fill="#FFFFFF"></path>
                        <path d="M33.2420091,0.273972603 C15.0845662,0.273972603 0.365296804,14.993242 0.365296804,33.1506849 C0.365296804,51.3081279 15.0845662,66.0273973 33.2420091,66.0273973 C51.3994521,66.0273973 66.1187215,51.3081279 66.1187215,33.1506849 C66.1187215,14.993242 51.3994521,0.273972603 33.2420091,0.273972603 M33.2420091,3.35013699 C49.6741553,3.35013699 63.0425571,16.7185388 63.0425571,33.1506849 C63.0425571,49.5824658 49.6741553,62.9512329 33.2420091,62.9512329 C16.809863,62.9512329 3.44146119,49.5824658 3.44146119,33.1506849 C3.44146119,16.7185388 16.809863,3.35013699 33.2420091,3.35013699" id="Fill-11" fill="#7BC32F"></path>
                        <path d="M62.2713425,34.2897534 C60.08979,34.2897534 58.0189224,33.3392511 56.5898813,31.6822648 C56.2059543,31.2373333 55.6474155,30.980895 55.059653,30.980895 C54.4715251,30.980895 53.9129863,31.236968 53.5290594,31.6822648 C52.1003836,33.3392511 50.0298813,34.2897534 47.8479635,34.2897534 C45.6660457,34.2897534 43.5955434,33.3392511 42.1665023,31.6818995 C41.7825753,31.236968 41.2236712,30.980895 40.6359087,30.980895 C40.0485114,30.980895 39.4896073,31.236968 39.1056804,31.6818995 C37.6770046,33.3388858 35.606137,34.2893881 33.4245845,34.2893881 C31.2426667,34.2893881 29.1721644,33.3388858 27.7431233,31.6818995 C27.3591963,31.236968 26.8006575,30.980895 26.212895,30.980895 C25.6251324,30.980895 25.0662283,31.236968 24.6826667,31.6818995 C23.2536256,33.3392511 21.1831233,34.2897534 19.0008402,34.2897534 C16.8192877,34.2897534 14.7484201,33.3392511 13.3197443,31.6822648 C12.9358174,31.236968 12.3772785,30.980895 11.789516,30.980895 C11.2017534,30.980895 10.6428493,31.236968 10.2589224,31.6822648 C8.83024658,33.3392511 6.759379,34.2897534 4.57782648,34.2897534 C3.46184475,34.2897534 2.55700457,35.1945936 2.55700457,36.3105753 C2.55700457,37.4265571 3.46184475,38.331032 4.57782648,38.331032 C6.92851142,38.331032 9.1933516,37.6139543 11.0954521,36.3105753 C11.3321644,36.1480183 11.5644932,35.9781553 11.789516,35.7976986 C12.0145388,35.9781553 12.2468676,36.1480183 12.4839452,36.3105753 C14.3856804,37.6139543 16.6508858,38.331032 19.0012055,38.331032 C21.3515251,38.331032 23.6170959,37.6139543 25.5188311,36.3105753 C25.7559087,36.1480183 25.9878721,35.9781553 26.2132603,35.7976986 C26.4379178,35.9781553 26.6702466,36.1480183 26.9073242,36.3105753 C28.8090594,37.6139543 31.0742648,38.331032 33.4245845,38.331032 C35.7749041,38.331032 38.0401096,37.6139543 39.94221,36.3105753 C40.1789224,36.1480183 40.4112511,35.9781553 40.636274,35.7976986 C40.8612968,35.9781553 41.0936256,36.1480183 41.3303379,36.3105753 C43.2324384,37.6139543 45.4976438,38.331032 47.8483288,38.331032 C50.1986484,38.331032 52.4638539,37.6139543 54.365589,36.3105753 C54.6023014,36.1480183 54.8346301,35.9781553 55.059653,35.7976986 C55.2846758,35.9781553 55.5170046,36.1480183 55.7540822,36.3105753 C57.6558174,37.6139543 59.9210228,38.331032 62.2713425,38.331032 C63.3876895,38.331032 64.2921644,37.4265571 64.2921644,36.3105753 C64.2921644,35.1945936 63.3873242,34.2897534 62.2713425,34.2897534" id="Fill-13" fill="#7BC32F"></path>
                        <path d="M5.943379,27.9109406 C8.1826484,27.9109406 10.3404566,27.2274703 12.1523288,25.9858265 C12.3780822,25.8313059 12.5990868,25.6691142 12.8138813,25.4974247 C13.0283105,25.6691142 13.2493151,25.8313059 13.4750685,25.9858265 C15.2869406,27.2274703 17.4447489,27.9109406 19.6840183,27.9109406 C21.9229224,27.9109406 24.0810959,27.2274703 25.892968,25.9858265 C26.1187215,25.8313059 26.339726,25.6691142 26.5545205,25.4974247 C26.7685845,25.6691142 26.9899543,25.8313059 27.2157078,25.9858265 C29.0275799,27.2274703 31.1857534,27.9109406 33.4246575,27.9109406 C35.6635616,27.9109406 37.8217352,27.2274703 39.6336073,25.9858265 C39.8593607,25.8313059 40.0803653,25.6691142 40.2947945,25.4974247 C40.5092237,25.6691142 40.7305936,25.8313059 40.956347,25.9858265 C42.7682192,27.2274703 44.9260274,27.9109406 47.1652968,27.9109406 C49.4045662,27.9109406 51.5623744,27.2274703 53.3742466,25.9858265 C53.5996347,25.8313059 53.8210046,25.6691142 54.0354338,25.4974247 C54.249863,25.6691142 54.4712329,25.8313059 54.6969863,25.9858265 C56.5088584,27.2274703 58.6666667,27.9109406 60.9059361,27.9109406 C61.9693151,27.9109406 62.8310502,27.0492055 62.8310502,25.9858265 C62.8310502,24.9224475 61.9693151,24.0607123 60.9059361,24.0607123 C58.8277626,24.0607123 56.8547945,23.1551416 55.4936986,21.5766941 C55.1280365,21.1529498 54.5954338,20.9085662 54.0354338,20.9085662 C53.4757991,20.9085662 52.9435616,21.1525845 52.5778995,21.5766941 C51.2168037,23.1551416 49.2438356,24.060347 47.1652968,24.060347 C45.086758,24.060347 43.1141553,23.1551416 41.7526941,21.5763288 C41.387032,21.1525845 40.8547945,20.9085662 40.2947945,20.9085662 C39.7347945,20.9085662 39.2025571,21.1522192 38.836895,21.5763288 C37.4757991,23.1547763 35.5031963,24.060347 33.4246575,24.060347 C31.3461187,24.060347 29.373516,23.1547763 28.0124201,21.5763288 C27.646758,21.1522192 27.1145205,20.9085662 26.5545205,20.9085662 C25.9945205,20.9085662 25.4622831,21.1522192 25.096621,21.5763288 C23.7355251,23.1551416 21.7625571,24.060347 19.6840183,24.060347 C17.6054795,24.060347 15.6325114,23.1551416 14.2717808,21.5770594 C13.9057534,21.1529498 13.373516,20.9089315 12.8138813,20.9089315 C12.2538813,20.9089315 11.7216438,21.1529498 11.3556164,21.5770594 C9.99452055,23.1555068 8.02155251,24.0607123 5.943379,24.0607123 C4.88,24.0607123 4.01826484,24.9224475 4.01826484,25.9858265 C4.01826484,27.0492055 4.88,27.9109406 5.943379,27.9109406" id="Fill-15" fill="#7BC32F"></path>
                        <path d="M4.84409132,65.3881279 C2.97888584,65.3881279 1.46107763,63.8706849 1.46107763,62.0051142 L1.46107763,46.1227397 C1.46107763,44.2571689 2.97888584,42.739726 4.84409132,42.739726 L60.9094795,42.739726 C62.7746849,42.739726 64.2921279,44.2571689 64.2921279,46.1227397 L64.2921279,62.0051142 C64.2921279,63.8706849 62.7746849,65.3881279 60.9094795,65.3881279 L4.84409132,65.3881279 Z" id="Fill-17" fill="#FFFFFF"></path>
                        <path d="M60.9093333,41.2785388 L4.84394521,41.2785388 C2.16887671,41.2785388 0.000109589041,43.4473059 0.000109589041,46.1227397 L0.000109589041,62.0051142 C0.000109589041,64.6805479 2.16887671,66.8493151 4.84394521,66.8493151 L60.9093333,66.8493151 C63.5847671,66.8493151 65.7535342,64.6805479 65.7535342,62.0051142 L65.7535342,46.1227397 C65.7535342,43.4473059 63.5847671,41.2785388 60.9093333,41.2785388 M60.9093333,44.2009132 C61.9690594,44.2009132 62.8311598,45.0630137 62.8311598,46.1227397 L62.8311598,62.0051142 C62.8311598,63.0648402 61.9690594,63.9269406 60.9093333,63.9269406 L4.84394521,63.9269406 C3.78458447,63.9269406 2.92248402,63.0648402 2.92248402,62.0051142 L2.92248402,46.1227397 C2.92248402,45.0630137 3.78458447,44.2009132 4.84394521,44.2009132 L60.9093333,44.2009132" id="Fill-19" fill="#7BC32F"></path>
                    </g>
                    <text id="pH" font-family="Roboto-Black, Roboto" font-size="14.6118721" font-weight="700" fill="#4A90E2">
                        <tspan x="22.7702283" y="18.9923288">pH</tspan>
                    </text>
                </g>
            </g>
        </g>
    </g>
</svg>