<?xml version="1.0" encoding="UTF-8"?>
<svg width="80px" height="81px" viewBox="0 0 80 81" version="1.1" xmlns="http://www.w3.org/2000/svg" xmlns:xlink="http://www.w3.org/1999/xlink">
    <!-- Generator: Sketch 49 (51002) - http://www.bohemiancoding.com/sketch -->
    <title>Page 1</title>
    <desc>Created with Sketch.</desc>
    <defs>
        <filter x="-22.7%" y="-12.7%" width="148.4%" height="146.3%" filterUnits="objectBoundingBox" id="filter-1">
            <feOffset dx="1" dy="7" in="SourceAlpha" result="shadowOffsetOuter1"></feOffset>
            <feGaussianBlur stdDeviation="4" in="shadowOffsetOuter1" result="shadowBlurOuter1"></feGaussianBlur>
            <feColorMatrix values="0 0 0 0 0.26049149   0 0 0 0 0.324856505   0 0 0 0 0.26049149  0 0 0 0.364102129 0" type="matrix" in="shadowBlurOuter1" result="shadowMatrixOuter1"></feColorMatrix>
            <feMerge>
                <feMergeNode in="shadowMatrixOuter1"></feMergeNode>
                <feMergeNode in="SourceGraphic"></feMergeNode>
            </feMerge>
        </filter>
    </defs>
    <g id="Page-1" stroke="none" stroke-width="1" fill="none" fill-rule="evenodd">
        <g id="thuỷ-canh-copy" transform="translate(-1243.000000, -538.000000)">
            <g id="Page-1" filter="url(#filter-1)" transform="translate(1250.000000, 539.000000)">
                <g id="Group-12" transform="translate(0.000000, 0.088889)">
                    <path d="M32,62.7694578 C15.1804444,62.7694578 1.49688889,49.0862578 1.49688889,32.2667022 C1.49688889,15.4471467 15.1804444,1.76394667 32,1.76394667 C48.8195556,1.76394667 62.5031111,15.4471467 62.5031111,32.2667022 C62.5031111,49.0862578 48.8195556,62.7694578 32,62.7694578" id="Fill-1" fill="#FFFFFF"></path>
                    <path d="M32,0.266666667 C14.3267556,0.266666667 0,14.5934222 0,32.2666667 C0,49.9399111 14.3267556,64.2666667 32,64.2666667 C49.6732444,64.2666667 64,49.9399111 64,32.2666667 C64,14.5934222 49.6732444,0.266666667 32,0.266666667 M32,3.2608 C47.9939556,3.2608 61.0058667,16.2730667 61.0058667,32.2666667 C61.0058667,48.2602667 47.9939556,61.2725333 32,61.2725333 C16.0060444,61.2725333 2.99413333,48.2602667 2.99413333,32.2666667 C2.99413333,16.2730667 16.0060444,3.2608 32,3.2608" id="Fill-3" fill="#7BC32F"></path>
                    <path d="M32.9386968,33.4620819 C32.0423412,33.4620819 31.3155857,32.7349708 31.3155857,31.8386152 C31.3155857,30.9419041 32.0423412,30.2151485 32.9386968,30.2151485 C33.8350523,30.2151485 34.5621635,30.9419041 34.5621635,31.8386152 C34.5621635,32.7349708 33.8350523,33.4620819 32.9386968,33.4620819 M44.4970968,34.2759485 L36.0917635,31.5851041 C36.0718523,31.334793 36.0231412,31.0926596 35.9477635,30.8619041 C36.3026079,30.7420819 36.6688301,30.6123041 37.0386079,30.4729263 C40.3826079,29.2117708 42.309719,27.8012819 42.7662523,26.2809263 C43.0698968,25.2697263 42.7463412,24.2663485 41.8051857,23.2992374 C41.0627857,22.5362152 39.4218968,21.3945263 39.3525635,21.3461708 C39.0898079,21.1637708 38.7296301,21.225993 38.5429635,21.485193 L33.3472301,28.7015485 C33.2135412,28.6841263 33.0773635,28.6745263 32.9386968,28.6745263 C32.8434079,28.6745263 32.7491857,28.6795041 32.6560301,28.6876819 C32.6332746,26.0313263 32.3040301,22.6457263 30.9123857,21.1100819 C30.3715857,20.5134596 29.7130968,20.2105263 28.9546968,20.2105263 L28.9543412,20.2105263 C28.4338079,20.2105263 27.8670523,20.3595041 27.2711412,20.653193 C26.5330079,21.0169263 25.4140746,21.8208374 24.9130968,22.1909708 C24.7658968,22.2990596 24.6716746,22.3708819 24.6560301,22.3826152 C24.4970968,22.5035041 24.4170968,22.6901708 24.4252746,22.8761263 C24.4302523,22.9874152 24.4672301,23.0990596 24.5383412,23.1954152 L30.005719,30.653193 C29.9459857,30.8011041 29.896919,30.9543485 29.8595857,31.1125708 C28.0725635,30.5298152 25.8318523,29.9502596 23.9879412,29.9502596 C22.5358523,29.9502596 21.4816301,30.3168374 20.8554968,31.0400374 C20.3036746,31.6768374 20.1045635,32.5579041 20.2634968,33.6587041 C20.4156746,34.7122152 21.0720301,36.5998596 21.100119,36.6798596 C21.1840301,36.9209263 21.410519,37.072393 21.6530079,37.072393 C21.7141635,37.072393 21.7756746,37.0631485 21.8364746,37.0428819 L30.7378079,34.1081263 C30.8362968,34.2041263 30.9404746,34.2940819 31.0510523,34.3762152 C30.7420746,34.7993263 30.421719,35.2565708 30.1063412,35.7358596 C28.1422523,38.7214596 27.4122968,40.9952374 27.9363857,42.493193 C28.2855412,43.4901708 29.1370968,44.1120374 30.4668746,44.3413708 C31.1538079,44.4597708 32.2386079,44.4846596 33.0275857,44.4846596 C33.3699857,44.4846596 33.5986079,44.4796819 33.5986079,44.4796819 C33.9178968,44.4729263 34.1731857,44.2108819 34.1717635,43.8912374 L34.1326523,34.7680374 C34.3079412,34.6962152 34.4750523,34.6091041 34.6332746,34.5084819 C34.8924746,34.8622596 35.1683857,35.2263485 35.4613635,35.5936374 C37.6754079,38.368393 39.5989635,39.7753263 41.1794079,39.7753263 C41.9242968,39.7753263 42.9802968,39.456393 43.7795857,37.9392374 C44.2755857,36.9973708 44.8551412,35.0841263 44.879319,35.0034152 C44.9717635,34.6972819 44.8018079,34.3733708 44.4970968,34.2759485" id="Fill-5" fill="#7BC32F"></path>
                    <g id="Group-11" transform="translate(0.000000, 39.822222)"></g>
                </g>
            </g>
        </g>
    </g>
</svg>