<?xml version="1.0" encoding="UTF-8"?>
<svg width="76px" height="65px" viewBox="0 0 76 65" version="1.1" xmlns="http://www.w3.org/2000/svg" xmlns:xlink="http://www.w3.org/1999/xlink">
    <!-- Generator: Sketch 49 (51002) - http://www.bohemiancoding.com/sketch -->
    <title>Page 1</title>
    <desc>Created with Sketch.</desc>
    <defs>
        <filter x="-24.2%" y="-17.0%" width="151.7%" height="162.0%" filterUnits="objectBoundingBox" id="filter-1">
            <feOffset dx="1" dy="7" in="SourceAlpha" result="shadowOffsetOuter1"></feOffset>
            <feGaussianBlur stdDeviation="4" in="shadowOffsetOuter1" result="shadowBlurOuter1"></feGaussianBlur>
            <feColorMatrix values="0 0 0 0 0.26049149   0 0 0 0 0.324856505   0 0 0 0 0.26049149  0 0 0 0.364102129 0" type="matrix" in="shadowBlurOuter1" result="shadowMatrixOuter1"></feColorMatrix>
            <feMerge>
                <feMergeNode in="shadowMatrixOuter1"></feMergeNode>
                <feMergeNode in="SourceGraphic"></feMergeNode>
            </feMerge>
        </filter>
    </defs>
    <g id="Page-1" stroke="none" stroke-width="1" fill="none" fill-rule="evenodd">
        <g id="thuỷ-canh-copy" transform="translate(-458.000000, -134.000000)">
            <g id="Page-1" filter="url(#filter-1)" transform="translate(465.000000, 135.000000)">
                <polygon id="Fill-1" fill="#7BC32F" points="53.1277533 30.8360656 53.1277533 38.6127049 45.4625551 38.6127049 45.4625551 41.0471311 55.5066079 41.0471311 55.5066079 39.2213115 55.5066079 38.6127049 55.5066079 30.8360656"></polygon>
                <g id="Group-20" transform="translate(0.000000, 0.067623)">
                    <path d="M23.7885463,47.7523795 C11.285022,47.7523795 1.11303965,37.342773 1.11303965,24.5471582 C1.11303965,11.7515434 11.285022,1.34193689 23.7885463,1.34193689 C36.2920705,1.34193689 46.4640529,11.7515434 46.4640529,24.5471582 C46.4640529,37.342773 36.2920705,47.7523795 23.7885463,47.7523795" id="Fill-2" fill="#FFFFFF"></path>
                    <path d="M23.7885463,0.202868852 C10.6503965,0.202868852 0,11.1020656 0,24.5471311 C0,37.9921967 10.6503965,48.8913934 23.7885463,48.8913934 C36.926696,48.8913934 47.5770925,37.9921967 47.5770925,24.5471311 C47.5770925,11.1020656 36.926696,0.202868852 23.7885463,0.202868852 M23.7885463,2.48068033 C35.6780617,2.48068033 45.3512775,12.3798689 45.3512775,24.5471311 C45.3512775,36.7143934 35.6780617,46.613582 23.7885463,46.613582 C11.8990308,46.613582 2.22581498,36.7143934 2.22581498,24.5471311 C2.22581498,12.3798689 11.8990308,2.48068033 23.7885463,2.48068033" id="Fill-4" fill="#7BC32F"></path>
                    <path d="M44.7932511,24.5791033 C43.224,24.5791033 41.7345727,23.8839393 40.7013568,22.6705131 C40.5863789,22.5355377 40.4584493,22.409759 40.3051454,22.3237426 C39.6528106,21.9583082 38.9042643,22.1300705 38.4676123,22.6483328 C37.4338678,23.8750131 35.9354537,24.5788328 34.3569515,24.5788328 C32.7877004,24.5788328 31.2980088,23.8839393 30.264793,22.6702426 C30.1500793,22.5355377 30.0218855,22.4094885 29.8685815,22.3237426 C29.2162467,21.9583082 28.4677004,22.1300705 28.0313128,22.6480623 C26.9975683,23.8750131 25.4994185,24.5788328 23.9203877,24.5788328 C22.3514009,24.5788328 20.8617093,23.8836689 19.8287577,22.6702426 C19.7137797,22.5355377 19.5858502,22.4094885 19.4325463,22.3237426 C18.7802115,21.9583082 18.0316652,22.1300705 17.5952775,22.6480623 C16.5612687,23.8750131 15.0631189,24.5791033 13.4843524,24.5791033 C11.914837,24.5791033 10.425674,23.8839393 9.39219383,22.6705131 C9.27748018,22.5355377 9.14928634,22.409759 8.99598238,22.3237426 C8.34391189,21.9583082 7.59536564,22.1300705 7.15871366,22.6483328 C6.13131278,23.8679803 4.64452863,24.570718 3.0763348,24.5791033 C2.39360352,24.5828902 1.76875771,25.0540869 1.62232599,25.7362672 C1.41351542,26.7105787 2.13245815,27.5715541 3.04778855,27.5715541 C4.7486696,27.5715541 6.38770044,27.0405787 7.764,26.0754639 C7.93554185,25.9550951 8.10311894,25.8293164 8.26646696,25.6959639 C8.42902203,25.8293164 8.59739207,25.9550951 8.7686696,26.0754639 C10.1444405,27.0405787 11.7837357,27.5715541 13.4843524,27.5715541 C15.1849692,27.5715541 16.8242643,27.0405787 18.2002996,26.0754639 C18.3715771,25.9550951 18.5396828,25.8293164 18.7025022,25.6959639 C18.8653216,25.8293164 19.0334273,25.9550951 19.2047048,26.0754639 C20.5807401,27.0405787 22.2202996,27.5715541 23.920652,27.5715541 C25.6212687,27.5715541 27.2605639,27.0405787 28.6365991,26.0754639 C28.8078767,25.9550951 28.9757181,25.8293164 29.1388018,25.6959639 C29.3016211,25.8293164 29.4697269,25.9550951 29.6412687,26.0754639 C31.017304,27.0405787 32.6563348,27.5715541 34.3572159,27.5715541 C36.0578326,27.5715541 37.6968634,27.0405787 39.0726344,26.0754639 C39.2441762,25.9550951 39.4122819,25.8293164 39.5751013,25.6959639 C39.7379207,25.8293164 39.9060264,25.9550951 40.077304,26.0754639 C41.429815,27.0238082 43.0365991,27.5531607 44.7060264,27.5712836 C45.4289339,27.5788574 46.098185,27.0884557 46.229815,26.3608328 C46.4016211,25.4089721 45.6919295,24.5791033 44.7932511,24.5791033" id="Fill-6" fill="#7BC32F"></path>
                    <path d="M4.05174449,19.8557754 C5.66645815,19.852259 7.22196476,19.3467098 8.5287489,18.4300131 C8.69209692,18.3158656 8.85200881,18.1957672 9.007163,18.0689066 C9.16231718,18.1957672 9.32249339,18.3158656 9.48584141,18.4300131 C10.7968546,19.3496852 12.3584405,19.8557754 13.9784405,19.8557754 C15.5987048,19.8557754 17.1600264,19.3496852 18.4710396,18.4300131 C18.6343877,18.3158656 18.7942996,18.1957672 18.9494537,18.0689066 C19.1046079,18.1957672 19.2650485,18.3158656 19.4281322,18.4300131 C20.7391454,19.3496852 22.3007313,19.8557754 23.9207313,19.8557754 C25.5407313,19.8557754 27.1023172,19.3496852 28.4133304,18.4300131 C28.5764141,18.3158656 28.7365903,18.1957672 28.8920088,18.0689066 C29.0466344,18.1957672 29.2070749,18.3158656 29.3704229,18.4300131 C30.6814361,19.3496852 32.2427577,19.8557754 33.863022,19.8557754 C35.4832863,19.8557754 37.0446079,19.3496852 38.3556211,18.4300131 C38.5187048,18.3158656 38.6788811,18.1957672 38.8342996,18.0689066 C38.9891894,18.1957672 39.1493656,18.3158656 39.3124493,18.4300131 C40.6194978,19.3467098 42.1747401,19.852259 43.7897181,19.8557754 C44.4497181,19.8571279 45.0433744,19.3818738 45.170511,18.7191689 C45.3457533,17.805177 44.6669868,17.0047918 43.8053128,17.0047918 C42.3105991,17.0047918 40.8914802,16.3426279 39.9068987,15.1865459 C39.7974714,15.0583328 39.6756211,14.9382344 39.5297181,14.8565459 C38.9083084,14.507882 38.1951806,14.6718 37.7794097,15.1654475 C36.7945639,16.3342426 35.3672511,17.0047918 33.863022,17.0047918 C32.3683084,17.0047918 30.9491894,16.3423574 29.9646079,15.1865459 C29.8551806,15.0580623 29.7333304,14.9379639 29.587163,14.8562754 C28.9660176,14.507882 28.2528899,14.6718 27.8368546,15.165177 C26.8522731,16.3339721 25.424696,17.0045213 23.9207313,17.0045213 C22.4260176,17.0045213 21.0066344,16.3423574 20.0225815,15.1865459 C19.9131542,15.0580623 19.791304,14.9379639 19.6451366,14.8562754 C19.0239912,14.507882 18.3105991,14.6718 17.8948282,15.165177 C16.9097181,16.3342426 15.4824053,17.0047918 13.9784405,17.0047918 C12.4834626,17.0047918 11.0643436,16.3426279 10.0805551,15.1868164 C9.97112775,15.0586033 9.84901322,14.9385049 9.70284581,14.8568164 C9.08143612,14.5081525 8.36830837,14.6720705 7.95253744,15.1654475 C6.967163,16.3345131 5.53985022,17.0047918 4.03588546,17.0047918 C3.17447577,17.0047918 2.49570925,17.805177 2.67068722,18.7191689 C2.79808811,19.3818738 3.39174449,19.8571279 4.05174449,19.8557754" id="Fill-8" fill="#7BC32F"></path>
                    <path d="M54.6405991,24.5339311 C55.0584846,24.389218 55.3212159,23.9631934 55.3212159,23.5117426 L55.3212159,19.9490951 C55.3212159,19.4979148 55.0584846,19.0718902 54.6408634,18.9269066 C53.9380441,18.6826525 53.262185,19.2171443 53.262185,19.9077098 L53.262185,23.5528574 C53.2624493,24.2436934 53.9375154,24.7776443 54.6405991,24.5339311" id="Fill-10" fill="#7BC32F"></path>
                    <path d="M56.4916123,19.767568 C56.3647401,19.7134697 56.21963,19.7278057 56.1041233,19.8059779 C55.989674,19.88415 55.9206872,20.0158795 55.9206872,20.1568057 L55.9206872,21.5303631 C55.9206872,21.6829205 55.995489,21.8287156 56.1250044,21.9047238 C57.3271189,22.6096254 58.073815,23.9734451 57.9408634,25.5017238 C57.7899383,27.2380107 56.4392775,28.6675598 54.7481762,28.8785434 C52.5207753,29.1557975 50.6269427,27.3765025 50.6269427,25.1519779 C50.6269427,23.7738221 51.3651806,22.5666172 52.4475595,21.91365 C52.5778678,21.8349369 52.6632423,21.6969861 52.6632423,21.5422648 L52.6632423,20.1565352 C52.6632423,20.0158795 52.5942555,19.8838795 52.4792775,19.8057074 C52.3645639,19.7272648 52.2194537,19.7131992 52.0917885,19.7672975 C49.9357533,20.6875107 48.4727577,22.9071664 48.6012159,25.4630434 C48.7479119,28.3857074 51.0554009,30.7838877 53.9089692,30.9762074 C57.2343436,31.2001746 59.9924934,28.5071582 59.9924934,25.1519779 C59.9922291,22.7283713 58.5604229,20.6501828 56.4916123,19.767568" id="Fill-12" fill="#7BC32F"></path>
                    <path d="M57.6211454,12.2397541 C57.6211454,14.5554344 56.2739207,15.8913934 54.4493392,15.8913934 C52.6247577,15.8913934 51.0132159,14.5554344 51.0132159,12.2397541 C51.0132159,9.92407377 54.4493392,4.2602459 54.4493392,4.2602459 C54.4493392,4.2602459 57.6211454,9.92407377 57.6211454,12.2397541" id="Fill-14" fill="#7BC32F"></path>
                </g>
            </g>
        </g>
    </g>
</svg>