<?xml version="1.0" encoding="UTF-8"?>
<svg width="76px" height="65px" viewBox="0 0 76 65" version="1.1" xmlns="http://www.w3.org/2000/svg" xmlns:xlink="http://www.w3.org/1999/xlink">
    <!-- Generator: Sketch 49 (51002) - http://www.bohemiancoding.com/sketch -->
    <title>Group 20 Copy</title>
    <desc>Created with Sketch.</desc>
    <defs>
        <filter x="-1.0%" y="-1.0%" width="102.2%" height="103.6%" filterUnits="objectBoundingBox" id="filter-1">
            <feOffset dx="1" dy="7" in="SourceAlpha" result="shadowOffsetOuter1"></feOffset>
            <feGaussianBlur stdDeviation="4" in="shadowOffsetOuter1" result="shadowBlurOuter1"></feGaussianBlur>
            <feColorMatrix values="0 0 0 0 0.26049149   0 0 0 0 0.324856505   0 0 0 0 0.26049149  0 0 0 0.364102129 0" type="matrix" in="shadowBlurOuter1" result="shadowMatrixOuter1"></feColorMatrix>
            <feMerge>
                <feMergeNode in="shadowMatrixOuter1"></feMergeNode>
                <feMergeNode in="SourceGraphic"></feMergeNode>
            </feMerge>
        </filter>
    </defs>
    <g id="Page-1" stroke="none" stroke-width="1" fill="none" fill-rule="evenodd">
        <g id="thuỷ-canh-copy" transform="translate(-1836.000000, -939.000000)">
            <g id="Page-1" filter="url(#filter-1)" transform="translate(465.000000, 135.000000)">
                <g id="Group-20-Copy" transform="translate(1378.000000, 805.000000)">
                    <path d="M23.5,47 C11.093252,47 1,36.6824535 1,24 C1,11.3175465 11.093252,1 23.5,1 C35.906748,1 46,11.3175465 46,24 C46,36.6824535 35.906748,47 23.5,47" id="Fill-2" fill="#FFFFFF"></path>
                    <path d="M24,0 C10.7450667,0 0,10.9689222 0,24.5 C0,38.0310778 10.7450667,49 24,49 C37.2549333,49 48,38.0310778 48,24.5 C48,10.9689222 37.2549333,0 24,0 M24,2.29238333 C35.9952,2.29238333 45.7544,12.2549 45.7544,24.5 C45.7544,36.7451 35.9952,46.7076167 24,46.7076167 C12.0048,46.7076167 2.2456,36.7451 2.2456,24.5 C2.2456,12.2549 12.0048,2.29238333 24,2.29238333" id="Fill-4" fill="#A8A8A8"></path>
                    <path d="M45.5268265,24.2508727 C43.9459702,24.2508727 42.445528,23.6122343 41.4046711,22.4974747 C41.2888428,22.3734745 41.1599672,22.2579232 41.0055295,22.178901 C40.3483704,21.8431809 39.5942884,22.0009768 39.1544072,22.4770979 C38.1130177,23.6040339 36.6035223,24.2506242 35.0133464,24.2506242 C33.4324901,24.2506242 31.9317816,23.6122343 30.8909247,22.4972262 C30.7753627,22.3734745 30.6462208,22.2576747 30.4917831,22.178901 C29.834624,21.8431809 29.080542,22.0009768 28.6409271,22.4768494 C27.5995376,23.6040339 26.0903084,24.2506242 24.4996,24.2506242 C22.91901,24.2506242 21.4183015,23.6119858 20.3777109,22.4972262 C20.2618826,22.3734745 20.133007,22.2576747 19.9785693,22.178901 C19.3214102,21.8431809 18.5673282,22.0009768 18.1277132,22.4768494 C17.0860575,23.6040339 15.5768283,24.2508727 13.9863862,24.2508727 C12.4052636,24.2508727 10.9050877,23.6122343 9.86396451,22.4974747 C9.7484025,22.3734745 9.61926062,22.2579232 9.46482291,22.178901 C8.80793011,21.8431809 8.05384806,22.0009768 7.61396686,22.4770979 C6.57896795,23.5975729 5.08118846,24.2431693 3.50139721,24.2508727 C2.81361687,24.2543517 2.18415007,24.6872342 2.03663544,25.3139448 C1.82628063,26.2090326 2.55054022,27 3.47263985,27 C5.18609959,27 6.8372517,26.5121995 8.22372954,25.6255606 C8.39654001,25.5149792 8.5653564,25.3994279 8.72991244,25.2769187 C8.89366966,25.3994279 9.06328487,25.5149792 9.23582907,25.6255606 C10.6217744,26.5121995 12.2731927,27 13.9863862,27 C15.6995797,27 17.3509981,26.5121995 18.7372096,25.6255606 C18.9097538,25.5149792 19.0791028,25.3994279 19.2431263,25.2769187 C19.4071498,25.3994279 19.5764987,25.5149792 19.7490429,25.6255606 C21.1352545,26.5121995 22.7869391,27 24.4998663,27 C26.2130598,27 27.8644782,26.5121995 29.2506897,25.6255606 C29.4232339,25.5149792 29.5923166,25.3994279 29.7566064,25.2769187 C29.9206299,25.3994279 30.0899788,25.5149792 30.2627893,25.6255606 C31.6490008,26.5121995 33.3001529,27 35.0136127,27 C36.7268062,27 38.3779583,26.5121995 39.7639036,25.6255606 C39.936714,25.5149792 40.106063,25.3994279 40.2700865,25.2769187 C40.43411,25.3994279 40.6034589,25.5149792 40.7760031,25.6255606 C42.1385165,26.4967927 43.7571834,26.9831022 45.4389568,26.9997515 C46.1672105,27.0067094 46.8414109,26.5561836 46.9740143,25.8877254 C47.1470911,25.0132629 46.432151,24.2508727 45.5268265,24.2508727" id="Fill-6" fill="#A8A8A8"></path>
                    <path d="M4.42344709,19.9999972 C6.05503698,19.9966064 7.62680102,19.5091073 8.94724305,18.6251403 C9.11229831,18.5150683 9.27388153,18.3992579 9.43065731,18.2769267 C9.5874331,18.3992579 9.74928339,18.5150683 9.91433865,18.6251403 C11.239054,19.5119765 12.8169608,19.9999972 14.4538923,19.9999972 C16.0910909,19.9999972 17.6687307,19.5119765 18.993446,18.6251403 C19.1585012,18.5150683 19.3200845,18.3992579 19.4768602,18.2769267 C19.633636,18.3992579 19.7957534,18.5150683 19.9605416,18.6251403 C21.2852569,19.5119765 22.8631638,19.9999972 24.5000952,19.9999972 C26.1370267,19.9999972 27.7149336,19.5119765 29.0396489,18.6251403 C29.2044371,18.5150683 29.3662874,18.3992579 29.5233303,18.2769267 C29.6795719,18.3992579 29.8416893,18.5150683 30.0067445,18.6251403 C31.3314598,19.5119765 32.9090996,19.9999972 34.5462982,19.9999972 C36.1834967,19.9999972 37.7611365,19.5119765 39.0858518,18.6251403 C39.25064,18.5150683 39.4124903,18.3992579 39.5695332,18.2769267 C39.7260419,18.3992579 39.8878922,18.5150683 40.0526804,18.6251403 C41.3733895,19.5091073 42.9448864,19.9966064 44.5767434,19.9999972 C45.2436414,20.0013014 45.8435024,19.5430158 45.9719678,18.903972 C46.1490416,18.0226134 45.4631809,17.2508051 44.5925011,17.2508051 C43.0821654,17.2508051 41.6482145,16.612283 40.6533426,15.4974778 C40.5427716,15.3738424 40.4196479,15.258032 40.2722199,15.1792601 C39.6443155,14.8430449 38.9237345,15.0011104 38.5036181,15.4771327 C37.5084791,16.6041972 36.0662488,17.2508051 34.5462982,17.2508051 C33.0359625,17.2508051 31.6020116,16.6120222 30.6071397,15.4974778 C30.4965687,15.3735816 30.3734449,15.2577712 30.2257499,15.1789993 C29.5981126,14.8430449 28.8775315,15.0011104 28.4571481,15.4768719 C27.4622762,16.6039363 26.0197787,17.2505442 24.5000952,17.2505442 C22.9897595,17.2505442 21.5555416,16.6120222 20.5612038,15.4974778 C20.4506328,15.3735816 20.3275091,15.2577712 20.179814,15.1789993 C19.5521767,14.8430449 18.8313286,15.0011104 18.4112122,15.4768719 C17.4158062,16.6041972 15.9735758,17.2508051 14.4538923,17.2508051 C12.9432895,17.2508051 11.5093386,16.612283 10.515268,15.4977386 C10.404697,15.3741032 10.2813062,15.2582928 10.1336111,15.1795209 C9.50570671,14.8433057 8.78512568,15.0013712 8.36500931,15.4771327 C7.36933618,16.604458 5.9271058,17.2508051 4.40742231,17.2508051 C3.53700956,17.2508051 2.85114889,18.0226134 3.02795565,18.903972 C3.15668807,19.5430158 3.75654908,20.0013014 4.42344709,19.9999972" id="Fill-8" fill="#A8A8A8"></path>
                    <path d="M54.338896,24.9372155 C54.744801,24.785606 55,24.3392788 55,23.8663138 L55,20.1338854 C55,19.6612037 54.744801,19.2148765 54.3391528,19.0629836 C53.6564827,18.8070894 53,19.3670528 53,20.0905279 L53,23.9093879 C53.0002567,24.6331463 53.6559692,25.192543 54.338896,24.9372155" id="Fill-10" fill="#A8A8A8"></path>
                    <path d="M56.6216944,20.0319731 C56.4992643,19.9790976 56.3592349,19.9931096 56.2477725,20.0695148 C56.1373303,20.14592 56.0707589,20.2746721 56.0707589,20.412413 L56.0707589,21.7549243 C56.0707589,21.9040334 56.1429417,22.0465331 56.2679224,22.1208233 C57.4279476,22.8097923 58.1484998,24.1427859 58.0202032,25.6365214 C57.8745624,27.3335634 56.571192,28.7308009 54.9393007,28.9370157 C52.7898873,29.2080031 50.9623629,27.4689249 50.9623629,25.2946807 C50.9623629,23.947675 51.6747531,22.7677562 52.7192349,22.1295478 C52.8449808,22.0526138 52.9273661,21.9177811 52.9273661,21.7665569 L52.9273661,20.4121486 C52.9273661,20.2746721 52.8607947,20.1456557 52.7498424,20.0692504 C52.6391452,19.9925808 52.4991158,19.9788332 52.3759205,20.0317088 C50.295374,20.9311226 48.8836018,23.100608 49.0075623,25.5987153 C49.1491221,28.4553191 51.3758196,30.799294 54.1294766,30.9872667 C57.3384206,31.2061717 60,28.5740248 60,25.2946807 C59.9997449,22.9258542 58.6180702,20.8946384 56.6216944,20.0319731" id="Fill-12" fill="#A8A8A8"></path>
                    <path d="M58,12.2325581 C58,14.6216744 56.57284,16 54.64,16 C52.70716,16 51,14.6216744 51,12.2325581 C51,9.84344186 54.64,4 54.64,4 C54.64,4 58,9.84344186 58,12.2325581" id="Fill-14" fill="#A8A8A8"></path>
                </g>
            </g>
        </g>
    </g>
</svg>